<mxfile>
    <diagram id="qRLLroY03VtVviLtXb1q" name="Page-1">
        <mxGraphModel dx="1226" dy="1167" grid="0" gridSize="5" guides="1" tooltips="1" connect="1" arrows="1" fold="1" page="1" pageScale="1" pageWidth="1169" pageHeight="827" math="0" shadow="0">
            <root>
                <mxCell id="0"/>
                <mxCell id="1" style="" parent="0"/>
                <mxCell id="QhXyQ4ykt27i2-GysQ-a-2" value="" style="rounded=0;whiteSpace=wrap;html=1;movable=0;resizable=0;rotatable=0;deletable=0;editable=0;connectable=0;fillColor=none;" parent="1" vertex="1">
                    <mxGeometry x="24" y="59" width="610" height="652" as="geometry"/>
                </mxCell>
                <mxCell id="GEIzQCT62DjLHcosNujS-7" value="" style="rounded=0;whiteSpace=wrap;html=1;strokeWidth=2;fillColor=none;movable=1;resizable=1;rotatable=1;deletable=1;editable=1;connectable=1;" parent="1" vertex="1">
                    <mxGeometry x="688" y="126" width="457" height="208" as="geometry"/>
                </mxCell>
                <mxCell id="izLOdk6nZkrDbWo1u9eR-109" value="&amp;nbsp;" style="rounded=0;whiteSpace=wrap;html=1;strokeWidth=2;fillColor=none;movable=1;resizable=1;rotatable=1;deletable=1;editable=1;connectable=1;" parent="1" vertex="1">
                    <mxGeometry x="113" y="736" width="485" height="80" as="geometry"/>
                </mxCell>
                <mxCell id="izLOdk6nZkrDbWo1u9eR-110" value="Managed by Azure" style="text;html=1;align=center;verticalAlign=middle;resizable=0;points=[];autosize=1;fontSize=12;fontStyle=2" parent="1" vertex="1">
                    <mxGeometry x="111" y="785" width="110" height="18" as="geometry"/>
                </mxCell>
                <mxCell id="jljs6CkxNdAdKAyOecQK-7" value="Managed Identity&#10;&lt;tbd&gt;-KeyVaultReadÂ " style="shape=image;verticalLabelPosition=middle;labelBackgroundColor=#ffffff;verticalAlign=middle;aspect=fixed;imageAspect=0;image=data:image/svg+xml,PHN2ZyB4bWxucz0iaHR0cDovL3d3dy53My5vcmcvMjAwMC9zdmciIHhtbG5zOnhsaW5rPSJodHRwOi8vd3d3LnczLm9yZy8xOTk5L3hsaW5rIiB4bWxuczpzdmc9Imh0dHA6Ly93d3cudzMub3JnLzIwMDAvc3ZnIiBjbGFzcz0iZnhzLXBvcnRhbC1zdmciIGlkPSJGeFN5bWJvbDAtMGMwIiByb2xlPSJwcmVzZW50YXRpb24iIHZpZXdCb3g9IjAgMCA3Ni4wMzEgMTAwIiBmb2N1c2FibGU9ImZhbHNlIj4mI3hhOzxnPiYjeGE7PHRpdGxlLz4mI3hhOzx0aXRsZT5NU0lfMjwvdGl0bGU+JiN4YTs8cGF0aCBjbGFzcz0ibXNwb3J0YWxmeC1zdmctYzExIiBmaWxsPSIjZmNkMTE2IiBkPSJNIDI4LjI4NCA4MS44NSBhIDUuMDcgNS4wNyAwIDAgMSAwIC03LjE3MiBsIDExLjEyOCAtMTEuMTI3IFYgNTMuNiBsIDE2LjQzMyAtMTYuNDM0IGEgMTAuODMgMTAuODMgMCAwIDAgMCAtMTUuMzE0IEwgMzcuMTY2IDMuMTcyIGEgMTAuODMxIDEwLjgzMSAwIDAgMCAtMTUuMzE2IDAgTCAzLjE3MiAyMS44NTIgYSAxMC44MjggMTAuODI4IDAgMCAwIDAgMTUuMzE0IEwgMjAuOTA4IDU0LjkgdiAxLjUgbCAtNS4wNDkgNS4wNSBsIDUuMDA1IDUuMDA1IGwgLTUuMDA1IDUgbCA1LjAwNSA1LjAwNSBsIC01LjAwNSA1IGwgNS4wNDkgNS4wNSB2IDAuMDYzIGwgOC42IDguNiBsIDYuMDUxIC02LjA1MSBaIG0gLTQuOTIzIC02OC4wMTYgYSA2LjE0NyA2LjE0NyAwIDEgMSA2LjE0NyA2LjE0NyBhIDYuMTQ4IDYuMTQ4IDAgMCAxIC02LjE0NyAtNi4xNDcgWiIvPiYjeGE7PHBhdGggY2xhc3M9Im1zcG9ydGFsZngtc3ZnLWMwMSIgb3BhY2l0eT0iMC41IiBmaWxsPSIjZmZmZmZmIiBkPSJNIDEyLjM2NCAyNS45MiBoIDM1LjQ4MiB2IDUuMSBIIDEyLjM2NCBaIG0gMCA4LjI5NyBoIDM1LjQ4MiB2IDUuMSBIIDEyLjM2NCBaIi8+JiN4YTs8cGF0aCBjbGFzcz0ibXNwb3J0YWxmeC1zdmctYzE1IiBmaWxsPSIjNTliNGQ5IiBkPSJNIDU0LjMgMTAwIGEgMy45NzggMy45NzggMCAwIDEgLTIuODM1IC0xLjE3NSBMIDMzLjczNSA4MS4xIGEgNC4wMDggNC4wMDggMCAwIDEgMCAtNS42NyBMIDUxLjQ2MSA1Ny43IGEgNC4wMDUgNC4wMDUgMCAwIDEgNS42NyAwIGwgMTcuNzI0IDE3LjcyOSBhIDQuMDA2IDQuMDA2IDAgMCAxIDAgNS42NzIgTCA1Ny4xMzEgOTguODI1IEEgMy45NzggMy45NzggMCAwIDEgNTQuMyAxMDAiLz4mI3hhOzxwYXRoIGNsYXNzPSJtc3BvcnRhbGZ4LXN2Zy1jMDEiIGZpbGw9IiNmZmZmZmYiIGQ9Ik0gNjYuMTMyIDc0Ljg2NyBhIDMuMzkzIDMuMzkzIDAgMCAwIC0yLjgzOSA1LjI2MiBsIC02LjczMyA2LjczMiBhIDMuOTkxIDMuOTkxIDAgMCAwIC0wLjU3IC0wLjMyNCBWIDY5LjM2IGEgMy40IDMuNCAwIDEgMCAtMy4zODggMCB2IDE3LjE3NiBhIDMuOTI5IDMuOTI5IDAgMCAwIC0wLjU1IDAuMzA3IGwgLTYuNzQgLTYuNzQgYSAzLjQ5MyAzLjQ5MyAwIDEgMCAtMS43NDQgMS4zNjEgbCA3LjA4NSA3LjA4NiBhIDMuOTU3IDMuOTU3IDAgMSAwIDcuMjkyIDAuMDI4IGwgNy4xMDYgLTcuMTA1IGEgMy4zNTYgMy4zNTYgMCAwIDAgMS4wNzkgMC4xOTEgYSAzLjQgMy40IDAgMCAwIDAgLTYuOCBaIi8+JiN4YTs8cGF0aCBjbGFzcz0ibXNwb3J0YWxmeC1zdmctYzAxIiBvcGFjaXR5PSIwLjUiIGZpbGw9IiNmZmZmZmYiIGQ9Ik0gNTMuNDg0IDY3LjA5MiBsIDEuNTUgLTEuNTUyIGwgMTIuNzE0IDEyLjcxIGwgLTEuNTUyIDEuNTUxIFoiLz4mI3hhOzxwYXRoIGNsYXNzPSJtc3BvcnRhbGZ4LXN2Zy1jMDEiIG9wYWNpdHk9IjAuNSIgZmlsbD0iI2ZmZmZmZiIgZD0iTSA0MC44NTkgNzguMjYyIEwgNTMuNTcgNjUuNTUgbCAxLjU1MiAxLjU1MSBMIDQyLjQxIDc5LjgxMyBaIi8+JiN4YTs8cGF0aCBjbGFzcz0ibXNwb3J0YWxmeC1zdmctYzEzIiBmaWxsPSIjYjhkNDMyIiBkPSJNIDU2LjYxMiA5MC4xIGEgMi4zNTYgMi4zNTYgMCAxIDEgLTIuMzU2IC0yLjM1NSBhIDIuMzU1IDIuMzU1IDAgMCAxIDIuMzU2IDIuMzU1IG0gLTAuNDI3IC0yMy42NyBhIDEuODkgMS44OSAwIDEgMSAtMS44OSAtMS44OSBhIDEuODg5IDEuODg5IDAgMCAxIDEuODkgMS44OSBNIDQ0LjM1MiA3OC4yNjUgYSAxLjg5IDEuODkgMCAxIDEgLTEuODkgLTEuODkgYSAxLjg5MSAxLjg5MSAwIDAgMSAxLjg5IDEuODkgbSAyMy42NyAwIGEgMS44OTEgMS44OTEgMCAxIDEgLTEuODkxIC0xLjg5IGEgMS44OTEgMS44OTEgMCAwIDEgMS44OTEgMS44OSIvPiYjeGE7PHBhdGggY2xhc3M9Im1zcG9ydGFsZngtc3ZnLWMwMSIgb3BhY2l0eT0iMC4xIiBmaWxsPSIjZmZmZmZmIiBkPSJNIDU3LjEzMSA1Ny43IGEgNCA0IDAgMCAwIC01LjY2OSAwIEwgMzMuNzM1IDc1LjQyOSBhIDQuMDA4IDQuMDA4IDAgMCAwIDAgNS42NyBsIDEwLjAzNiAxMC4wMzYgTCA2Mi42NSA2My4yMjIgWiIvPiYjeGE7PHBhdGggY2xhc3M9Im1zcG9ydGFsZngtc3ZnLWMxMCIgb3BhY2l0eT0iMC40IiBmaWxsPSIjZmY4YzAwIiBkPSJNIDM0Ljc4OCA2OC4xMzcgdiAtMTIuOTIgbCAtMy44NjQgMS45MDMgdiAxNC44ODEgbCAzLjg2NCAtMy44NjQgWiIvPiYjeGE7PC9nPiYjeGE7PC9zdmc+;align=left;labelPosition=right;" parent="1" vertex="1">
                    <mxGeometry x="472" y="582" width="30.4" height="40" as="geometry"/>
                </mxCell>
                <mxCell id="DprlfWKMgX9ZJnvQbue8-4" value="Managed Identity&#10;&quot;control-plane&quot;" style="shape=image;verticalLabelPosition=middle;labelBackgroundColor=#ffffff;verticalAlign=middle;aspect=fixed;imageAspect=0;image=data:image/svg+xml,PHN2ZyB4bWxucz0iaHR0cDovL3d3dy53My5vcmcvMjAwMC9zdmciIHhtbG5zOnhsaW5rPSJodHRwOi8vd3d3LnczLm9yZy8xOTk5L3hsaW5rIiB4bWxuczpzdmc9Imh0dHA6Ly93d3cudzMub3JnLzIwMDAvc3ZnIiBjbGFzcz0iZnhzLXBvcnRhbC1zdmciIGlkPSJGeFN5bWJvbDAtMGMwIiByb2xlPSJwcmVzZW50YXRpb24iIHZpZXdCb3g9IjAgMCA3Ni4wMzEgMTAwIiBmb2N1c2FibGU9ImZhbHNlIj4mI3hhOzxnPiYjeGE7PHRpdGxlLz4mI3hhOzx0aXRsZT5NU0lfMjwvdGl0bGU+JiN4YTs8cGF0aCBjbGFzcz0ibXNwb3J0YWxmeC1zdmctYzExIiBmaWxsPSIjZmNkMTE2IiBkPSJNIDI4LjI4NCA4MS44NSBhIDUuMDcgNS4wNyAwIDAgMSAwIC03LjE3MiBsIDExLjEyOCAtMTEuMTI3IFYgNTMuNiBsIDE2LjQzMyAtMTYuNDM0IGEgMTAuODMgMTAuODMgMCAwIDAgMCAtMTUuMzE0IEwgMzcuMTY2IDMuMTcyIGEgMTAuODMxIDEwLjgzMSAwIDAgMCAtMTUuMzE2IDAgTCAzLjE3MiAyMS44NTIgYSAxMC44MjggMTAuODI4IDAgMCAwIDAgMTUuMzE0IEwgMjAuOTA4IDU0LjkgdiAxLjUgbCAtNS4wNDkgNS4wNSBsIDUuMDA1IDUuMDA1IGwgLTUuMDA1IDUgbCA1LjAwNSA1LjAwNSBsIC01LjAwNSA1IGwgNS4wNDkgNS4wNSB2IDAuMDYzIGwgOC42IDguNiBsIDYuMDUxIC02LjA1MSBaIG0gLTQuOTIzIC02OC4wMTYgYSA2LjE0NyA2LjE0NyAwIDEgMSA2LjE0NyA2LjE0NyBhIDYuMTQ4IDYuMTQ4IDAgMCAxIC02LjE0NyAtNi4xNDcgWiIvPiYjeGE7PHBhdGggY2xhc3M9Im1zcG9ydGFsZngtc3ZnLWMwMSIgb3BhY2l0eT0iMC41IiBmaWxsPSIjZmZmZmZmIiBkPSJNIDEyLjM2NCAyNS45MiBoIDM1LjQ4MiB2IDUuMSBIIDEyLjM2NCBaIG0gMCA4LjI5NyBoIDM1LjQ4MiB2IDUuMSBIIDEyLjM2NCBaIi8+JiN4YTs8cGF0aCBjbGFzcz0ibXNwb3J0YWxmeC1zdmctYzE1IiBmaWxsPSIjNTliNGQ5IiBkPSJNIDU0LjMgMTAwIGEgMy45NzggMy45NzggMCAwIDEgLTIuODM1IC0xLjE3NSBMIDMzLjczNSA4MS4xIGEgNC4wMDggNC4wMDggMCAwIDEgMCAtNS42NyBMIDUxLjQ2MSA1Ny43IGEgNC4wMDUgNC4wMDUgMCAwIDEgNS42NyAwIGwgMTcuNzI0IDE3LjcyOSBhIDQuMDA2IDQuMDA2IDAgMCAxIDAgNS42NzIgTCA1Ny4xMzEgOTguODI1IEEgMy45NzggMy45NzggMCAwIDEgNTQuMyAxMDAiLz4mI3hhOzxwYXRoIGNsYXNzPSJtc3BvcnRhbGZ4LXN2Zy1jMDEiIGZpbGw9IiNmZmZmZmYiIGQ9Ik0gNjYuMTMyIDc0Ljg2NyBhIDMuMzkzIDMuMzkzIDAgMCAwIC0yLjgzOSA1LjI2MiBsIC02LjczMyA2LjczMiBhIDMuOTkxIDMuOTkxIDAgMCAwIC0wLjU3IC0wLjMyNCBWIDY5LjM2IGEgMy40IDMuNCAwIDEgMCAtMy4zODggMCB2IDE3LjE3NiBhIDMuOTI5IDMuOTI5IDAgMCAwIC0wLjU1IDAuMzA3IGwgLTYuNzQgLTYuNzQgYSAzLjQ5MyAzLjQ5MyAwIDEgMCAtMS43NDQgMS4zNjEgbCA3LjA4NSA3LjA4NiBhIDMuOTU3IDMuOTU3IDAgMSAwIDcuMjkyIDAuMDI4IGwgNy4xMDYgLTcuMTA1IGEgMy4zNTYgMy4zNTYgMCAwIDAgMS4wNzkgMC4xOTEgYSAzLjQgMy40IDAgMCAwIDAgLTYuOCBaIi8+JiN4YTs8cGF0aCBjbGFzcz0ibXNwb3J0YWxmeC1zdmctYzAxIiBvcGFjaXR5PSIwLjUiIGZpbGw9IiNmZmZmZmYiIGQ9Ik0gNTMuNDg0IDY3LjA5MiBsIDEuNTUgLTEuNTUyIGwgMTIuNzE0IDEyLjcxIGwgLTEuNTUyIDEuNTUxIFoiLz4mI3hhOzxwYXRoIGNsYXNzPSJtc3BvcnRhbGZ4LXN2Zy1jMDEiIG9wYWNpdHk9IjAuNSIgZmlsbD0iI2ZmZmZmZiIgZD0iTSA0MC44NTkgNzguMjYyIEwgNTMuNTcgNjUuNTUgbCAxLjU1MiAxLjU1MSBMIDQyLjQxIDc5LjgxMyBaIi8+JiN4YTs8cGF0aCBjbGFzcz0ibXNwb3J0YWxmeC1zdmctYzEzIiBmaWxsPSIjYjhkNDMyIiBkPSJNIDU2LjYxMiA5MC4xIGEgMi4zNTYgMi4zNTYgMCAxIDEgLTIuMzU2IC0yLjM1NSBhIDIuMzU1IDIuMzU1IDAgMCAxIDIuMzU2IDIuMzU1IG0gLTAuNDI3IC0yMy42NyBhIDEuODkgMS44OSAwIDEgMSAtMS44OSAtMS44OSBhIDEuODg5IDEuODg5IDAgMCAxIDEuODkgMS44OSBNIDQ0LjM1MiA3OC4yNjUgYSAxLjg5IDEuODkgMCAxIDEgLTEuODkgLTEuODkgYSAxLjg5MSAxLjg5MSAwIDAgMSAxLjg5IDEuODkgbSAyMy42NyAwIGEgMS44OTEgMS44OTEgMCAxIDEgLTEuODkxIC0xLjg5IGEgMS44OTEgMS44OTEgMCAwIDEgMS44OTEgMS44OSIvPiYjeGE7PHBhdGggY2xhc3M9Im1zcG9ydGFsZngtc3ZnLWMwMSIgb3BhY2l0eT0iMC4xIiBmaWxsPSIjZmZmZmZmIiBkPSJNIDU3LjEzMSA1Ny43IGEgNCA0IDAgMCAwIC01LjY2OSAwIEwgMzMuNzM1IDc1LjQyOSBhIDQuMDA4IDQuMDA4IDAgMCAwIDAgNS42NyBsIDEwLjAzNiAxMC4wMzYgTCA2Mi42NSA2My4yMjIgWiIvPiYjeGE7PHBhdGggY2xhc3M9Im1zcG9ydGFsZngtc3ZnLWMxMCIgb3BhY2l0eT0iMC40IiBmaWxsPSIjZmY4YzAwIiBkPSJNIDM0Ljc4OCA2OC4xMzcgdiAtMTIuOTIgbCAtMy44NjQgMS45MDMgdiAxNC44ODEgbCAzLjg2NCAtMy44NjQgWiIvPiYjeGE7PC9nPiYjeGE7PC9zdmc+;align=left;labelPosition=right;" parent="1" vertex="1">
                    <mxGeometry x="252" y="765" width="30.4" height="40" as="geometry"/>
                </mxCell>
                <mxCell id="iDpiDt9ipPDFqWmfX3zr-59" value="&lt;span style=&quot;color: rgb(34 , 34 , 34) ; font-family: &amp;#34;arial&amp;#34; , &amp;#34;helvetica&amp;#34; , sans-serif ; font-size: small ; text-align: left&quot;&gt;Managed Identity Operator&lt;/span&gt;" style="edgeStyle=orthogonalEdgeStyle;rounded=0;orthogonalLoop=1;jettySize=auto;html=1;exitX=0.5;exitY=1;exitDx=0;exitDy=0;fillColor=#d5e8d4;strokeColor=#82b366;" parent="1" source="izLOdk6nZkrDbWo1u9eR-51" target="jljs6CkxNdAdKAyOecQK-7" edge="1">
                    <mxGeometry relative="1" as="geometry"/>
                </mxCell>
                <mxCell id="iDpiDt9ipPDFqWmfX3zr-60" value="Underlying Cluster &lt;br&gt;Resources" style="rounded=0;orthogonalLoop=1;jettySize=auto;html=1;entryX=0.002;entryY=0.697;entryDx=0;entryDy=0;entryPerimeter=0;" parent="1" source="TYJE-9J5CXYhG14wN5V3-32" target="GEIzQCT62DjLHcosNujS-7" edge="1">
                    <mxGeometry relative="1" as="geometry"/>
                </mxCell>
                <mxCell id="iDpiDt9ipPDFqWmfX3zr-67" value="https:443" style="edgeStyle=orthogonalEdgeStyle;rounded=0;orthogonalLoop=1;jettySize=auto;html=1;strokeColor=#FF0000;" parent="1" source="TYJE-9J5CXYhG14wN5V3-12" target="izLOdk6nZkrDbWo1u9eR-82" edge="1">
                    <mxGeometry relative="1" as="geometry">
                        <Array as="points">
                            <mxPoint x="648" y="184"/>
                        </Array>
                    </mxGeometry>
                </mxCell>
                <mxCell id="iDpiDt9ipPDFqWmfX3zr-69" value="Public IP Address&#10;Outbound IP" style="shape=image;verticalLabelPosition=middle;labelBackgroundColor=#ffffff;verticalAlign=middle;aspect=fixed;imageAspect=0;image=data:image/svg+xml,PHN2ZyB4bWxucz0iaHR0cDovL3d3dy53My5vcmcvMjAwMC9zdmciIHhtbG5zOnhsaW5rPSJodHRwOi8vd3d3LnczLm9yZy8xOTk5L3hsaW5rIiB2ZXJzaW9uPSIxLjEiIGlkPSJMYXllcl8xIiB4PSIwcHgiIHk9IjBweCIgd2lkdGg9IjUwcHgiIGhlaWdodD0iNTBweCIgdmlld0JveD0iMC41IDAuNSA1MCA1MCIgZW5hYmxlLWJhY2tncm91bmQ9Im5ldyAwLjUgMC41IDUwIDUwIiB4bWw6c3BhY2U9InByZXNlcnZlIj4mI3hhOzxwYXRoIGZpbGw9IiM1OUI0RDkiIGQ9Ik0wLjUsNDUuMTI3YzAsMS4xMDgsMC44OTgsMi4wMDcsMi4wMDcsMi4wMDdoNDUuOTg2YzEuMTA5LDAsMi4wMDctMC44OTksMi4wMDctMi4wMDdWMTMuNzk4aC01MFY0NS4xMjd6Ii8+JiN4YTs8cGF0aCBmaWxsPSIjQTBBMUEyIiBkPSJNNDguNDkzLDQuNUgyLjUwN0MxLjM5OCw0LjUsMC41LDUuMzk4LDAuNSw2LjUwN3YxMC42MjdoNTBWNi41MDdDNTAuNSw1LjM5OCw0OS42MDEsNC41LDQ4LjQ5Myw0LjUiLz4mI3hhOzxwYXRoIG9wYWNpdHk9IjAuMiIgZmlsbD0iI0ZGRkZGRiIgZD0iTTIuNTE0LDQuNWMtMS4xMDgsMC0yLjAwNywwLjg5OC0yLjAwNywyLjAwN3Y3LjI5MXYzLjMzNnYyNy45OTMgIGMwLDEuMTA4LDAuODk5LDIuMDA3LDIuMDA3LDIuMDA3aDIuMTg4TDQ0LjEyLDQuNUgyLjUxNHoiLz4mI3hhOzxyZWN0IHg9IjEzLjM1NyIgeT0iOS4yNzkiIGZpbGw9IiNGRkZGRkYiIHdpZHRoPSIzMy42NzEiIGhlaWdodD0iMy45NDIiLz4mI3hhOzxwYXRoIGZpbGw9IiM1OUI0RDkiIGQ9Ik0xMS44MSwxMS4xODNjMCwyLjY5My0yLjE4NCw0Ljg3OC00Ljg3OCw0Ljg3OGMtMi42OTQsMC00Ljg3OC0yLjE4NS00Ljg3OC00Ljg3OCAgYzAtMi42OTQsMi4xODQtNC44NzksNC44NzgtNC44NzlDOS42MjUsNi4zMDQsMTEuODEsOC40ODksMTEuODEsMTEuMTgzIi8+JiN4YTs8cG9seWdvbiBmaWxsPSIjRkZGRkZGIiBwb2ludHM9IjYuNDE2LDExLjczMiA4LjYyOSwxNC4wNjggNy40MjgsMTQuMDY4IDQuNDY5LDExLjI1IDcuNDE3LDguNDMyIDguNjE1LDguNDMyIDYuNDE2LDEwLjc1NCAgIDExLjgwOSwxMC43NTQgMTEuODA5LDExLjczMiAiLz4mI3hhOzxwYXRoIGZpbGw9IiNGRkZGRkYiIGQ9Ik0xNy45MjYsMzYuNTc2YzAsMC41Ny0wLjIwMywxLjAzNy0wLjYwOSwxLjRzLTAuOTQxLDAuNTQ1LTEuNjA1LDAuNTQ1Yy0wLjU5NCwwLTEuMDk4LTAuMTg2LTEuNTEyLTAuNTU3ICBzLTAuNjIxLTAuODM0LTAuNjIxLTEuMzg5YzAtMC41NjMsMC4yMDctMS4wMjMsMC42MjEtMS4zODNzMC45MzgtMC41MzksMS41Ny0wLjUzOWMwLjYwOSwwLDEuMTIxLDAuMTg0LDEuNTM1LDAuNTUxICBTMTcuOTI2LDM2LjAyOSwxNy45MjYsMzYuNTc2eiIvPiYjeGE7PHBhdGggZmlsbD0iI0ZGRkZGRiIgZD0iTTI2LjgzLDM2LjU3NmMwLDAuNTctMC4yMDMsMS4wMzctMC42MDksMS40cy0wLjk0MSwwLjU0NS0xLjYwNSwwLjU0NWMtMC41OTQsMC0xLjA5OC0wLjE4Ni0xLjUxMi0wLjU1NyAgcy0wLjYyMS0wLjgzNC0wLjYyMS0xLjM4OWMwLTAuNTYzLDAuMjA3LTEuMDIzLDAuNjIxLTEuMzgzczAuOTM4LTAuNTM5LDEuNTctMC41MzljMC42MDksMCwxLjEyMSwwLjE4NCwxLjUzNSwwLjU1MSAgUzI2LjgzLDM2LjAyOSwyNi44MywzNi41NzZ6Ii8+JiN4YTs8cGF0aCBmaWxsPSIjRkZGRkZGIiBkPSJNMzUuNzMzLDM2LjU3NmMwLDAuNTctMC4yMDMsMS4wMzctMC42MDksMS40cy0wLjk0MSwwLjU0NS0xLjYwNSwwLjU0NWMtMC41OTQsMC0xLjA5OC0wLjE4Ni0xLjUxMi0wLjU1NyAgcy0wLjYyMS0wLjgzNC0wLjYyMS0xLjM4OWMwLTAuNTYzLDAuMjA3LTEuMDIzLDAuNjIxLTEuMzgzczAuOTM4LTAuNTM5LDEuNTctMC41MzljMC42MDksMCwxLjEyMSwwLjE4NCwxLjUzNSwwLjU1MSAgUzM1LjczMywzNi4wMjksMzUuNzMzLDM2LjU3NnoiLz4mI3hhOzwvc3ZnPg==;align=left;labelPosition=right;" parent="1" vertex="1">
                    <mxGeometry x="953" y="174" width="40" height="40" as="geometry"/>
                </mxCell>
                <mxCell id="iDpiDt9ipPDFqWmfX3zr-70" value="uses" style="edgeStyle=orthogonalEdgeStyle;rounded=0;orthogonalLoop=1;jettySize=auto;html=1;entryX=0.5;entryY=1;entryDx=0;entryDy=0;" parent="1" source="izLOdk6nZkrDbWo1u9eR-82" target="izLOdk6nZkrDbWo1u9eR-84" edge="1">
                    <mxGeometry relative="1" as="geometry"/>
                </mxCell>
                <mxCell id="iDpiDt9ipPDFqWmfX3zr-71" value="Uses" style="edgeStyle=orthogonalEdgeStyle;rounded=0;orthogonalLoop=1;jettySize=auto;html=1;entryX=0;entryY=0.25;entryDx=0;entryDy=0;strokeColor=#000000;exitX=1;exitY=0.5;exitDx=0;exitDy=0;exitPerimeter=0;" parent="1" source="izLOdk6nZkrDbWo1u9eR-82" target="iDpiDt9ipPDFqWmfX3zr-69" edge="1">
                    <mxGeometry x="0.145" relative="1" as="geometry">
                        <mxPoint as="offset"/>
                    </mxGeometry>
                </mxCell>
                <mxCell id="ghICZLUMKjnyWGM0jPNd-2" value="&lt;b&gt;Poc Platform&lt;/b&gt;&lt;br&gt;Updated 20210510" style="text;html=1;align=left;verticalAlign=middle;resizable=0;points=[];autosize=1;" parent="1" vertex="1">
                    <mxGeometry x="1041" y="13" width="112" height="32" as="geometry"/>
                </mxCell>
                <mxCell id="izLOdk6nZkrDbWo1u9eR-34" value="spoke-rg" parent="0"/>
                <mxCell id="izLOdk6nZkrDbWo1u9eR-51" value="Managed Identity" style="shape=image;verticalLabelPosition=middle;labelBackgroundColor=#ffffff;verticalAlign=middle;aspect=fixed;imageAspect=0;image=data:image/svg+xml,PHN2ZyB4bWxucz0iaHR0cDovL3d3dy53My5vcmcvMjAwMC9zdmciIHhtbG5zOnhsaW5rPSJodHRwOi8vd3d3LnczLm9yZy8xOTk5L3hsaW5rIiB4bWxuczpzdmc9Imh0dHA6Ly93d3cudzMub3JnLzIwMDAvc3ZnIiBjbGFzcz0iZnhzLXBvcnRhbC1zdmciIGlkPSJGeFN5bWJvbDAtMGMwIiByb2xlPSJwcmVzZW50YXRpb24iIHZpZXdCb3g9IjAgMCA3Ni4wMzEgMTAwIiBmb2N1c2FibGU9ImZhbHNlIj4mI3hhOzxnPiYjeGE7PHRpdGxlLz4mI3hhOzx0aXRsZT5NU0lfMjwvdGl0bGU+JiN4YTs8cGF0aCBjbGFzcz0ibXNwb3J0YWxmeC1zdmctYzExIiBmaWxsPSIjZmNkMTE2IiBkPSJNIDI4LjI4NCA4MS44NSBhIDUuMDcgNS4wNyAwIDAgMSAwIC03LjE3MiBsIDExLjEyOCAtMTEuMTI3IFYgNTMuNiBsIDE2LjQzMyAtMTYuNDM0IGEgMTAuODMgMTAuODMgMCAwIDAgMCAtMTUuMzE0IEwgMzcuMTY2IDMuMTcyIGEgMTAuODMxIDEwLjgzMSAwIDAgMCAtMTUuMzE2IDAgTCAzLjE3MiAyMS44NTIgYSAxMC44MjggMTAuODI4IDAgMCAwIDAgMTUuMzE0IEwgMjAuOTA4IDU0LjkgdiAxLjUgbCAtNS4wNDkgNS4wNSBsIDUuMDA1IDUuMDA1IGwgLTUuMDA1IDUgbCA1LjAwNSA1LjAwNSBsIC01LjAwNSA1IGwgNS4wNDkgNS4wNSB2IDAuMDYzIGwgOC42IDguNiBsIDYuMDUxIC02LjA1MSBaIG0gLTQuOTIzIC02OC4wMTYgYSA2LjE0NyA2LjE0NyAwIDEgMSA2LjE0NyA2LjE0NyBhIDYuMTQ4IDYuMTQ4IDAgMCAxIC02LjE0NyAtNi4xNDcgWiIvPiYjeGE7PHBhdGggY2xhc3M9Im1zcG9ydGFsZngtc3ZnLWMwMSIgb3BhY2l0eT0iMC41IiBmaWxsPSIjZmZmZmZmIiBkPSJNIDEyLjM2NCAyNS45MiBoIDM1LjQ4MiB2IDUuMSBIIDEyLjM2NCBaIG0gMCA4LjI5NyBoIDM1LjQ4MiB2IDUuMSBIIDEyLjM2NCBaIi8+JiN4YTs8cGF0aCBjbGFzcz0ibXNwb3J0YWxmeC1zdmctYzE1IiBmaWxsPSIjNTliNGQ5IiBkPSJNIDU0LjMgMTAwIGEgMy45NzggMy45NzggMCAwIDEgLTIuODM1IC0xLjE3NSBMIDMzLjczNSA4MS4xIGEgNC4wMDggNC4wMDggMCAwIDEgMCAtNS42NyBMIDUxLjQ2MSA1Ny43IGEgNC4wMDUgNC4wMDUgMCAwIDEgNS42NyAwIGwgMTcuNzI0IDE3LjcyOSBhIDQuMDA2IDQuMDA2IDAgMCAxIDAgNS42NzIgTCA1Ny4xMzEgOTguODI1IEEgMy45NzggMy45NzggMCAwIDEgNTQuMyAxMDAiLz4mI3hhOzxwYXRoIGNsYXNzPSJtc3BvcnRhbGZ4LXN2Zy1jMDEiIGZpbGw9IiNmZmZmZmYiIGQ9Ik0gNjYuMTMyIDc0Ljg2NyBhIDMuMzkzIDMuMzkzIDAgMCAwIC0yLjgzOSA1LjI2MiBsIC02LjczMyA2LjczMiBhIDMuOTkxIDMuOTkxIDAgMCAwIC0wLjU3IC0wLjMyNCBWIDY5LjM2IGEgMy40IDMuNCAwIDEgMCAtMy4zODggMCB2IDE3LjE3NiBhIDMuOTI5IDMuOTI5IDAgMCAwIC0wLjU1IDAuMzA3IGwgLTYuNzQgLTYuNzQgYSAzLjQ5MyAzLjQ5MyAwIDEgMCAtMS43NDQgMS4zNjEgbCA3LjA4NSA3LjA4NiBhIDMuOTU3IDMuOTU3IDAgMSAwIDcuMjkyIDAuMDI4IGwgNy4xMDYgLTcuMTA1IGEgMy4zNTYgMy4zNTYgMCAwIDAgMS4wNzkgMC4xOTEgYSAzLjQgMy40IDAgMCAwIDAgLTYuOCBaIi8+JiN4YTs8cGF0aCBjbGFzcz0ibXNwb3J0YWxmeC1zdmctYzAxIiBvcGFjaXR5PSIwLjUiIGZpbGw9IiNmZmZmZmYiIGQ9Ik0gNTMuNDg0IDY3LjA5MiBsIDEuNTUgLTEuNTUyIGwgMTIuNzE0IDEyLjcxIGwgLTEuNTUyIDEuNTUxIFoiLz4mI3hhOzxwYXRoIGNsYXNzPSJtc3BvcnRhbGZ4LXN2Zy1jMDEiIG9wYWNpdHk9IjAuNSIgZmlsbD0iI2ZmZmZmZiIgZD0iTSA0MC44NTkgNzguMjYyIEwgNTMuNTcgNjUuNTUgbCAxLjU1MiAxLjU1MSBMIDQyLjQxIDc5LjgxMyBaIi8+JiN4YTs8cGF0aCBjbGFzcz0ibXNwb3J0YWxmeC1zdmctYzEzIiBmaWxsPSIjYjhkNDMyIiBkPSJNIDU2LjYxMiA5MC4xIGEgMi4zNTYgMi4zNTYgMCAxIDEgLTIuMzU2IC0yLjM1NSBhIDIuMzU1IDIuMzU1IDAgMCAxIDIuMzU2IDIuMzU1IG0gLTAuNDI3IC0yMy42NyBhIDEuODkgMS44OSAwIDEgMSAtMS44OSAtMS44OSBhIDEuODg5IDEuODg5IDAgMCAxIDEuODkgMS44OSBNIDQ0LjM1MiA3OC4yNjUgYSAxLjg5IDEuODkgMCAxIDEgLTEuODkgLTEuODkgYSAxLjg5MSAxLjg5MSAwIDAgMSAxLjg5IDEuODkgbSAyMy42NyAwIGEgMS44OTEgMS44OTEgMCAxIDEgLTEuODkxIC0xLjg5IGEgMS44OTEgMS44OTEgMCAwIDEgMS44OTEgMS44OSIvPiYjeGE7PHBhdGggY2xhc3M9Im1zcG9ydGFsZngtc3ZnLWMwMSIgb3BhY2l0eT0iMC4xIiBmaWxsPSIjZmZmZmZmIiBkPSJNIDU3LjEzMSA1Ny43IGEgNCA0IDAgMCAwIC01LjY2OSAwIEwgMzMuNzM1IDc1LjQyOSBhIDQuMDA4IDQuMDA4IDAgMCAwIDAgNS42NyBsIDEwLjAzNiAxMC4wMzYgTCA2Mi42NSA2My4yMjIgWiIvPiYjeGE7PHBhdGggY2xhc3M9Im1zcG9ydGFsZngtc3ZnLWMxMCIgb3BhY2l0eT0iMC40IiBmaWxsPSIjZmY4YzAwIiBkPSJNIDM0Ljc4OCA2OC4xMzcgdiAtMTIuOTIgbCAtMy44NjQgMS45MDMgdiAxNC44ODEgbCAzLjg2NCAtMy44NjQgWiIvPiYjeGE7PC9nPiYjeGE7PC9zdmc+;align=left;labelPosition=right;" parent="izLOdk6nZkrDbWo1u9eR-34" vertex="1">
                    <mxGeometry x="758" y="254" width="30.4" height="40" as="geometry"/>
                </mxCell>
                <mxCell id="izLOdk6nZkrDbWo1u9eR-58" value="&lt;div style=&quot;background-color: rgb(248 , 249 , 250)&quot;&gt;MC_&amp;lt;tbd&amp;gt;&lt;/div&gt;" style="aspect=fixed;html=1;points=[];align=left;image;fontSize=12;image=img/lib/mscae/ResourceGroup.svg;dashed=1;strokeWidth=2;fillColor=none;labelPosition=right;verticalLabelPosition=middle;verticalAlign=middle;" parent="izLOdk6nZkrDbWo1u9eR-34" vertex="1">
                    <mxGeometry x="722" y="84" width="40" height="32" as="geometry"/>
                </mxCell>
                <mxCell id="izLOdk6nZkrDbWo1u9eR-7" value="templates" style="" parent="0" visible="0"/>
                <mxCell id="izLOdk6nZkrDbWo1u9eR-37" value="" style="aspect=fixed;html=1;points=[];align=center;image;fontSize=12;image=img/lib/mscae/Service_Endpoint_Policies.svg;fillColor=none;" parent="izLOdk6nZkrDbWo1u9eR-7" vertex="1">
                    <mxGeometry x="-830" y="210" width="49" height="50" as="geometry"/>
                </mxCell>
                <mxCell id="izLOdk6nZkrDbWo1u9eR-48" value="" style="shape=image;verticalLabelPosition=bottom;labelBackgroundColor=#ffffff;verticalAlign=top;aspect=fixed;imageAspect=0;image=data:image/svg+xml,PHN2ZyB4bWxucz0iaHR0cDovL3d3dy53My5vcmcvMjAwMC9zdmciIHZpZXdCb3g9IjAgMCA1MCA1MCIgY2xhc3M9ImZ4dC1lc2NhcGVTaGFkb3ciIHJvbGU9InByZXNlbnRhdGlvbiIgZm9jdXNhYmxlPSJmYWxzZSIgYXJpYS1oaWRkZW49InRydWUiPiYjeGE7ICA8Zz4mI3hhOyAgICA8cGF0aCBkPSJNNDcuOTQxIDE0LjY2OGMuNDY1LS40NjUuMzcyLTEuMjA5IDAtMS42NzVsLTIuMjMzLTIuMjMzTDM1LjY2Ljk5MmMtLjQ2NS0uNDY1LTEuMTE2LS40NjUtMS41ODIgMC0uNDY1LjQ2NS0uNTU4IDEuMjA5IDAgMS42NzVsMTAuNTEzIDEwLjMyN2ExLjE4IDEuMTggMCAwIDEgMCAxLjY3NUwzMy44OTMgMjUuMzY3YTEuMTggMS4xOCAwIDAgMCAwIDEuNjc1Yy40NjUuNDY1IDEuMjA5LjM3MiAxLjU4MiAwbDkuOTU1LTkuODYyLjA5My0uMDkzIDIuNDE4LTIuNDE5em0tNDUuOTYgMGMtLjQ2NS0uNDY1LS4zNzItMS4yMDkgMC0xLjY3NWwyLjIzMy0yLjIzM0wxNC4yNjIuOTkxYy40NjUtLjQ2NSAxLjExNi0uNDY1IDEuNTgyIDAgLjQ2NS40NjUuNTU4IDEuMjA5IDAgMS42NzVMNS41MTcgMTIuOTk0YTEuMTggMS4xOCAwIDAgMCAwIDEuNjc1TDE2LjAzIDI1LjM2N2ExLjE4IDEuMTggMCAwIDEgMCAxLjY3NWMtLjQ2NS40NjUtMS4yMDkuMzcyLTEuNTgyIDBMNC4zMDcgMTcuMjczbC0uMDkzLS4wOTMtMi4yMzMtMi41MTJ6IiBjbGFzcz0ibXNwb3J0YWxmeC1zdmctYzE2IiBzdHlsZT0iZmlsbDogcmdiKDU3LCAxNTMsIDE5OCk7Ii8+JiN4YTsgICAgPHBhdGggZD0iTTE4LjUgMTRjMCAyLjAxNS0xLjY0NyAzLjUtMy4zOTcgMy41LTEuNzUgMC0zLjYwMy0xLjY5Ny0zLjYwMy0zLjVzMS40NDEtMy41IDMuNjAzLTMuNWMyLjA1OSAwIDMuMzk3IDEuNjk3IDMuMzk3IDMuNXoiIGNsYXNzPSJtc3BvcnRhbGZ4LXN2Zy1jMTQiIHN0eWxlPSJmaWxsOiByZ2IoODcsIDE2MywgMCk7Ii8+JiN4YTsgICAgPGNpcmNsZSBjeD0iMzUiIGN5PSIxNCIgcj0iMy41IiBjbGFzcz0ibXNwb3J0YWxmeC1zdmctYzE0IiBzdHlsZT0iZmlsbDogcmdiKDg3LCAxNjMsIDApOyIvPiYjeGE7ICAgIDxwYXRoIGQ9Ik00MSAzNmMtLjM1NCAwLS42OTguMDM1LTEuMDM4LjA4NXYtLjAwOGMwLTcuNjAxLTYuMTExLTEzLjc2My0xMy42NDctMTMuNzYzLTYuMDIyIDAtMTEuMTI3IDMuOTMyLTEyLjk0IDkuMzlhOS4xNTcgOS4xNTcgMCAwIDAtMy4wNDctLjUyNkM1LjE3MyAzMS4xNzggMSAzNS4zOTEgMSA0MC41ODdjMCA1LjE5OSA0LjE3MiA5LjQxMiA5LjMyOCA5LjQxMmwuMDEzLS4wMDNWNTBoMzAuMTc2di0uMDAybC4wMzIuMDAyYy4wNzYgMCAuMTUtLjAwOS4yMjUtLjAxMS4wNzYuMDAyLjE1LjAxMS4yMjYuMDExYTcgNyAwIDEgMCAwLTE0eiIgY2xhc3M9Im1zcG9ydGFsZngtc3ZnLWMxNSIgc3R5bGU9ImZpbGw6IHJnYig4OSwgMTgwLCAyMTcpOyIvPiYjeGE7ICAgIDxwYXRoIGQ9Ik0yMyAxNmg0djIzaC00eiIgY2xhc3M9Im1zcG9ydGFsZngtc3ZnLWMwMSIgc3R5bGU9ImZpbGw6IHJnYigyNTUsIDI1NSwgMjU1KTsiLz4mI3hhOyAgICA8cGF0aCBvcGFjaXR5PSIuMiIgZD0iTTIyLjA4NSAzMy4wMjFhMTMuNTAzIDEzLjUwMyAwIDAgMSA3LjAxNC0xMC40MDhjLS45LS4xOS0xLjgyOC0uMy0yLjc4NC0uMy02LjAyMSAwLTExLjEyNyAzLjkzMi0xMi45NCA5LjM5YTkuMTUyIDkuMTUyIDAgMCAwLTMuMDQ3LS41MjZDNS4xNzIgMzEuMTc4IDEgMzUuMzkxIDEgNDAuNTg3YzAgNS4xOTkgNC4xNzIgOS40MTIgOS4zMjcgOS40MTJsLjAxMy0uMDAzVjUwaDMuOTIzQTEwLjQ0OSAxMC40NDkgMCAwIDEgMTIgNDMuNWMwLTUuNjU5IDQuNDgtMTAuMjU5IDEwLjA4NS0xMC40Nzl6IiBjbGFzcz0ibXNwb3J0YWxmeC1zdmctYzAxIiBzdHlsZT0iZmlsbDogcmdiKDI1NSwgMjU1LCAyNTUpOyIvPiYjeGE7ICAgIDxwYXRoIGQ9Ik0yOC41IDE0YzAgMi4wMTUtMS42NDcgMy41LTMuMzk3IDMuNVMyMS41IDE1LjgwMyAyMS41IDE0czEuNjQ3LTMuNSAzLjYwMy0zLjVTMjguNSAxMi4xOTcgMjguNSAxNHoiIGNsYXNzPSJtc3BvcnRhbGZ4LXN2Zy1jMTQiIHN0eWxlPSJmaWxsOiByZ2IoODcsIDE2MywgMCk7Ii8+JiN4YTsgICAgPHBhdGggZD0iTTI3IDM0LjQxOXYtMTIuMDdjLS4yMjgtLjAxMS0uNDUzLS4wMzUtLjY4NC0uMDM1LTEuMTQ0IDAtMi4yNTQuMTQzLTMuMzE2LjQxMXYxMS43NzZjLTEuMjMxLjczMi0yLjEgMi4wNDktMi4xIDMuNDk5IDAgMi4xMDcgMi4wMzQgNC4xMDEgNC4xODYgNC4xMDEgMi4yMTQgMCA0LjAxNS0xLjg0IDQuMDE1LTQuMTAxQTQuMTAzIDQuMTAzIDAgMCAwIDI3IDM0LjQxOXoiIGNsYXNzPSJtc3BvcnRhbGZ4LXN2Zy1jMDEiIHN0eWxlPSJmaWxsOiByZ2IoMjU1LCAyNTUsIDI1NSk7Ii8+JiN4YTsgICAgPHBhdGggZD0iTTI3LjkgMzhjMCAxLjY3LTEuMzY1IDIuOS0yLjgxNSAyLjlTMjIuMSAzOS40OTQgMjIuMSAzOHMxLjM2NS0yLjkgMi45ODUtMi45UzI3LjkgMzYuNTA2IDI3LjkgMzh6IiBjbGFzcz0ibXNwb3J0YWxmeC1zdmctYzE0IiBzdHlsZT0iZmlsbDogcmdiKDg3LCAxNjMsIDApOyIvPiYjeGE7ICAgIDxwYXRoIGQ9Ik0yNiAxN3YyMWgtMlYxN3oiIGNsYXNzPSJtc3BvcnRhbGZ4LXN2Zy1jMTQiIHN0eWxlPSJmaWxsOiByZ2IoODcsIDE2MywgMCk7Ii8+JiN4YTsgIDwvZz4mI3hhOzwvc3ZnPg==;" parent="izLOdk6nZkrDbWo1u9eR-7" vertex="1">
                    <mxGeometry x="-660" y="460" width="40" height="40" as="geometry"/>
                </mxCell>
                <mxCell id="izLOdk6nZkrDbWo1u9eR-49" value="Service Endpoint" style="shape=image;verticalLabelPosition=middle;labelBackgroundColor=#ffffff;verticalAlign=middle;aspect=fixed;imageAspect=0;image=data:image/svg+xml,PHN2ZyB4bWxucz0iaHR0cDovL3d3dy53My5vcmcvMjAwMC9zdmciIHZpZXdCb3g9IjAgMCA1MCA1MCIgY2xhc3M9ImZ4dC1lc2NhcGVTaGFkb3ciIHJvbGU9InByZXNlbnRhdGlvbiIgZm9jdXNhYmxlPSJmYWxzZSIgYXJpYS1oaWRkZW49InRydWUiPiYjeGE7ICA8Zz4mI3hhOyAgICA8cGF0aCBkPSJNNDcuOTQxIDE0LjY2OGMuNDY1LS40NjUuMzcyLTEuMjA5IDAtMS42NzVsLTIuMjMzLTIuMjMzTDM1LjY2Ljk5MmMtLjQ2NS0uNDY1LTEuMTE2LS40NjUtMS41ODIgMC0uNDY1LjQ2NS0uNTU4IDEuMjA5IDAgMS42NzVsMTAuNTEzIDEwLjMyN2ExLjE4IDEuMTggMCAwIDEgMCAxLjY3NUwzMy44OTMgMjUuMzY3YTEuMTggMS4xOCAwIDAgMCAwIDEuNjc1Yy40NjUuNDY1IDEuMjA5LjM3MiAxLjU4MiAwbDkuOTU1LTkuODYyLjA5My0uMDkzIDIuNDE4LTIuNDE5em0tNDUuOTYgMGMtLjQ2NS0uNDY1LS4zNzItMS4yMDkgMC0xLjY3NWwyLjIzMy0yLjIzM0wxNC4yNjIuOTkxYy40NjUtLjQ2NSAxLjExNi0uNDY1IDEuNTgyIDAgLjQ2NS40NjUuNTU4IDEuMjA5IDAgMS42NzVMNS41MTcgMTIuOTk0YTEuMTggMS4xOCAwIDAgMCAwIDEuNjc1TDE2LjAzIDI1LjM2N2ExLjE4IDEuMTggMCAwIDEgMCAxLjY3NWMtLjQ2NS40NjUtMS4yMDkuMzcyLTEuNTgyIDBMNC4zMDcgMTcuMjczbC0uMDkzLS4wOTMtMi4yMzMtMi41MTJ6IiBjbGFzcz0ibXNwb3J0YWxmeC1zdmctYzE2IiBzdHlsZT0iZmlsbDogcmdiKDU3LCAxNTMsIDE5OCk7Ii8+JiN4YTsgICAgPHBhdGggZD0iTTE4LjUgMTRjMCAyLjAxNS0xLjY0NyAzLjUtMy4zOTcgMy41LTEuNzUgMC0zLjYwMy0xLjY5Ny0zLjYwMy0zLjVzMS40NDEtMy41IDMuNjAzLTMuNWMyLjA1OSAwIDMuMzk3IDEuNjk3IDMuMzk3IDMuNXoiIGNsYXNzPSJtc3BvcnRhbGZ4LXN2Zy1jMTQiIHN0eWxlPSJmaWxsOiByZ2IoODcsIDE2MywgMCk7Ii8+JiN4YTsgICAgPGNpcmNsZSBjeD0iMzUiIGN5PSIxNCIgcj0iMy41IiBjbGFzcz0ibXNwb3J0YWxmeC1zdmctYzE0IiBzdHlsZT0iZmlsbDogcmdiKDg3LCAxNjMsIDApOyIvPiYjeGE7ICAgIDxwYXRoIGQ9Ik00MSAzNmMtLjM1NCAwLS42OTguMDM1LTEuMDM4LjA4NXYtLjAwOGMwLTcuNjAxLTYuMTExLTEzLjc2My0xMy42NDctMTMuNzYzLTYuMDIyIDAtMTEuMTI3IDMuOTMyLTEyLjk0IDkuMzlhOS4xNTcgOS4xNTcgMCAwIDAtMy4wNDctLjUyNkM1LjE3MyAzMS4xNzggMSAzNS4zOTEgMSA0MC41ODdjMCA1LjE5OSA0LjE3MiA5LjQxMiA5LjMyOCA5LjQxMmwuMDEzLS4wMDNWNTBoMzAuMTc2di0uMDAybC4wMzIuMDAyYy4wNzYgMCAuMTUtLjAwOS4yMjUtLjAxMS4wNzYuMDAyLjE1LjAxMS4yMjYuMDExYTcgNyAwIDEgMCAwLTE0eiIgY2xhc3M9Im1zcG9ydGFsZngtc3ZnLWMxNSIgc3R5bGU9ImZpbGw6IHJnYig4OSwgMTgwLCAyMTcpOyIvPiYjeGE7ICAgIDxwYXRoIGQ9Ik0yMyAxNmg0djIzaC00eiIgY2xhc3M9Im1zcG9ydGFsZngtc3ZnLWMwMSIgc3R5bGU9ImZpbGw6IHJnYigyNTUsIDI1NSwgMjU1KTsiLz4mI3hhOyAgICA8cGF0aCBvcGFjaXR5PSIuMiIgZD0iTTIyLjA4NSAzMy4wMjFhMTMuNTAzIDEzLjUwMyAwIDAgMSA3LjAxNC0xMC40MDhjLS45LS4xOS0xLjgyOC0uMy0yLjc4NC0uMy02LjAyMSAwLTExLjEyNyAzLjkzMi0xMi45NCA5LjM5YTkuMTUyIDkuMTUyIDAgMCAwLTMuMDQ3LS41MjZDNS4xNzIgMzEuMTc4IDEgMzUuMzkxIDEgNDAuNTg3YzAgNS4xOTkgNC4xNzIgOS40MTIgOS4zMjcgOS40MTJsLjAxMy0uMDAzVjUwaDMuOTIzQTEwLjQ0OSAxMC40NDkgMCAwIDEgMTIgNDMuNWMwLTUuNjU5IDQuNDgtMTAuMjU5IDEwLjA4NS0xMC40Nzl6IiBjbGFzcz0ibXNwb3J0YWxmeC1zdmctYzAxIiBzdHlsZT0iZmlsbDogcmdiKDI1NSwgMjU1LCAyNTUpOyIvPiYjeGE7ICAgIDxwYXRoIGQ9Ik0yOC41IDE0YzAgMi4wMTUtMS42NDcgMy41LTMuMzk3IDMuNVMyMS41IDE1LjgwMyAyMS41IDE0czEuNjQ3LTMuNSAzLjYwMy0zLjVTMjguNSAxMi4xOTcgMjguNSAxNHoiIGNsYXNzPSJtc3BvcnRhbGZ4LXN2Zy1jMTQiIHN0eWxlPSJmaWxsOiByZ2IoODcsIDE2MywgMCk7Ii8+JiN4YTsgICAgPHBhdGggZD0iTTI3IDM0LjQxOXYtMTIuMDdjLS4yMjgtLjAxMS0uNDUzLS4wMzUtLjY4NC0uMDM1LTEuMTQ0IDAtMi4yNTQuMTQzLTMuMzE2LjQxMXYxMS43NzZjLTEuMjMxLjczMi0yLjEgMi4wNDktMi4xIDMuNDk5IDAgMi4xMDcgMi4wMzQgNC4xMDEgNC4xODYgNC4xMDEgMi4yMTQgMCA0LjAxNS0xLjg0IDQuMDE1LTQuMTAxQTQuMTAzIDQuMTAzIDAgMCAwIDI3IDM0LjQxOXoiIGNsYXNzPSJtc3BvcnRhbGZ4LXN2Zy1jMDEiIHN0eWxlPSJmaWxsOiByZ2IoMjU1LCAyNTUsIDI1NSk7Ii8+JiN4YTsgICAgPHBhdGggZD0iTTI3LjkgMzhjMCAxLjY3LTEuMzY1IDIuOS0yLjgxNSAyLjlTMjIuMSAzOS40OTQgMjIuMSAzOHMxLjM2NS0yLjkgMi45ODUtMi45UzI3LjkgMzYuNTA2IDI3LjkgMzh6IiBjbGFzcz0ibXNwb3J0YWxmeC1zdmctYzE0IiBzdHlsZT0iZmlsbDogcmdiKDg3LCAxNjMsIDApOyIvPiYjeGE7ICAgIDxwYXRoIGQ9Ik0yNiAxN3YyMWgtMlYxN3oiIGNsYXNzPSJtc3BvcnRhbGZ4LXN2Zy1jMTQiIHN0eWxlPSJmaWxsOiByZ2IoODcsIDE2MywgMCk7Ii8+JiN4YTsgIDwvZz4mI3hhOzwvc3ZnPg==;labelPosition=right;align=left;" parent="izLOdk6nZkrDbWo1u9eR-7" vertex="1">
                    <mxGeometry x="-580" y="460" width="40" height="40" as="geometry"/>
                </mxCell>
                <mxCell id="izLOdk6nZkrDbWo1u9eR-30" value="" style="endArrow=none;html=1;fontSize=8;strokeColor=#8C8C8C;movable=0;resizable=0;rotatable=0;deletable=0;editable=0;connectable=0;" parent="izLOdk6nZkrDbWo1u9eR-7" edge="1">
                    <mxGeometry width="50" height="50" relative="1" as="geometry">
                        <mxPoint x="-660" y="706.6666666666666" as="sourcePoint"/>
                        <mxPoint x="-660" y="40" as="targetPoint"/>
                    </mxGeometry>
                </mxCell>
                <mxCell id="TYJE-9J5CXYhG14wN5V3-10" value="Virtual Network" style="shape=image;verticalLabelPosition=middle;labelBackgroundColor=#ffffff;verticalAlign=middle;aspect=fixed;imageAspect=0;image=data:image/svg+xml,PHN2ZyB4bWxucz0iaHR0cDovL3d3dy53My5vcmcvMjAwMC9zdmciIHhtbG5zOnhsaW5rPSJodHRwOi8vd3d3LnczLm9yZy8xOTk5L3hsaW5rIiB2ZXJzaW9uPSIxLjEiIGlkPSJMYXllcl8xIiB4PSIwcHgiIHk9IjBweCIgaGVpZ2h0PSI1MHB4IiB3aWR0aD0iNTBweCIgdmlld0JveD0iMCAwIDUwIDUwIiBlbmFibGUtYmFja2dyb3VuZD0ibmV3IDAgMCA1MCA1MCIgeG1sOnNwYWNlPSJwcmVzZXJ2ZSI+JiN4YTs8cGF0aCBmaWxsPSIjMzk5OUM2IiBkPSJNNDkuNywyNS43YzAuNS0wLjUsMC40LTEuMywwLTEuOGwtMi40LTIuNEwzNi41LDExYy0wLjUtMC41LTEuMi0wLjUtMS43LDBsMCwwYy0wLjUsMC41LTAuNiwxLjMsMCwxLjggIGwxMS4zLDExLjFjMC41LDAuNSwwLjUsMS4zLDAsMS44TDM0LjYsMzcuMmMtMC41LDAuNS0wLjUsMS4zLDAsMS44bDAsMGMwLjUsMC41LDEuMywwLjQsMS43LDBsMTAuNy0xMC42YzAsMCwwLDAsMC4xLTAuMUw0OS43LDI1LjcgIHoiLz4mI3hhOzxwYXRoIGZpbGw9IiMzOTk5QzYiIGQ9Ik0wLjMsMjUuN2MtMC41LTAuNS0wLjQtMS4zLDAtMS44bDIuNC0yLjRMMTMuNSwxMWMwLjUtMC41LDEuMi0wLjUsMS43LDBsMCwwYzAuNSwwLjUsMC42LDEuMywwLDEuOCAgTDQuMSwyMy45Yy0wLjUsMC41LTAuNSwxLjMsMCwxLjhsMTEuMywxMS41YzAuNSwwLjUsMC41LDEuMywwLDEuOGwwLDBjLTAuNSwwLjUtMS4zLDAuNC0xLjcsMEwyLjgsMjguNWMwLDAsMCwwLTAuMS0wLjFMMC4zLDI1Ljd6Ii8+JiN4YTs8cGF0aCBmaWxsPSIjN0ZCQTAwIiBkPSJNMTguMiwyNC44YzAsMS45LTEuNiwzLjMtMy4zLDMuM3MtMy41LTEuNi0zLjUtMy4zczEuNC0zLjMsMy41LTMuM0MxNi45LDIxLjUsMTguMiwyMy4xLDE4LjIsMjQuOHoiLz4mI3hhOzxwYXRoIGZpbGw9IiM3RkJBMDAiIGQ9Ik0yOC4zLDI0LjhjMCwxLjktMS42LDMuMy0zLjMsMy4zcy0zLjUtMS42LTMuNS0zLjNzMS42LTMuMywzLjUtMy4zUzI4LjMsMjMuMSwyOC4zLDI0Ljh6Ii8+JiN4YTs8Y2lyY2xlIGZpbGw9IiM3RkJBMDAiIGN4PSIzNS4yIiBjeT0iMjQuOCIgcj0iMy4zIi8+JiN4YTs8L3N2Zz4=;labelPosition=right;align=left;" parent="izLOdk6nZkrDbWo1u9eR-7" vertex="1">
                    <mxGeometry x="-581.27" y="220" width="40" height="40" as="geometry"/>
                </mxCell>
                <mxCell id="TYJE-9J5CXYhG14wN5V3-13" value="Subnet&lt;br&gt;/19" style="ellipse;shape=cloud;whiteSpace=wrap;html=1;dashed=1;strokeWidth=2;fillColor=none;" parent="izLOdk6nZkrDbWo1u9eR-7" vertex="1">
                    <mxGeometry x="-825" y="440" width="120" height="80" as="geometry"/>
                </mxCell>
                <mxCell id="TYJE-9J5CXYhG14wN5V3-17" value="" style="shape=image;verticalLabelPosition=bottom;labelBackgroundColor=#ffffff;verticalAlign=top;aspect=fixed;imageAspect=0;image=data:image/svg+xml,PHN2ZyB4bWxucz0iaHR0cDovL3d3dy53My5vcmcvMjAwMC9zdmciIHhtbG5zOnhsaW5rPSJodHRwOi8vd3d3LnczLm9yZy8xOTk5L3hsaW5rIiB4bWxuczpzdmc9Imh0dHA6Ly93d3cudzMub3JnLzIwMDAvc3ZnIiBjbGFzcz0iZnhzLXBvcnRhbC1zdmciIGlkPSJGeFN5bWJvbDAtMGMwIiByb2xlPSJwcmVzZW50YXRpb24iIHZpZXdCb3g9IjAgMCA3Ni4wMzEgMTAwIiBmb2N1c2FibGU9ImZhbHNlIj4mI3hhOzxnPiYjeGE7PHRpdGxlLz4mI3hhOzx0aXRsZT5NU0lfMjwvdGl0bGU+JiN4YTs8cGF0aCBjbGFzcz0ibXNwb3J0YWxmeC1zdmctYzExIiBmaWxsPSIjZmNkMTE2IiBkPSJNIDI4LjI4NCA4MS44NSBhIDUuMDcgNS4wNyAwIDAgMSAwIC03LjE3MiBsIDExLjEyOCAtMTEuMTI3IFYgNTMuNiBsIDE2LjQzMyAtMTYuNDM0IGEgMTAuODMgMTAuODMgMCAwIDAgMCAtMTUuMzE0IEwgMzcuMTY2IDMuMTcyIGEgMTAuODMxIDEwLjgzMSAwIDAgMCAtMTUuMzE2IDAgTCAzLjE3MiAyMS44NTIgYSAxMC44MjggMTAuODI4IDAgMCAwIDAgMTUuMzE0IEwgMjAuOTA4IDU0LjkgdiAxLjUgbCAtNS4wNDkgNS4wNSBsIDUuMDA1IDUuMDA1IGwgLTUuMDA1IDUgbCA1LjAwNSA1LjAwNSBsIC01LjAwNSA1IGwgNS4wNDkgNS4wNSB2IDAuMDYzIGwgOC42IDguNiBsIDYuMDUxIC02LjA1MSBaIG0gLTQuOTIzIC02OC4wMTYgYSA2LjE0NyA2LjE0NyAwIDEgMSA2LjE0NyA2LjE0NyBhIDYuMTQ4IDYuMTQ4IDAgMCAxIC02LjE0NyAtNi4xNDcgWiIvPiYjeGE7PHBhdGggY2xhc3M9Im1zcG9ydGFsZngtc3ZnLWMwMSIgb3BhY2l0eT0iMC41IiBmaWxsPSIjZmZmZmZmIiBkPSJNIDEyLjM2NCAyNS45MiBoIDM1LjQ4MiB2IDUuMSBIIDEyLjM2NCBaIG0gMCA4LjI5NyBoIDM1LjQ4MiB2IDUuMSBIIDEyLjM2NCBaIi8+JiN4YTs8cGF0aCBjbGFzcz0ibXNwb3J0YWxmeC1zdmctYzE1IiBmaWxsPSIjNTliNGQ5IiBkPSJNIDU0LjMgMTAwIGEgMy45NzggMy45NzggMCAwIDEgLTIuODM1IC0xLjE3NSBMIDMzLjczNSA4MS4xIGEgNC4wMDggNC4wMDggMCAwIDEgMCAtNS42NyBMIDUxLjQ2MSA1Ny43IGEgNC4wMDUgNC4wMDUgMCAwIDEgNS42NyAwIGwgMTcuNzI0IDE3LjcyOSBhIDQuMDA2IDQuMDA2IDAgMCAxIDAgNS42NzIgTCA1Ny4xMzEgOTguODI1IEEgMy45NzggMy45NzggMCAwIDEgNTQuMyAxMDAiLz4mI3hhOzxwYXRoIGNsYXNzPSJtc3BvcnRhbGZ4LXN2Zy1jMDEiIGZpbGw9IiNmZmZmZmYiIGQ9Ik0gNjYuMTMyIDc0Ljg2NyBhIDMuMzkzIDMuMzkzIDAgMCAwIC0yLjgzOSA1LjI2MiBsIC02LjczMyA2LjczMiBhIDMuOTkxIDMuOTkxIDAgMCAwIC0wLjU3IC0wLjMyNCBWIDY5LjM2IGEgMy40IDMuNCAwIDEgMCAtMy4zODggMCB2IDE3LjE3NiBhIDMuOTI5IDMuOTI5IDAgMCAwIC0wLjU1IDAuMzA3IGwgLTYuNzQgLTYuNzQgYSAzLjQ5MyAzLjQ5MyAwIDEgMCAtMS43NDQgMS4zNjEgbCA3LjA4NSA3LjA4NiBhIDMuOTU3IDMuOTU3IDAgMSAwIDcuMjkyIDAuMDI4IGwgNy4xMDYgLTcuMTA1IGEgMy4zNTYgMy4zNTYgMCAwIDAgMS4wNzkgMC4xOTEgYSAzLjQgMy40IDAgMCAwIDAgLTYuOCBaIi8+JiN4YTs8cGF0aCBjbGFzcz0ibXNwb3J0YWxmeC1zdmctYzAxIiBvcGFjaXR5PSIwLjUiIGZpbGw9IiNmZmZmZmYiIGQ9Ik0gNTMuNDg0IDY3LjA5MiBsIDEuNTUgLTEuNTUyIGwgMTIuNzE0IDEyLjcxIGwgLTEuNTUyIDEuNTUxIFoiLz4mI3hhOzxwYXRoIGNsYXNzPSJtc3BvcnRhbGZ4LXN2Zy1jMDEiIG9wYWNpdHk9IjAuNSIgZmlsbD0iI2ZmZmZmZiIgZD0iTSA0MC44NTkgNzguMjYyIEwgNTMuNTcgNjUuNTUgbCAxLjU1MiAxLjU1MSBMIDQyLjQxIDc5LjgxMyBaIi8+JiN4YTs8cGF0aCBjbGFzcz0ibXNwb3J0YWxmeC1zdmctYzEzIiBmaWxsPSIjYjhkNDMyIiBkPSJNIDU2LjYxMiA5MC4xIGEgMi4zNTYgMi4zNTYgMCAxIDEgLTIuMzU2IC0yLjM1NSBhIDIuMzU1IDIuMzU1IDAgMCAxIDIuMzU2IDIuMzU1IG0gLTAuNDI3IC0yMy42NyBhIDEuODkgMS44OSAwIDEgMSAtMS44OSAtMS44OSBhIDEuODg5IDEuODg5IDAgMCAxIDEuODkgMS44OSBNIDQ0LjM1MiA3OC4yNjUgYSAxLjg5IDEuODkgMCAxIDEgLTEuODkgLTEuODkgYSAxLjg5MSAxLjg5MSAwIDAgMSAxLjg5IDEuODkgbSAyMy42NyAwIGEgMS44OTEgMS44OTEgMCAxIDEgLTEuODkxIC0xLjg5IGEgMS44OTEgMS44OTEgMCAwIDEgMS44OTEgMS44OSIvPiYjeGE7PHBhdGggY2xhc3M9Im1zcG9ydGFsZngtc3ZnLWMwMSIgb3BhY2l0eT0iMC4xIiBmaWxsPSIjZmZmZmZmIiBkPSJNIDU3LjEzMSA1Ny43IGEgNCA0IDAgMCAwIC01LjY2OSAwIEwgMzMuNzM1IDc1LjQyOSBhIDQuMDA4IDQuMDA4IDAgMCAwIDAgNS42NyBsIDEwLjAzNiAxMC4wMzYgTCA2Mi42NSA2My4yMjIgWiIvPiYjeGE7PHBhdGggY2xhc3M9Im1zcG9ydGFsZngtc3ZnLWMxMCIgb3BhY2l0eT0iMC40IiBmaWxsPSIjZmY4YzAwIiBkPSJNIDM0Ljc4OCA2OC4xMzcgdiAtMTIuOTIgbCAtMy44NjQgMS45MDMgdiAxNC44ODEgbCAzLjg2NCAtMy44NjQgWiIvPiYjeGE7PC9nPiYjeGE7PC9zdmc+;" parent="izLOdk6nZkrDbWo1u9eR-7" vertex="1">
                    <mxGeometry x="-655" y="160" width="30.4" height="40" as="geometry"/>
                </mxCell>
                <mxCell id="TYJE-9J5CXYhG14wN5V3-21" value="Network Policy" style="text;html=1;align=center;verticalAlign=middle;resizable=0;points=[];autosize=1;" parent="izLOdk6nZkrDbWo1u9eR-7" vertex="1">
                    <mxGeometry x="-695" y="740" width="90" height="20" as="geometry"/>
                </mxCell>
                <mxCell id="TYJE-9J5CXYhG14wN5V3-24" value="&lt;div&gt;&lt;br&gt;&lt;/div&gt;" style="text;html=1;align=center;verticalAlign=middle;resizable=0;points=[];autosize=1;" parent="izLOdk6nZkrDbWo1u9eR-7" vertex="1">
                    <mxGeometry x="-174" y="8" width="20" height="20" as="geometry"/>
                </mxCell>
                <mxCell id="TYJE-9J5CXYhG14wN5V3-27" value="Application&lt;br&gt;Gateway" style="aspect=fixed;html=1;points=[];align=center;image;fontSize=12;image=img/lib/mscae/Application_Gateway.svg;dashed=1;strokeWidth=2;fillColor=none;" parent="izLOdk6nZkrDbWo1u9eR-7" vertex="1">
                    <mxGeometry x="-240" y="535" width="50" height="50" as="geometry"/>
                </mxCell>
                <mxCell id="izLOdk6nZkrDbWo1u9eR-5" value="" style="whiteSpace=wrap;html=1;fillColor=none;fontSize=8;movable=0;resizable=0;rotatable=0;deletable=0;editable=0;connectable=0;" parent="izLOdk6nZkrDbWo1u9eR-7" vertex="1">
                    <mxGeometry x="-140" y="20" width="40" height="40" as="geometry"/>
                </mxCell>
                <mxCell id="izLOdk6nZkrDbWo1u9eR-6" value="" style="aspect=fixed;html=1;points=[];align=center;image;fontSize=12;image=img/lib/mscae/ResourceGroup.svg;dashed=1;strokeWidth=2;fillColor=none;" parent="izLOdk6nZkrDbWo1u9eR-7" vertex="1">
                    <mxGeometry x="-660" y="43" width="40" height="32" as="geometry"/>
                </mxCell>
                <mxCell id="TYJE-9J5CXYhG14wN5V3-31" value="" style="shape=image;verticalLabelPosition=bottom;labelBackgroundColor=#ffffff;verticalAlign=top;aspect=fixed;imageAspect=0;image=data:image/svg+xml,PHN2ZyB4bWxucz0iaHR0cDovL3d3dy53My5vcmcvMjAwMC9zdmciIHhtbG5zOnhsaW5rPSJodHRwOi8vd3d3LnczLm9yZy8xOTk5L3hsaW5rIiB4bWxuczpzdmc9Imh0dHA6Ly93d3cudzMub3JnLzIwMDAvc3ZnIiBjbGFzcz0iIiBpZD0iRnhTeW1ib2wwLTA4OCIgcm9sZT0icHJlc2VudGF0aW9uIiB2aWV3Qm94PSIwIDAgODQuMSAxMTEuNCIgZm9jdXNhYmxlPSJmYWxzZSI+JiN4YTs8Zz4mI3hhOzx0aXRsZS8+JiN4YTs8cGF0aCBmaWxsPSIjMWIzNjYyIiBkPSJNIDAgMTUuMiB2IDgwLjkgYyAwIDguNSAxOC44IDE1LjIgNDEuOSAxNS4yIFYgMTUuMiBaIi8+JiN4YTs8cGF0aCBmaWxsPSIjMmY0Yzc3IiBkPSJNIDQxLjUgMTExLjQgaCAwLjcgYyAyMy4zIDAgNDEuOSAtNi43IDQxLjkgLTE1LjIgdiAtODEgSCA0MS41IFoiLz4mI3hhOzxwYXRoIGNsYXNzPSJtc3BvcnRhbGZ4LXN2Zy1jMDEiIGZpbGw9IiNmZmZmZmYiIGQ9Ik0gODQuMSAxNS4yIGMgMCA4LjMgLTE4LjggMTUuMiAtNDEuOSAxNS4yIFMgMCAyMy41IDAgMTUuMiBTIDE4LjggMCA0MS45IDAgcyA0Mi4yIDcgNDIuMiAxNS4yIi8+JiN4YTs8cGF0aCBmaWxsPSIjN2ZiOTAwIiBkPSJNIDc1LjYgMTQuMyBjIDAgNS42IC0xNSAxMC4xIC0zMy40IDEwLjEgUyA4LjUgMjAgOC41IDE0LjMgcyAxNSAtMTAuMSAzMy40IC0xMC4xIHMgMzMuNyA0LjUgMzMuNyAxMC4xIi8+JiN4YTs8cGF0aCBmaWxsPSIjYjdkMzMyIiBkPSJNIDY4LjQgMjAuNCBjIDQuNSAtMS44IDcgLTMuOCA3IC02LjEgYyAwIC01LjYgLTE1IC0xMC4xIC0zMy40IC0xMC4xIFMgOC41IDguNyA4LjUgMTQuMyBjIDAgMi4yIDIuNyA0LjUgNyA2LjEgYyA2LjEgLTIuNSAxNS43IC0zLjggMjYuNSAtMy44IHMgMjAuMyAxLjYgMjYuNCAzLjgiLz4mI3hhOzxwYXRoIGNsYXNzPSJtc3BvcnRhbGZ4LXN2Zy1jMDEiIGZpbGw9IiNmZmZmZmYiIGQ9Ik0gNi41IDgyLjcxIHMgMy41MSAtMS41OCA0LjU3IC0xLjU4IGMgMCAwIDMuODYgLTAuNTMgNS42MiAtMC41MyBzIDMuMzEgLTEuNCA0LjU3IC0zLjM0IHMgNi4zMiAtNy43MyAxMi4xMiAtOSBzIDE0Ljc2IC0yLjY0IDE5LjY4IC05LjE0IHMgNy41NSAtMTQuMjMgMTUuMTEgLTE0LjU4IHMgNS4wOSAtMS45MyA3LjIgLTEuOTMgcyAwLjg4IDQgMC44OCA0IHMgLTAuNyAwLjUzIC0wLjcgMC43IHMgLTAuNTUgMi4zNyAtNC40IDQuNjkgcyAtNCA3LjczIC00LjM5IDEwIHMgLTMuODYgMTMuMzUgLTcuMzggMTYuMzQgbCAtMC44OCAwLjM1IHMgLTAuMzUgMC44OCAtMC43IDEuMDUgcyAtMS4yMyAtMC43IC0xLjQxIC0xLjA1IHMgLTEuNzYgMyAtMi4yOCAzLjY5IGEgMTMuNyAxMy43IDAgMCAxIC0xMC43MiA2LjUgcyA1LjggLTkuNjYgNS4yNyAtMTMuMTggYSAyMS42IDIxLjYgMCAwIDAgLTEuNTggMy44NiBjIDAgMC43IC0xLjIzIDIuMTEgLTMuMTYgMi4yOCBzIC0xNC4yMyAtMi44MSAtMTkuMzIgMCBzIC03LjIgNS4yNyAtMTAgNS40NSBzIC01LjYyIDAuMTggLTYuNjggLTAuMzUgYyAwIDAgMi4yOCAtMi40NiAyLjQ2IC0yLjgxIGMgLTAuMDIgLTAuMDEgLTMuMzggMC42OSAtMy44OCAtMS40MiBaIi8+JiN4YTs8cGF0aCBmaWxsPSIjMWIzNjYyIiBkPSJNIDc1LjcyIDQ3LjIyIGwgMC41MyAtMC41MyBzIC0yLjQ2IC0wLjcgLTMuMTYgLTIuNDYgYSAwLjg1IDAuODUgMCAwIDAgMCAwLjcgYSAxMC43MiAxMC43MiAwIDAgMCAyLjYzIDIuMjkgWiBNIDY0LjgyIDQ5IHMgMS4wNSAtMi40NiAzLjM0IC0xLjkzIGEgMS44MiAxLjgyIDAgMCAxIC0xLjQxIDIuNDYgYSAyLjU0IDIuNTQgMCAwIDEgLTEuOTMgLTAuNTMgWiIvPiYjeGE7PHBhdGggY2xhc3M9Im1zcG9ydGFsZngtc3ZnLWMwMSIgZmlsbD0iI2ZmZmZmZiIgc3Ryb2tlPSIjMWIzNjYyIiBzdHJva2UtbWl0ZXJsaW1pdD0iMTAiIHN0cm9rZS13aWR0aD0iMC41IiBkPSJNIDcyLjczIDQ2IHMgLTEuOTMgMi42NCAtMi4xMSAzLjY5IG0gMi40NiAtMy4xNyBhIDIzLjY2IDIzLjY2IDAgMCAwIC0xLjQxIDMuMzQgbSAxLjU5IC0zLjM0IGEgMTAuNzYgMTAuNzYgMCAwIDAgLTAuNTMgMy4zNCIvPiYjeGE7PHBhdGggY2xhc3M9Im1zcG9ydGFsZngtc3ZnLWMwMSIgZmlsbD0iI2ZmZmZmZiIgZD0iTSA2Mi4xOSA3Ni4yMSBzIC0zLjE2IDMgLTMuMzQgNCBzIDMuNTEgMi42NCA1LjggMi4xMSBjIDAgMC4wNCAtMi40NiAtNS40MSAtMi40NiAtNi4xMSBaIi8+JiN4YTs8L2c+JiN4YTs8L3N2Zz4=;" parent="izLOdk6nZkrDbWo1u9eR-7" vertex="1">
                    <mxGeometry x="-655" y="340" width="31.03" height="41" as="geometry"/>
                </mxCell>
                <mxCell id="izLOdk6nZkrDbWo1u9eR-12" value="Icons" style="text;html=1;align=center;verticalAlign=middle;resizable=0;points=[];autosize=1;fontSize=8;" parent="izLOdk6nZkrDbWo1u9eR-7" vertex="1">
                    <mxGeometry x="-680" y="10" width="30" height="20" as="geometry"/>
                </mxCell>
                <mxCell id="izLOdk6nZkrDbWo1u9eR-19" value="" style="aspect=fixed;html=1;points=[];align=center;image;fontSize=12;image=img/lib/mscae/Application_Gateway.svg;dashed=1;strokeWidth=2;fillColor=none;" parent="izLOdk6nZkrDbWo1u9eR-7" vertex="1">
                    <mxGeometry x="-660" y="100" width="40" height="40" as="geometry"/>
                </mxCell>
                <mxCell id="izLOdk6nZkrDbWo1u9eR-23" value="Managed Identity" style="shape=image;verticalLabelPosition=middle;labelBackgroundColor=#ffffff;verticalAlign=middle;aspect=fixed;imageAspect=0;image=data:image/svg+xml,PHN2ZyB4bWxucz0iaHR0cDovL3d3dy53My5vcmcvMjAwMC9zdmciIHhtbG5zOnhsaW5rPSJodHRwOi8vd3d3LnczLm9yZy8xOTk5L3hsaW5rIiB4bWxuczpzdmc9Imh0dHA6Ly93d3cudzMub3JnLzIwMDAvc3ZnIiBjbGFzcz0iZnhzLXBvcnRhbC1zdmciIGlkPSJGeFN5bWJvbDAtMGMwIiByb2xlPSJwcmVzZW50YXRpb24iIHZpZXdCb3g9IjAgMCA3Ni4wMzEgMTAwIiBmb2N1c2FibGU9ImZhbHNlIj4mI3hhOzxnPiYjeGE7PHRpdGxlLz4mI3hhOzx0aXRsZT5NU0lfMjwvdGl0bGU+JiN4YTs8cGF0aCBjbGFzcz0ibXNwb3J0YWxmeC1zdmctYzExIiBmaWxsPSIjZmNkMTE2IiBkPSJNIDI4LjI4NCA4MS44NSBhIDUuMDcgNS4wNyAwIDAgMSAwIC03LjE3MiBsIDExLjEyOCAtMTEuMTI3IFYgNTMuNiBsIDE2LjQzMyAtMTYuNDM0IGEgMTAuODMgMTAuODMgMCAwIDAgMCAtMTUuMzE0IEwgMzcuMTY2IDMuMTcyIGEgMTAuODMxIDEwLjgzMSAwIDAgMCAtMTUuMzE2IDAgTCAzLjE3MiAyMS44NTIgYSAxMC44MjggMTAuODI4IDAgMCAwIDAgMTUuMzE0IEwgMjAuOTA4IDU0LjkgdiAxLjUgbCAtNS4wNDkgNS4wNSBsIDUuMDA1IDUuMDA1IGwgLTUuMDA1IDUgbCA1LjAwNSA1LjAwNSBsIC01LjAwNSA1IGwgNS4wNDkgNS4wNSB2IDAuMDYzIGwgOC42IDguNiBsIDYuMDUxIC02LjA1MSBaIG0gLTQuOTIzIC02OC4wMTYgYSA2LjE0NyA2LjE0NyAwIDEgMSA2LjE0NyA2LjE0NyBhIDYuMTQ4IDYuMTQ4IDAgMCAxIC02LjE0NyAtNi4xNDcgWiIvPiYjeGE7PHBhdGggY2xhc3M9Im1zcG9ydGFsZngtc3ZnLWMwMSIgb3BhY2l0eT0iMC41IiBmaWxsPSIjZmZmZmZmIiBkPSJNIDEyLjM2NCAyNS45MiBoIDM1LjQ4MiB2IDUuMSBIIDEyLjM2NCBaIG0gMCA4LjI5NyBoIDM1LjQ4MiB2IDUuMSBIIDEyLjM2NCBaIi8+JiN4YTs8cGF0aCBjbGFzcz0ibXNwb3J0YWxmeC1zdmctYzE1IiBmaWxsPSIjNTliNGQ5IiBkPSJNIDU0LjMgMTAwIGEgMy45NzggMy45NzggMCAwIDEgLTIuODM1IC0xLjE3NSBMIDMzLjczNSA4MS4xIGEgNC4wMDggNC4wMDggMCAwIDEgMCAtNS42NyBMIDUxLjQ2MSA1Ny43IGEgNC4wMDUgNC4wMDUgMCAwIDEgNS42NyAwIGwgMTcuNzI0IDE3LjcyOSBhIDQuMDA2IDQuMDA2IDAgMCAxIDAgNS42NzIgTCA1Ny4xMzEgOTguODI1IEEgMy45NzggMy45NzggMCAwIDEgNTQuMyAxMDAiLz4mI3hhOzxwYXRoIGNsYXNzPSJtc3BvcnRhbGZ4LXN2Zy1jMDEiIGZpbGw9IiNmZmZmZmYiIGQ9Ik0gNjYuMTMyIDc0Ljg2NyBhIDMuMzkzIDMuMzkzIDAgMCAwIC0yLjgzOSA1LjI2MiBsIC02LjczMyA2LjczMiBhIDMuOTkxIDMuOTkxIDAgMCAwIC0wLjU3IC0wLjMyNCBWIDY5LjM2IGEgMy40IDMuNCAwIDEgMCAtMy4zODggMCB2IDE3LjE3NiBhIDMuOTI5IDMuOTI5IDAgMCAwIC0wLjU1IDAuMzA3IGwgLTYuNzQgLTYuNzQgYSAzLjQ5MyAzLjQ5MyAwIDEgMCAtMS43NDQgMS4zNjEgbCA3LjA4NSA3LjA4NiBhIDMuOTU3IDMuOTU3IDAgMSAwIDcuMjkyIDAuMDI4IGwgNy4xMDYgLTcuMTA1IGEgMy4zNTYgMy4zNTYgMCAwIDAgMS4wNzkgMC4xOTEgYSAzLjQgMy40IDAgMCAwIDAgLTYuOCBaIi8+JiN4YTs8cGF0aCBjbGFzcz0ibXNwb3J0YWxmeC1zdmctYzAxIiBvcGFjaXR5PSIwLjUiIGZpbGw9IiNmZmZmZmYiIGQ9Ik0gNTMuNDg0IDY3LjA5MiBsIDEuNTUgLTEuNTUyIGwgMTIuNzE0IDEyLjcxIGwgLTEuNTUyIDEuNTUxIFoiLz4mI3hhOzxwYXRoIGNsYXNzPSJtc3BvcnRhbGZ4LXN2Zy1jMDEiIG9wYWNpdHk9IjAuNSIgZmlsbD0iI2ZmZmZmZiIgZD0iTSA0MC44NTkgNzguMjYyIEwgNTMuNTcgNjUuNTUgbCAxLjU1MiAxLjU1MSBMIDQyLjQxIDc5LjgxMyBaIi8+JiN4YTs8cGF0aCBjbGFzcz0ibXNwb3J0YWxmeC1zdmctYzEzIiBmaWxsPSIjYjhkNDMyIiBkPSJNIDU2LjYxMiA5MC4xIGEgMi4zNTYgMi4zNTYgMCAxIDEgLTIuMzU2IC0yLjM1NSBhIDIuMzU1IDIuMzU1IDAgMCAxIDIuMzU2IDIuMzU1IG0gLTAuNDI3IC0yMy42NyBhIDEuODkgMS44OSAwIDEgMSAtMS44OSAtMS44OSBhIDEuODg5IDEuODg5IDAgMCAxIDEuODkgMS44OSBNIDQ0LjM1MiA3OC4yNjUgYSAxLjg5IDEuODkgMCAxIDEgLTEuODkgLTEuODkgYSAxLjg5MSAxLjg5MSAwIDAgMSAxLjg5IDEuODkgbSAyMy42NyAwIGEgMS44OTEgMS44OTEgMCAxIDEgLTEuODkxIC0xLjg5IGEgMS44OTEgMS44OTEgMCAwIDEgMS44OTEgMS44OSIvPiYjeGE7PHBhdGggY2xhc3M9Im1zcG9ydGFsZngtc3ZnLWMwMSIgb3BhY2l0eT0iMC4xIiBmaWxsPSIjZmZmZmZmIiBkPSJNIDU3LjEzMSA1Ny43IGEgNCA0IDAgMCAwIC01LjY2OSAwIEwgMzMuNzM1IDc1LjQyOSBhIDQuMDA4IDQuMDA4IDAgMCAwIDAgNS42NyBsIDEwLjAzNiAxMC4wMzYgTCA2Mi42NSA2My4yMjIgWiIvPiYjeGE7PHBhdGggY2xhc3M9Im1zcG9ydGFsZngtc3ZnLWMxMCIgb3BhY2l0eT0iMC40IiBmaWxsPSIjZmY4YzAwIiBkPSJNIDM0Ljc4OCA2OC4xMzcgdiAtMTIuOTIgbCAtMy44NjQgMS45MDMgdiAxNC44ODEgbCAzLjg2NCAtMy44NjQgWiIvPiYjeGE7PC9nPiYjeGE7PC9zdmc+;labelPosition=right;align=left;" parent="izLOdk6nZkrDbWo1u9eR-7" vertex="1">
                    <mxGeometry x="-580" y="160" width="30.4" height="40" as="geometry"/>
                </mxCell>
                <mxCell id="izLOdk6nZkrDbWo1u9eR-20" value="&lt;span style=&quot;background-color: rgb(248 , 249 , 250)&quot;&gt;kk-webhosting-shared-rg&lt;/span&gt;" style="aspect=fixed;html=1;points=[];align=left;image;fontSize=12;image=img/lib/mscae/ResourceGroup.svg;dashed=1;strokeWidth=2;fillColor=none;labelPosition=right;verticalLabelPosition=middle;verticalAlign=middle;" parent="izLOdk6nZkrDbWo1u9eR-7" vertex="1">
                    <mxGeometry x="-580" y="43" width="40" height="32" as="geometry"/>
                </mxCell>
                <mxCell id="izLOdk6nZkrDbWo1u9eR-24" value="Application Gateway" style="aspect=fixed;html=1;points=[];align=left;image;fontSize=12;image=img/lib/mscae/Application_Gateway.svg;dashed=1;strokeWidth=2;fillColor=none;labelPosition=right;verticalLabelPosition=middle;verticalAlign=middle;" parent="izLOdk6nZkrDbWo1u9eR-7" vertex="1">
                    <mxGeometry x="-580" y="100" width="40" height="40" as="geometry"/>
                </mxCell>
                <mxCell id="izLOdk6nZkrDbWo1u9eR-25" value="" style="shape=image;verticalLabelPosition=bottom;labelBackgroundColor=#ffffff;verticalAlign=top;aspect=fixed;imageAspect=0;image=data:image/svg+xml,PHN2ZyB4bWxucz0iaHR0cDovL3d3dy53My5vcmcvMjAwMC9zdmciIHhtbG5zOnhsaW5rPSJodHRwOi8vd3d3LnczLm9yZy8xOTk5L3hsaW5rIiB2ZXJzaW9uPSIxLjEiIGlkPSJMYXllcl8xIiB4PSIwcHgiIHk9IjBweCIgaGVpZ2h0PSI1MHB4IiB3aWR0aD0iNTBweCIgdmlld0JveD0iMCAwIDUwIDUwIiBlbmFibGUtYmFja2dyb3VuZD0ibmV3IDAgMCA1MCA1MCIgeG1sOnNwYWNlPSJwcmVzZXJ2ZSI+JiN4YTs8cGF0aCBmaWxsPSIjMzk5OUM2IiBkPSJNNDkuNywyNS43YzAuNS0wLjUsMC40LTEuMywwLTEuOGwtMi40LTIuNEwzNi41LDExYy0wLjUtMC41LTEuMi0wLjUtMS43LDBsMCwwYy0wLjUsMC41LTAuNiwxLjMsMCwxLjggIGwxMS4zLDExLjFjMC41LDAuNSwwLjUsMS4zLDAsMS44TDM0LjYsMzcuMmMtMC41LDAuNS0wLjUsMS4zLDAsMS44bDAsMGMwLjUsMC41LDEuMywwLjQsMS43LDBsMTAuNy0xMC42YzAsMCwwLDAsMC4xLTAuMUw0OS43LDI1LjcgIHoiLz4mI3hhOzxwYXRoIGZpbGw9IiMzOTk5QzYiIGQ9Ik0wLjMsMjUuN2MtMC41LTAuNS0wLjQtMS4zLDAtMS44bDIuNC0yLjRMMTMuNSwxMWMwLjUtMC41LDEuMi0wLjUsMS43LDBsMCwwYzAuNSwwLjUsMC42LDEuMywwLDEuOCAgTDQuMSwyMy45Yy0wLjUsMC41LTAuNSwxLjMsMCwxLjhsMTEuMywxMS41YzAuNSwwLjUsMC41LDEuMywwLDEuOGwwLDBjLTAuNSwwLjUtMS4zLDAuNC0xLjcsMEwyLjgsMjguNWMwLDAsMCwwLTAuMS0wLjFMMC4zLDI1Ljd6Ii8+JiN4YTs8cGF0aCBmaWxsPSIjN0ZCQTAwIiBkPSJNMTguMiwyNC44YzAsMS45LTEuNiwzLjMtMy4zLDMuM3MtMy41LTEuNi0zLjUtMy4zczEuNC0zLjMsMy41LTMuM0MxNi45LDIxLjUsMTguMiwyMy4xLDE4LjIsMjQuOHoiLz4mI3hhOzxwYXRoIGZpbGw9IiM3RkJBMDAiIGQ9Ik0yOC4zLDI0LjhjMCwxLjktMS42LDMuMy0zLjMsMy4zcy0zLjUtMS42LTMuNS0zLjNzMS42LTMuMywzLjUtMy4zUzI4LjMsMjMuMSwyOC4zLDI0Ljh6Ii8+JiN4YTs8Y2lyY2xlIGZpbGw9IiM3RkJBMDAiIGN4PSIzNS4yIiBjeT0iMjQuOCIgcj0iMy4zIi8+JiN4YTs8L3N2Zz4=;" parent="izLOdk6nZkrDbWo1u9eR-7" vertex="1">
                    <mxGeometry x="-661.27" y="220" width="40" height="40" as="geometry"/>
                </mxCell>
                <mxCell id="izLOdk6nZkrDbWo1u9eR-27" value="MariaDB" style="shape=image;verticalLabelPosition=middle;labelBackgroundColor=#ffffff;verticalAlign=middle;aspect=fixed;imageAspect=0;image=data:image/svg+xml,PHN2ZyB4bWxucz0iaHR0cDovL3d3dy53My5vcmcvMjAwMC9zdmciIHhtbG5zOnhsaW5rPSJodHRwOi8vd3d3LnczLm9yZy8xOTk5L3hsaW5rIiB4bWxuczpzdmc9Imh0dHA6Ly93d3cudzMub3JnLzIwMDAvc3ZnIiBjbGFzcz0iIiBpZD0iRnhTeW1ib2wwLTA4OCIgcm9sZT0icHJlc2VudGF0aW9uIiB2aWV3Qm94PSIwIDAgODQuMSAxMTEuNCIgZm9jdXNhYmxlPSJmYWxzZSI+JiN4YTs8Zz4mI3hhOzx0aXRsZS8+JiN4YTs8cGF0aCBmaWxsPSIjMWIzNjYyIiBkPSJNIDAgMTUuMiB2IDgwLjkgYyAwIDguNSAxOC44IDE1LjIgNDEuOSAxNS4yIFYgMTUuMiBaIi8+JiN4YTs8cGF0aCBmaWxsPSIjMmY0Yzc3IiBkPSJNIDQxLjUgMTExLjQgaCAwLjcgYyAyMy4zIDAgNDEuOSAtNi43IDQxLjkgLTE1LjIgdiAtODEgSCA0MS41IFoiLz4mI3hhOzxwYXRoIGNsYXNzPSJtc3BvcnRhbGZ4LXN2Zy1jMDEiIGZpbGw9IiNmZmZmZmYiIGQ9Ik0gODQuMSAxNS4yIGMgMCA4LjMgLTE4LjggMTUuMiAtNDEuOSAxNS4yIFMgMCAyMy41IDAgMTUuMiBTIDE4LjggMCA0MS45IDAgcyA0Mi4yIDcgNDIuMiAxNS4yIi8+JiN4YTs8cGF0aCBmaWxsPSIjN2ZiOTAwIiBkPSJNIDc1LjYgMTQuMyBjIDAgNS42IC0xNSAxMC4xIC0zMy40IDEwLjEgUyA4LjUgMjAgOC41IDE0LjMgcyAxNSAtMTAuMSAzMy40IC0xMC4xIHMgMzMuNyA0LjUgMzMuNyAxMC4xIi8+JiN4YTs8cGF0aCBmaWxsPSIjYjdkMzMyIiBkPSJNIDY4LjQgMjAuNCBjIDQuNSAtMS44IDcgLTMuOCA3IC02LjEgYyAwIC01LjYgLTE1IC0xMC4xIC0zMy40IC0xMC4xIFMgOC41IDguNyA4LjUgMTQuMyBjIDAgMi4yIDIuNyA0LjUgNyA2LjEgYyA2LjEgLTIuNSAxNS43IC0zLjggMjYuNSAtMy44IHMgMjAuMyAxLjYgMjYuNCAzLjgiLz4mI3hhOzxwYXRoIGNsYXNzPSJtc3BvcnRhbGZ4LXN2Zy1jMDEiIGZpbGw9IiNmZmZmZmYiIGQ9Ik0gNi41IDgyLjcxIHMgMy41MSAtMS41OCA0LjU3IC0xLjU4IGMgMCAwIDMuODYgLTAuNTMgNS42MiAtMC41MyBzIDMuMzEgLTEuNCA0LjU3IC0zLjM0IHMgNi4zMiAtNy43MyAxMi4xMiAtOSBzIDE0Ljc2IC0yLjY0IDE5LjY4IC05LjE0IHMgNy41NSAtMTQuMjMgMTUuMTEgLTE0LjU4IHMgNS4wOSAtMS45MyA3LjIgLTEuOTMgcyAwLjg4IDQgMC44OCA0IHMgLTAuNyAwLjUzIC0wLjcgMC43IHMgLTAuNTUgMi4zNyAtNC40IDQuNjkgcyAtNCA3LjczIC00LjM5IDEwIHMgLTMuODYgMTMuMzUgLTcuMzggMTYuMzQgbCAtMC44OCAwLjM1IHMgLTAuMzUgMC44OCAtMC43IDEuMDUgcyAtMS4yMyAtMC43IC0xLjQxIC0xLjA1IHMgLTEuNzYgMyAtMi4yOCAzLjY5IGEgMTMuNyAxMy43IDAgMCAxIC0xMC43MiA2LjUgcyA1LjggLTkuNjYgNS4yNyAtMTMuMTggYSAyMS42IDIxLjYgMCAwIDAgLTEuNTggMy44NiBjIDAgMC43IC0xLjIzIDIuMTEgLTMuMTYgMi4yOCBzIC0xNC4yMyAtMi44MSAtMTkuMzIgMCBzIC03LjIgNS4yNyAtMTAgNS40NSBzIC01LjYyIDAuMTggLTYuNjggLTAuMzUgYyAwIDAgMi4yOCAtMi40NiAyLjQ2IC0yLjgxIGMgLTAuMDIgLTAuMDEgLTMuMzggMC42OSAtMy44OCAtMS40MiBaIi8+JiN4YTs8cGF0aCBmaWxsPSIjMWIzNjYyIiBkPSJNIDc1LjcyIDQ3LjIyIGwgMC41MyAtMC41MyBzIC0yLjQ2IC0wLjcgLTMuMTYgLTIuNDYgYSAwLjg1IDAuODUgMCAwIDAgMCAwLjcgYSAxMC43MiAxMC43MiAwIDAgMCAyLjYzIDIuMjkgWiBNIDY0LjgyIDQ5IHMgMS4wNSAtMi40NiAzLjM0IC0xLjkzIGEgMS44MiAxLjgyIDAgMCAxIC0xLjQxIDIuNDYgYSAyLjU0IDIuNTQgMCAwIDEgLTEuOTMgLTAuNTMgWiIvPiYjeGE7PHBhdGggY2xhc3M9Im1zcG9ydGFsZngtc3ZnLWMwMSIgZmlsbD0iI2ZmZmZmZiIgc3Ryb2tlPSIjMWIzNjYyIiBzdHJva2UtbWl0ZXJsaW1pdD0iMTAiIHN0cm9rZS13aWR0aD0iMC41IiBkPSJNIDcyLjczIDQ2IHMgLTEuOTMgMi42NCAtMi4xMSAzLjY5IG0gMi40NiAtMy4xNyBhIDIzLjY2IDIzLjY2IDAgMCAwIC0xLjQxIDMuMzQgbSAxLjU5IC0zLjM0IGEgMTAuNzYgMTAuNzYgMCAwIDAgLTAuNTMgMy4zNCIvPiYjeGE7PHBhdGggY2xhc3M9Im1zcG9ydGFsZngtc3ZnLWMwMSIgZmlsbD0iI2ZmZmZmZiIgZD0iTSA2Mi4xOSA3Ni4yMSBzIC0zLjE2IDMgLTMuMzQgNCBzIDMuNTEgMi42NCA1LjggMi4xMSBjIDAgMC4wNCAtMi40NiAtNS40MSAtMi40NiAtNi4xMSBaIi8+JiN4YTs8L2c+JiN4YTs8L3N2Zz4=;labelPosition=right;align=left;" parent="izLOdk6nZkrDbWo1u9eR-7" vertex="1">
                    <mxGeometry x="-574.99" y="340" width="31.03" height="41" as="geometry"/>
                </mxCell>
                <mxCell id="izLOdk6nZkrDbWo1u9eR-28" value="" style="shape=image;verticalLabelPosition=bottom;labelBackgroundColor=#ffffff;verticalAlign=top;aspect=fixed;imageAspect=0;image=data:image/svg+xml,PHN2ZyB4bWxucz0iaHR0cDovL3d3dy53My5vcmcvMjAwMC9zdmciIHhtbG5zOnhsaW5rPSJodHRwOi8vd3d3LnczLm9yZy8xOTk5L3hsaW5rIiB2ZXJzaW9uPSIxLjEiIGlkPSJMYXllcl8xIiB4PSIwcHgiIHk9IjBweCIgaGVpZ2h0PSI1MHB4IiB3aWR0aD0iNTBweCIgdmlld0JveD0iMCAwIDUwIDUwIiBlbmFibGUtYmFja2dyb3VuZD0ibmV3IDAgMCA1MCA1MCIgeG1sOnNwYWNlPSJwcmVzZXJ2ZSI+JiN4YTsJPHBhdGggZmlsbD0iIzM5OTlDNiIgZD0iTTQ5LjcsMjUuN2MwLjUtMC41LDAuNC0xLjMsMC0xLjhsLTIuNC0yLjRMMzYuNSwxMWMtMC41LTAuNS0xLjItMC41LTEuNywwbDAsMGMtMC41LDAuNS0wLjYsMS4zLDAsMS44ICBsMTEuMywxMS4xYzAuNSwwLjUsMC41LDEuMywwLDEuOEwzNC42LDM3LjJjLTAuNSwwLjUtMC41LDEuMywwLDEuOGwwLDBjMC41LDAuNSwxLjMsMC40LDEuNywwbDEwLjctMTAuNmMwLDAsMCwwLDAuMS0wLjFMNDkuNywyNS43ICB6Ii8+JiN4YTsJPHBhdGggZmlsbD0iIzM5OTlDNiIgZD0iTTAuMywyNS43Yy0wLjUtMC41LTAuNC0xLjMsMC0xLjhsMi40LTIuNEwxMy41LDExYzAuNS0wLjUsMS4yLTAuNSwxLjcsMGwwLDBjMC41LDAuNSwwLjYsMS4zLDAsMS44ICBMNC4xLDIzLjljLTAuNSwwLjUtMC41LDEuMywwLDEuOGwxMS4zLDExLjVjMC41LDAuNSwwLjUsMS4zLDAsMS44bDAsMGMtMC41LDAuNS0xLjMsMC40LTEuNywwTDIuOCwyOC41YzAsMCwwLDAtMC4xLTAuMUwwLjMsMjUuN3oiLz4mI3hhOwk8cGF0aCBmaWxsPSIjN0ZCQTAwIiBkPSJNMjguMywyNC44YzAsMS45LTEuNiwzLjMtMy4zLDMuM3MtMy41LTEuNi0zLjUtMy4zczEuNi0zLjMsMy41LTMuM1MyOC4zLDIzLjEsMjguMywyNC44eiIvPiYjeGE7PC9zdmc+;" parent="izLOdk6nZkrDbWo1u9eR-7" vertex="1">
                    <mxGeometry x="-660" y="280" width="40" height="40" as="geometry"/>
                </mxCell>
                <mxCell id="izLOdk6nZkrDbWo1u9eR-29" value="Subnet" style="shape=image;verticalLabelPosition=middle;labelBackgroundColor=#ffffff;verticalAlign=middle;aspect=fixed;imageAspect=0;image=data:image/svg+xml,PHN2ZyB4bWxucz0iaHR0cDovL3d3dy53My5vcmcvMjAwMC9zdmciIHhtbG5zOnhsaW5rPSJodHRwOi8vd3d3LnczLm9yZy8xOTk5L3hsaW5rIiB2ZXJzaW9uPSIxLjEiIGlkPSJMYXllcl8xIiB4PSIwcHgiIHk9IjBweCIgaGVpZ2h0PSI1MHB4IiB3aWR0aD0iNTBweCIgdmlld0JveD0iMCAwIDUwIDUwIiBlbmFibGUtYmFja2dyb3VuZD0ibmV3IDAgMCA1MCA1MCIgeG1sOnNwYWNlPSJwcmVzZXJ2ZSI+JiN4YTsJPHBhdGggZmlsbD0iIzM5OTlDNiIgZD0iTTQ5LjcsMjUuN2MwLjUtMC41LDAuNC0xLjMsMC0xLjhsLTIuNC0yLjRMMzYuNSwxMWMtMC41LTAuNS0xLjItMC41LTEuNywwbDAsMGMtMC41LDAuNS0wLjYsMS4zLDAsMS44ICBsMTEuMywxMS4xYzAuNSwwLjUsMC41LDEuMywwLDEuOEwzNC42LDM3LjJjLTAuNSwwLjUtMC41LDEuMywwLDEuOGwwLDBjMC41LDAuNSwxLjMsMC40LDEuNywwbDEwLjctMTAuNmMwLDAsMCwwLDAuMS0wLjFMNDkuNywyNS43ICB6Ii8+JiN4YTsJPHBhdGggZmlsbD0iIzM5OTlDNiIgZD0iTTAuMywyNS43Yy0wLjUtMC41LTAuNC0xLjMsMC0xLjhsMi40LTIuNEwxMy41LDExYzAuNS0wLjUsMS4yLTAuNSwxLjcsMGwwLDBjMC41LDAuNSwwLjYsMS4zLDAsMS44ICBMNC4xLDIzLjljLTAuNSwwLjUtMC41LDEuMywwLDEuOGwxMS4zLDExLjVjMC41LDAuNSwwLjUsMS4zLDAsMS44bDAsMGMtMC41LDAuNS0xLjMsMC40LTEuNywwTDIuOCwyOC41YzAsMCwwLDAtMC4xLTAuMUwwLjMsMjUuN3oiLz4mI3hhOwk8cGF0aCBmaWxsPSIjN0ZCQTAwIiBkPSJNMjguMywyNC44YzAsMS45LTEuNiwzLjMtMy4zLDMuM3MtMy41LTEuNi0zLjUtMy4zczEuNi0zLjMsMy41LTMuM1MyOC4zLDIzLjEsMjguMywyNC44eiIvPiYjeGE7PC9zdmc+;labelPosition=right;align=left;" parent="izLOdk6nZkrDbWo1u9eR-7" vertex="1">
                    <mxGeometry x="-579.99" y="280" width="40" height="40" as="geometry"/>
                </mxCell>
                <mxCell id="izLOdk6nZkrDbWo1u9eR-31" value="" style="endArrow=none;html=1;fontSize=8;strokeColor=#8C8C8C;movable=0;resizable=0;rotatable=0;deletable=0;editable=0;connectable=0;" parent="izLOdk6nZkrDbWo1u9eR-7" edge="1">
                    <mxGeometry width="50" height="50" relative="1" as="geometry">
                        <mxPoint x="-620.09" y="706.6666666666666" as="sourcePoint"/>
                        <mxPoint x="-620.09" y="40" as="targetPoint"/>
                    </mxGeometry>
                </mxCell>
                <mxCell id="izLOdk6nZkrDbWo1u9eR-36" value="" style="shape=image;verticalLabelPosition=bottom;labelBackgroundColor=#ffffff;verticalAlign=top;aspect=fixed;imageAspect=0;image=data:image/svg+xml,PHN2ZyB4bWxucz0iaHR0cDovL3d3dy53My5vcmcvMjAwMC9zdmciIHhtbG5zOnhsaW5rPSJodHRwOi8vd3d3LnczLm9yZy8xOTk5L3hsaW5rIiB4bWxuczpzdmc9Imh0dHA6Ly93d3cudzMub3JnLzIwMDAvc3ZnIiBjbGFzcz0iZnhzLXBvcnRhbC1zdmciIGlkPSJGeFN5bWJvbDAtMDc3IiByb2xlPSJwcmVzZW50YXRpb24iIHZpZXdCb3g9IjAgMCA1MCA1MCIgZm9jdXNhYmxlPSJmYWxzZSI+JiN4YTs8Zz4mI3hhOzx0aXRsZS8+JiN4YTs8dGl0bGU+U2VydmljZUVuZHBvaW50c1BvbGljeTwvdGl0bGU+JiN4YTs8cGF0aCBjbGFzcz0ibXNwb3J0YWxmeC1zdmctYzAxIiBmaWxsPSIjZmZmZmZmIiBkPSJNIDM1LjUgNDcgYyAtMi4yMzYgMCAtNC41IC0xLjcxNyAtNC41IC01IGEgNS44MjEgNS44MjEgMCAwIDEgMS41NDcgLTQgSCAxMCBWIDkuOSBhIDcuODI0IDcuODI0IDAgMCAxIDggLTggaCAyNS42MTQgbCAtMS43MDcgMS43MDcgQSA4LjY2MSA4LjY2MSAwIDAgMCA0MCA4LjkgViA0MSBjIDAgMi43NjggLTEuMTc5IDYgLTQuNSA2IFoiLz4mI3hhOzxwYXRoIGQ9Ik0gNDMgMSBIIDE5IEMgMTMgMSA5IDQuOSA5IDEwLjkgViAzNyBIIDcuNSBhIDUuNSA1LjUgMCAwIDAgMCAxMSBIIDM2IGMgNCAwIDUgLTQgNSAtNiBWIDguOSBoIDYuNiBhIDcuODc2IDcuODc2IDAgMCAwIDAuNCAtMi4zIEMgNDggMy41IDQ1LjggMSA0MyAxIFogbSAtNCA3LjkgViA0MiBjIDAgMiAtMC41IDQgLTMuNSA0IGMgLTEuNyAwIC0zLjUgLTEuMyAtMy41IC00IGEgNS4wMyA1LjAzIDAgMCAxIDQgLTQuOSBWIDM3IEggMTEgViA5LjkgYSA2LjgzNSA2LjgzNSAwIDAgMSA3IC03IGggMjMuMiBhIDkuNjE4IDkuNjE4IDAgMCAwIC0yLjIgNiBaIi8+JiN4YTs8cGF0aCBjbGFzcz0ibXNwb3J0YWxmeC1zdmctYzE0IiBmaWxsPSIjN2ZiYTAwIiBkPSJNIDIxIDE4IGEgMiAyIDAgMSAxIC0yIC0yIGEgMiAyIDAgMCAxIDIgMiBaIG0gMTAgLTIgYSAyIDIgMCAxIDAgMiAyIGEgMiAyIDAgMCAwIC0yIC0yIFogbSAtNS4yNSAxMy42NDggdiAtOS44IGEgMiAyIDAgMSAwIC0xLjUgMCB2IDkuOCBhIDIgMiAwIDEgMCAxLjUgMCBaIi8+JiN4YTs8cGF0aCBjbGFzcz0ibXNwb3J0YWxmeC1zdmctYzE1IiBmaWxsPSIjNTliNGQ5IiBkPSJNIDIwIDI2IGEgMSAxIDAgMCAxIC0wLjcwNyAtMC4yOTMgbCAtNyAtNyBhIDEgMSAwIDAgMSAwIC0xLjQxNCBsIDcgLTcgYSAxIDEgMCAwIDEgMS40MTQgMS40MTQgTCAxNC40MTQgMTggbCA2LjI5MyA2LjI5MyBBIDEgMSAwIDAgMSAyMCAyNiBaIG0gMTAuNzA3IC0wLjI5MyBsIDcgLTcgYSAxIDEgMCAwIDAgMCAtMS40MTQgbCAtNyAtNyBhIDEgMSAwIDAgMCAtMS40MTQgMS40MTQgTCAzNS41ODYgMTggbCAtNi4yOTMgNi4yOTMgYSAxIDEgMCAxIDAgMS40MTQgMS40MTQgWiIvPiYjeGE7PC9nPiYjeGE7PC9zdmc+;" parent="izLOdk6nZkrDbWo1u9eR-7" vertex="1">
                    <mxGeometry x="-660" y="400" width="40" height="40" as="geometry"/>
                </mxCell>
                <mxCell id="izLOdk6nZkrDbWo1u9eR-38" value="Service Endpoint Policy" style="shape=image;verticalLabelPosition=middle;labelBackgroundColor=#ffffff;verticalAlign=middle;aspect=fixed;imageAspect=0;image=data:image/svg+xml,PHN2ZyB4bWxucz0iaHR0cDovL3d3dy53My5vcmcvMjAwMC9zdmciIHhtbG5zOnhsaW5rPSJodHRwOi8vd3d3LnczLm9yZy8xOTk5L3hsaW5rIiB4bWxuczpzdmc9Imh0dHA6Ly93d3cudzMub3JnLzIwMDAvc3ZnIiBjbGFzcz0iZnhzLXBvcnRhbC1zdmciIGlkPSJGeFN5bWJvbDAtMDc3IiByb2xlPSJwcmVzZW50YXRpb24iIHZpZXdCb3g9IjAgMCA1MCA1MCIgZm9jdXNhYmxlPSJmYWxzZSI+JiN4YTs8Zz4mI3hhOzx0aXRsZS8+JiN4YTs8dGl0bGU+U2VydmljZUVuZHBvaW50c1BvbGljeTwvdGl0bGU+JiN4YTs8cGF0aCBjbGFzcz0ibXNwb3J0YWxmeC1zdmctYzAxIiBmaWxsPSIjZmZmZmZmIiBkPSJNIDM1LjUgNDcgYyAtMi4yMzYgMCAtNC41IC0xLjcxNyAtNC41IC01IGEgNS44MjEgNS44MjEgMCAwIDEgMS41NDcgLTQgSCAxMCBWIDkuOSBhIDcuODI0IDcuODI0IDAgMCAxIDggLTggaCAyNS42MTQgbCAtMS43MDcgMS43MDcgQSA4LjY2MSA4LjY2MSAwIDAgMCA0MCA4LjkgViA0MSBjIDAgMi43NjggLTEuMTc5IDYgLTQuNSA2IFoiLz4mI3hhOzxwYXRoIGQ9Ik0gNDMgMSBIIDE5IEMgMTMgMSA5IDQuOSA5IDEwLjkgViAzNyBIIDcuNSBhIDUuNSA1LjUgMCAwIDAgMCAxMSBIIDM2IGMgNCAwIDUgLTQgNSAtNiBWIDguOSBoIDYuNiBhIDcuODc2IDcuODc2IDAgMCAwIDAuNCAtMi4zIEMgNDggMy41IDQ1LjggMSA0MyAxIFogbSAtNCA3LjkgViA0MiBjIDAgMiAtMC41IDQgLTMuNSA0IGMgLTEuNyAwIC0zLjUgLTEuMyAtMy41IC00IGEgNS4wMyA1LjAzIDAgMCAxIDQgLTQuOSBWIDM3IEggMTEgViA5LjkgYSA2LjgzNSA2LjgzNSAwIDAgMSA3IC03IGggMjMuMiBhIDkuNjE4IDkuNjE4IDAgMCAwIC0yLjIgNiBaIi8+JiN4YTs8cGF0aCBjbGFzcz0ibXNwb3J0YWxmeC1zdmctYzE0IiBmaWxsPSIjN2ZiYTAwIiBkPSJNIDIxIDE4IGEgMiAyIDAgMSAxIC0yIC0yIGEgMiAyIDAgMCAxIDIgMiBaIG0gMTAgLTIgYSAyIDIgMCAxIDAgMiAyIGEgMiAyIDAgMCAwIC0yIC0yIFogbSAtNS4yNSAxMy42NDggdiAtOS44IGEgMiAyIDAgMSAwIC0xLjUgMCB2IDkuOCBhIDIgMiAwIDEgMCAxLjUgMCBaIi8+JiN4YTs8cGF0aCBjbGFzcz0ibXNwb3J0YWxmeC1zdmctYzE1IiBmaWxsPSIjNTliNGQ5IiBkPSJNIDIwIDI2IGEgMSAxIDAgMCAxIC0wLjcwNyAtMC4yOTMgbCAtNyAtNyBhIDEgMSAwIDAgMSAwIC0xLjQxNCBsIDcgLTcgYSAxIDEgMCAwIDEgMS40MTQgMS40MTQgTCAxNC40MTQgMTggbCA2LjI5MyA2LjI5MyBBIDEgMSAwIDAgMSAyMCAyNiBaIG0gMTAuNzA3IC0wLjI5MyBsIDcgLTcgYSAxIDEgMCAwIDAgMCAtMS40MTQgbCAtNyAtNyBhIDEgMSAwIDAgMCAtMS40MTQgMS40MTQgTCAzNS41ODYgMTggbCAtNi4yOTMgNi4yOTMgYSAxIDEgMCAxIDAgMS40MTQgMS40MTQgWiIvPiYjeGE7PC9nPiYjeGE7PC9zdmc+;labelPosition=right;align=left;" parent="izLOdk6nZkrDbWo1u9eR-7" vertex="1">
                    <mxGeometry x="-579.99" y="400" width="40" height="40" as="geometry"/>
                </mxCell>
                <mxCell id="izLOdk6nZkrDbWo1u9eR-63" value="" style="shape=image;verticalLabelPosition=bottom;verticalAlign=top;imageAspect=0;aspect=fixed;image=data:image/svg+xml,PHN2ZyB4bWxuczpkYz0iaHR0cDovL3B1cmwub3JnL2RjL2VsZW1lbnRzLzEuMS8iIHhtbG5zOmNjPSJodHRwOi8vY3JlYXRpdmVjb21tb25zLm9yZy9ucyMiIHhtbG5zOnJkZj0iaHR0cDovL3d3dy53My5vcmcvMTk5OS8wMi8yMi1yZGYtc3ludGF4LW5zIyIgeG1sbnM6c3ZnPSJodHRwOi8vd3d3LnczLm9yZy8yMDAwL3N2ZyIgeG1sbnM9Imh0dHA6Ly93d3cudzMub3JnLzIwMDAvc3ZnIiB4bWxuczpzb2RpcG9kaT0iaHR0cDovL3NvZGlwb2RpLnNvdXJjZWZvcmdlLm5ldC9EVEQvc29kaXBvZGktMC5kdGQiIHhtbG5zOmlua3NjYXBlPSJodHRwOi8vd3d3Lmlua3NjYXBlLm9yZy9uYW1lc3BhY2VzL2lua3NjYXBlIiB3aWR0aD0iMTguMDM1MzM0bW0iIGhlaWdodD0iMTcuNTAwMzc4bW0iIHZpZXdCb3g9IjAgMCAxOC4wMzUzMzQgMTcuNTAwMzc4IiB2ZXJzaW9uPSIxLjEiIGlkPSJzdmcxMTUzMSIgaW5rc2NhcGU6dmVyc2lvbj0iMC45MSByMTM3MjUiIHNvZGlwb2RpOmRvY25hbWU9ImMtYy1tLnN2ZyI+JiN4YTsgIDxkZWZzIGlkPSJkZWZzMTE1MjUiLz4mI3hhOyAgPHNvZGlwb2RpOm5hbWVkdmlldyBpZD0iYmFzZSIgcGFnZWNvbG9yPSIjZmZmZmZmIiBib3JkZXJjb2xvcj0iIzY2NjY2NiIgYm9yZGVyb3BhY2l0eT0iMS4wIiBpbmtzY2FwZTpwYWdlb3BhY2l0eT0iMC4wIiBpbmtzY2FwZTpwYWdlc2hhZG93PSIyIiBpbmtzY2FwZTp6b29tPSI4IiBpbmtzY2FwZTpjeD0iMTYuOTY4NjIxIiBpbmtzY2FwZTpjeT0iMzMuNTA5MDgxIiBpbmtzY2FwZTpkb2N1bWVudC11bml0cz0ibW0iIGlua3NjYXBlOmN1cnJlbnQtbGF5ZXI9ImxheWVyMSIgc2hvd2dyaWQ9ImZhbHNlIiBpbmtzY2FwZTp3aW5kb3ctd2lkdGg9IjE0NDAiIGlua3NjYXBlOndpbmRvdy1oZWlnaHQ9Ijc3MSIgaW5rc2NhcGU6d2luZG93LXg9IjU1IiBpbmtzY2FwZTp3aW5kb3cteT0iMCIgaW5rc2NhcGU6d2luZG93LW1heGltaXplZD0iMCIgZml0LW1hcmdpbi10b3A9IjAiIGZpdC1tYXJnaW4tbGVmdD0iMCIgZml0LW1hcmdpbi1yaWdodD0iMCIgZml0LW1hcmdpbi1ib3R0b209IjAiLz4mI3hhOyAgPG1ldGFkYXRhIGlkPSJtZXRhZGF0YTExNTI4Ij4mI3hhOyAgICA8cmRmOlJERj4mI3hhOyAgICAgIDxjYzpXb3JrIHJkZjphYm91dD0iIj4mI3hhOyAgICAgICAgPGRjOmZvcm1hdD5pbWFnZS9zdmcreG1sPC9kYzpmb3JtYXQ+JiN4YTsgICAgICAgIDxkYzp0eXBlIHJkZjpyZXNvdXJjZT0iaHR0cDovL3B1cmwub3JnL2RjL2RjbWl0eXBlL1N0aWxsSW1hZ2UiLz4mI3hhOyAgICAgICAgPGRjOnRpdGxlLz4mI3hhOyAgICAgIDwvY2M6V29yaz4mI3hhOyAgICA8L3JkZjpSREY+JiN4YTsgIDwvbWV0YWRhdGE+JiN4YTsgIDxnIGlua3NjYXBlOmxhYmVsPSJDYWxxdWUgMSIgaW5rc2NhcGU6Z3JvdXBtb2RlPSJsYXllciIgaWQ9ImxheWVyMSIgdHJhbnNmb3JtPSJ0cmFuc2xhdGUoLTAuOTkyNjI2MzgsLTEuMTc0MTgxKSI+JiN4YTsgICAgPGcgaWQ9Imc3MCIgdHJhbnNmb3JtPSJtYXRyaXgoMS4wMTQ4ODg3LDAsMCwxLjAxNDg4ODcsMTYuOTAyMTQ2LC0yLjY5ODcyNikiPiYjeGE7ICAgICAgPHBhdGggaW5rc2NhcGU6ZXhwb3J0LXlkcGk9IjI1MC41NSIgaW5rc2NhcGU6ZXhwb3J0LXhkcGk9IjI1MC41NSIgaW5rc2NhcGU6ZXhwb3J0LWZpbGVuYW1lPSJuZXcucG5nIiBpbmtzY2FwZTpjb25uZWN0b3ItY3VydmF0dXJlPSIwIiBpZD0icGF0aDMwNTUiIGQ9Im0gLTYuODQ5MjAxNSw0LjI3MjQ2NjggYSAxLjExOTEyNTUsMS4xMDk5NjcxIDAgMCAwIC0wLjQyODg4MTgsMC4xMDg1MzAzIGwgLTUuODUyNDAzNywyLjc5NjMzOTQgYSAxLjExOTEyNTUsMS4xMDk5NjcxIDAgMCAwIC0wLjYwNTUyNCwwLjc1Mjk3NTkgbCAtMS40NDM4MjgsNi4yODEyODQ2IGEgMS4xMTkxMjU1LDEuMTA5OTY3MSAwIDAgMCAwLjE1MTk0MywwLjg1MTAyOCAxLjExOTEyNTUsMS4xMDk5NjcxIDAgMCAwIDAuMDYzNjIsMC4wODgzMiBsIDQuMDUwOCw1LjAzNjU1NSBhIDEuMTE5MTI1NSwxLjEwOTk2NzEgMCAwIDAgMC44NzQ5NzksMC40MTc2NTQgbCA2LjQ5NjEwMTEsLTAuMDAxNSBhIDEuMTE5MTI1NSwxLjEwOTk2NzEgMCAwIDAgMC44NzQ5Nzg4LC0wLjQxNjkwNiBMIDEuMzgxODg3MiwxNS4xNDk0NTMgQSAxLjExOTEyNTUsMS4xMDk5NjcxIDAgMCAwIDEuNTk4MTk4NiwxNC4yMTAxMDQgTCAwLjE1MjEyNjU3LDcuOTI4ODE1NCBBIDEuMTE5MTI1NSwxLjEwOTk2NzEgMCAwIDAgLTAuNDUzMzk3OTQsNy4xNzU4Mzk2IEwgLTYuMzA2NTQ5Niw0LjM4MDk5NzEgQSAxLjExOTEyNTUsMS4xMDk5NjcxIDAgMCAwIC02Ljg0OTIwMTUsNC4yNzI0NjY4IFoiIHN0eWxlPSJmaWxsOiMzMjZjZTU7ZmlsbC1vcGFjaXR5OjE7c3Ryb2tlOm5vbmU7c3Ryb2tlLXdpZHRoOjA7c3Ryb2tlLW1pdGVybGltaXQ6NDtzdHJva2UtZGFzaGFycmF5Om5vbmU7c3Ryb2tlLW9wYWNpdHk6MSIvPiYjeGE7ICAgICAgPHBhdGggaWQ9InBhdGgzMDU0LTItOSIgZD0iTSAtNi44NTIzNDM1LDMuODE3NjM3MiBBIDEuMTgxNDMwNCwxLjE3MTc2MiAwIDAgMCAtNy4zMDQ0Mjg0LDMuOTMyOTA0IGwgLTYuMTc4NzQyNiwyLjk1MTI3NTggYSAxLjE4MTQzMDQsMS4xNzE3NjIgMCAwIDAgLTAuNjM5MjA2LDAuNzk0ODkxIGwgLTEuNTIzOTE1LDYuNjMwODI4MiBhIDEuMTgxNDMwNCwxLjE3MTc2MiAwIDAgMCAwLjE2MDE3NSwwLjg5ODkzIDEuMTgxNDMwNCwxLjE3MTc2MiAwIDAgMCAwLjA2NzM2LDAuMDkyODEgbCA0LjI3NjA5NCw1LjMxNzIzNiBhIDEuMTgxNDMwNCwxLjE3MTc2MiAwIDAgMCAwLjkyMzYzLDAuNDQwODU4IGwgNi44NTc2MTg4LC0wLjAwMTUgYSAxLjE4MTQzMDQsMS4xNzE3NjIgMCAwIDAgMC45MjM2MzA4LC0wLjQ0MDExIGwgNC4yNzQ1OTY2LC01LjMxNzk4NSBhIDEuMTgxNDMwNCwxLjE3MTc2MiAwIDAgMCAwLjIyODI4OCwtMC45OTA5OTMgTCAwLjUzODk0NDM5LDcuNjc3NTczOCBBIDEuMTgxNDMwNCwxLjE3MTc2MiAwIDAgMCAtMC4xMDAyNjEwMSw2Ljg4MzQzMTMgTCAtNi4yNzkwMDM3LDMuOTMyMTU1NSBBIDEuMTgxNDMwNCwxLjE3MTc2MiAwIDAgMCAtNi44NTIzNDM1LDMuODE3NjM3MiBaIG0gMC4wMDI5OSwwLjQ1NTA3ODkgYSAxLjExOTEyNTUsMS4xMDk5NjcxIDAgMCAxIDAuNTQyNjUxNywwLjEwODUzMDMgbCA1Ljg1MzE1MTY5LDIuNzk0ODQyNSBBIDEuMTE5MTI1NSwxLjEwOTk2NzEgMCAwIDEgMC4xNTE5NzgxMSw3LjkyOTA2NDggTCAxLjU5ODA1MSwxNC4yMTAzNSBhIDEuMTE5MTI1NSwxLjEwOTk2NzEgMCAwIDEgLTAuMjE2MzEyMywwLjkzOTM0OCBsIC00LjA0OTMwMzIsNS4wMzczMDQgYSAxLjExOTEyNTUsMS4xMDk5NjcxIDAgMCAxIC0wLjg3NDk3ODksMC40MTY5MDYgbCAtNi40OTYxMDA2LDAuMDAxNSBhIDEuMTE5MTI1NSwxLjEwOTk2NzEgMCAwIDEgLTAuODc0OTc5LC0wLjQxNzY1MiBsIC00LjA1MDgsLTUuMDM2NTU0IGEgMS4xMTkxMjU1LDEuMTA5OTY3MSAwIDAgMSAtMC4wNjM2MiwtMC4wODgzMiAxLjExOTEyNTUsMS4xMDk5NjcxIDAgMCAxIC0wLjE1MTk0MiwtMC44NTEwMjggbCAxLjQ0MzgyNywtNi4yODEyODUzIGEgMS4xMTkxMjU1LDEuMTA5OTY3MSAwIDAgMSAwLjYwNTUyNCwtMC43NTI5NzU4IGwgNS44NTI0MDM2LC0yLjc5NjMzOTUgYSAxLjExOTEyNTUsMS4xMDk5NjcxIDAgMCAxIDAuNDI4ODgxOSwtMC4xMDg1MzAzIHoiIHN0eWxlPSJjb2xvcjojMDAwMDAwO2ZvbnQtc3R5bGU6bm9ybWFsO2ZvbnQtdmFyaWFudDpub3JtYWw7Zm9udC13ZWlnaHQ6bm9ybWFsO2ZvbnQtc3RyZXRjaDpub3JtYWw7Zm9udC1zaXplOm1lZGl1bTtsaW5lLWhlaWdodDpub3JtYWw7Zm9udC1mYW1pbHk6U2FuczstaW5rc2NhcGUtZm9udC1zcGVjaWZpY2F0aW9uOlNhbnM7dGV4dC1pbmRlbnQ6MDt0ZXh0LWFsaWduOnN0YXJ0O3RleHQtZGVjb3JhdGlvbjpub25lO3RleHQtZGVjb3JhdGlvbi1saW5lOm5vbmU7bGV0dGVyLXNwYWNpbmc6bm9ybWFsO3dvcmQtc3BhY2luZzpub3JtYWw7dGV4dC10cmFuc2Zvcm06bm9uZTt3cml0aW5nLW1vZGU6bHItdGI7ZGlyZWN0aW9uOmx0cjtiYXNlbGluZS1zaGlmdDpiYXNlbGluZTt0ZXh0LWFuY2hvcjpzdGFydDtkaXNwbGF5OmlubGluZTtvdmVyZmxvdzp2aXNpYmxlO3Zpc2liaWxpdHk6dmlzaWJsZTtmaWxsOiNmZmZmZmY7ZmlsbC1vcGFjaXR5OjE7ZmlsbC1ydWxlOm5vbnplcm87c3Ryb2tlOm5vbmU7c3Ryb2tlLXdpZHRoOjA7c3Ryb2tlLW1pdGVybGltaXQ6NDtzdHJva2UtZGFzaGFycmF5Om5vbmU7bWFya2VyOm5vbmU7ZW5hYmxlLWJhY2tncm91bmQ6YWNjdW11bGF0ZSIgaW5rc2NhcGU6Y29ubmVjdG9yLWN1cnZhdHVyZT0iMCIvPiYjeGE7ICAgIDwvZz4mI3hhOyAgICA8dGV4dCBpZD0idGV4dDIwNjYiIHk9IjE2LjgxMTc3NSIgeD0iMTAuMDQ3NTAxIiBzdHlsZT0iZm9udC1zdHlsZTpub3JtYWw7Zm9udC13ZWlnaHQ6bm9ybWFsO2ZvbnQtc2l6ZToxMC41ODMzMzMwMnB4O2xpbmUtaGVpZ2h0OjYuNjE0NTgzNDlweDtmb250LWZhbWlseTpTYW5zO2xldHRlci1zcGFjaW5nOjBweDt3b3JkLXNwYWNpbmc6MHB4O2ZpbGw6I2ZmZmZmZjtmaWxsLW9wYWNpdHk6MTtzdHJva2U6bm9uZTtzdHJva2Utd2lkdGg6MC4yNjQ1ODMzMnB4O3N0cm9rZS1saW5lY2FwOmJ1dHQ7c3Ryb2tlLWxpbmVqb2luOm1pdGVyO3N0cm9rZS1vcGFjaXR5OjEiIHhtbDpzcGFjZT0icHJlc2VydmUiPjx0c3BhbiBzdHlsZT0iZm9udC1zdHlsZTpub3JtYWw7Zm9udC12YXJpYW50Om5vcm1hbDtmb250LXdlaWdodDpub3JtYWw7Zm9udC1zdHJldGNoOm5vcm1hbDtmb250LXNpemU6Mi44MjIyMjIyM3B4O2ZvbnQtZmFtaWx5OkFyaWFsOy1pbmtzY2FwZS1mb250LXNwZWNpZmljYXRpb246J0FyaWFsLCBOb3JtYWwnO3RleHQtYWxpZ246Y2VudGVyO3dyaXRpbmctbW9kZTpsci10Yjt0ZXh0LWFuY2hvcjptaWRkbGU7ZmlsbDojZmZmZmZmO2ZpbGwtb3BhY2l0eToxO3N0cm9rZS13aWR0aDowLjI2NDU4MzMycHgiIHk9IjE2LjgxMTc3NSIgeD0iMTAuMDQ3NTAxIiBpZD0idHNwYW4yMDY0IiBzb2RpcG9kaTpyb2xlPSJsaW5lIj5jLWMtbTwvdHNwYW4+PC90ZXh0PiYjeGE7ICAgIDxwYXRoIGlkPSJwYXRoMTk4NCIgZD0ibSA5Ljk5MjI1NzQsNC40NDY5OTI1IGMgLTAuMTM4MzIzNCwtMC4wMDQ0IC0zLjk5NTMxMzksMS44OTE3NzkxIC00LjA0NTc0MjksMS45ODkwMjQxIC0wLjEyMTE1MywwLjIzMzY4MiAtMC45OTg4MDIsNC4yODE0Nzg0IC0wLjk0NzIzNSw0LjM2ODcyNDQgMC4wMywwLjA1MDY1IDAuNjYyMTk5LDAuODUyMzA1IDEuNDA0NTY3LDEuNzgwNzcxIGwgMS4zNDk3OTgsMS42ODc3NTQgMi4yMjE1NzQzLDAuMDAxMSAyLjIyMTU3MjIsMC4wMDExIDEuNDEyODE5LC0xLjc2NTc4NCAxLjQxMzg4LC0xLjc2NTI2NSAtMC40OTQ1NiwtMi4xNjg4NjA3IEMgMTQuMjU2NzMsNy4zODI4MTU1IDE0LjAxMzI5LDYuMzg3Mjc1NiAxMy45ODg0Miw2LjM2MzI4NTYgMTMuOTE4OTIsNi4yOTY0MDU2IDEwLjA2NzI0LDQuNDQ5NTQ2NSA5Ljk5MjI1NzQsNC40NDcxMjU1IFogbSAwLjIzNjE2NjYsMS45ODI4MjQxIGMgMC4xODY2MzcsMC4wMDggMC4yMDU3OTIsMC4yOTE1NzEgMC42MDUxMjgsMC4zMjE0MjcgMC41MjE2LDAuMDM5IDAuNDY1NTA4LC0wLjQ0NjY1MSAwLjg2NDU1MywtMC4xMDg1MjIgMC4zOTkwNDQsMC4zMzgxMjUgLTAuMDg4OSwwLjM2MjY0MSAwLjAzNTE0LDAuODcwNzQ5IDAuMTI0MDksMC41MDgxMDQxIDAuNTY4ODAxLDAuMzA1MDk5MSAwLjM3MDUyMywwLjc4OTA5ODcgLTAuMTk4Mjc5LDAuNDg0MDAyIC0wLjM3MjYxMywwLjAyNzI4IC0wLjgxNzUxLDAuMzAyMzA4IC0wLjQ0NDg5NywwLjI3NTAyMyAtMC4xMTQ1NjQsMC42MzUzNDYgLTAuNjM2MTM4LDAuNTk2MzQ3IC0wLjUyMTY1MiwtMC4wMzkgLTAuMTQwNDY3LC0wLjM0NjA2NSAtMC41Mzk1MSwtMC42ODQxOTcgQyA5LjcxMTU2Niw4LjE3ODg5NTUgOS40NzAzNzE4LDguNjA0NDg3MyA5LjM0NjMwODgsOC4wOTYzNzk3IDkuMjIyMjE4OCw3LjU4ODI3MTYgOS42MzIyNDQsNy44NTUzNjI1IDkuODMwNTIzLDcuMzcxMzYwNyAxMC4wMjkyMjQsNi44ODczMTM2IDkuNTQ5NDI4OCw2Ljc5MDEwNzYgOS45OTQzNTI0LDYuNTE1MDgxNiBjIDAuMDU1NjQsLTAuMDM0MzQgMC4xMDE4OTA2LC0wLjA1Njg4IDAuMTQyMTA1NiwtMC4wNzAyOCAwLjAzNTA4LC0wLjAxMTY3IDAuMDY1MzMsLTAuMDE2MTQgMC4wOTE5NywtMC4wMTQ5NyB6IG0gMC41MjE0OTMsMC41NzIwNTkgYyAtMC4wNzU3OCwtNS4zMDZlLTQgLTAuMTUxMjA5LDAuMDEwMjEgLTAuMjIzNzU4LDAuMDMyMDQgLTAuNDAwMzkzLDAuMTIwNzMyIC0wLjYyNjk1NCwwLjU0MzMyMTkgLTAuNTA1OTA5LDAuOTQzNjEzIDAuMTIwOTQsMC4zOTk5MTk3IDAuNTQzMTEsMC42MjYxNDg3IDAuOTQzMTA3LDAuNTA1MzkzNyAwLjM5OTgzOCwtMC4xMjA3NDYgMC42MjYyNjgsLTAuNTQyNjEwNyAwLjUwNTkwOSwtMC45NDI1Nzg4IEMgMTEuMzczNTE2LDcuMjIyNTIzNiAxMS4wODE4MzcsNy4wMDQxODk2IDEwLjc0OTkxNyw3LjAwMTg3NzYgWiBNIDcuNzU3MjY5NSw4LjMwMzYwMzMgYyAwLjAzOTY5LDcuOWUtNCAwLjA4ODMyLDAuMDA5IDAuMTQ4Mjk5MSwwLjAyNzM5IDAuNDc5OTI3OSwwLjE0NzEzOCAtMC4wMDc3LDAuMzk5NTAzIDAuMzM0MzU0LDAuNzY2ODc5IDAuMzQyMDUzMSwwLjM2NzM3NyAwLjYyODUxODIsLTAuMTAxMDg2IDAuNzQxMDQ1MiwwLjM4ODA5MSAwLjExMjUyNywwLjQ4OTE3NzcgLTAuMzQ5OTkxMywwLjE5MjkyMSAtMC40OTcxMjYxLDAuNjcyODI3NyAtMC4xNDcxNjEyLDAuNDc5OTA0IDAuNDAxNDc5MSwwLjQ5NDA4MyAwLjAzNDExLDAuODM2MTIzIC0wLjM2NzM3NCwwLjM0MjA0MSAtMC4zNDE4MTUxLC0wLjIwNjA2IC0wLjgzMDk1MDEsLTAuMDkzNTMgLTAuNDg5MTg4LDAuMTEyNTI3IC0wLjIyNzAzOSwwLjU5NDY1NCAtMC43MDY5NCwwLjQ0NzUxNiAtMC40Nzk5MjgsLTAuMTQ3MTM3IDAuMDA3NywtMC4zOTk1IC0wLjMzNDM1NCwtMC43NjY4NzYgLTAuMzQyMDU0LC0wLjM2NzM3OSAtMC42Mjg1MTgsMC4xMDA1NzEgLTAuNzQxMDQ1LC0wLjM4ODYwNyAtMC4xMTI1MjgsLTAuNDg5MTggMC4zNDk5OTEsLTAuMTkyOTI0IDAuNDk3MTI1LC0wLjY3MjgyNjcgMC4xNDcxNjIsLTAuNDc5OTA3IC0wLjQwMTk4MSwtMC40OTM1NyAtMC4wMzQ2MSwtMC44MzU2MSAwLjM2NzM3NCwtMC4zNDIwNDMgMC4zNDIyOTEsMC4yMDYwNjUgMC44MzE0NTMsMC4wOTM1NCAwLjQyODA0MywtMC4wOTg0NiAwLjI4MDY0MywtMC40Nzk2MDcgMC41NTg2NDEsLTAuNDc0OTA2IHogbSAzLjU2NzIxNjUsMC41MjQ1MTYgYyAwLjA0NTUxLDUuMzZlLTQgMC4xMDA4MDcsMC4wMTI0MyAwLjE3MDAyMiwwLjAzOTI3IDAuNTUzMjcsMC4yMTQ3MzkgLTAuMTc1MjM0LDAuNTQ1ODk0IDAuMjUzNzM1LDAuOTU2MDEzNyAwLjQyODk2OSwwLjQxMDExOCAwLjcyNzQ3MiwtMC4zMzI3NDE3IDAuOTY2ODY3LDAuMjEwMzIzIDAuMjM5MzY5LDAuNTQzMDY1IC0wLjUxMDQzNCwwLjI2MjQzMiAtMC40OTcxMjYsMC44NTU3NjMgMC4wMTMyMywwLjU5MzMzMSAwLjc0OTU5MSwwLjI3ODcyIDAuNTM0ODI5LDAuODMxOTkgLTAuMjE0NzA5LDAuNTUzMjY4IC0wLjU0NTg4OCwtMC4xNzUyNDcgLTAuOTU1OTkyLDAuMjUzNzMgLTAuNDEwMTMxLDAuNDI4OTc3IDAuMzMyMjEsMC43MjY5NzIgLTAuMjEwODQ3LDAuOTY2MzQ4IC0wLjU0MzA1NywwLjIzOTM4IC0wLjI2MTM4MiwtMC41MDk5MzkgLTAuODU0NzM2LC0wLjQ5NjYwOSAtMC41OTMzMjgsMC4wMTMzMyAtMC4yNzkyMTUsMC43NDkwNzIgLTAuODMyNTEsMC41MzQzMzQgQyA5LjM0NTQ4NDgsMTIuNzY0NTQzIDEwLjA3Mzk4NywxMi40MzMzODggOS42NDQ5OTMsMTIuMDIzMjY4IDkuMjE2MDIzOCwxMS42MTMxNDggOC45MTgwMjM4LDEyLjM1NjAwOCA4LjY3ODY1NDYsMTEuODEyOTQ1IDguNDM5Mjg2NywxMS4yNjk4OCA5LjE4ODU1OTgsMTEuNTUxMDMyIDkuMTc1Mjc3OCwxMC45NTc3MDEgOS4xNjE3ODc4LDEwLjM2NDM3IDguNDI1Njg2NywxMC42Nzg0NjIgOC42NDA0MjI1LDEwLjEyNTE5MiA4Ljg1NTE1ODgsOS41NzE5MjIzIDkuMTg2ODEzOCwxMC4zMDA5NTUgOS41OTY5NDUsOS44NzE5NzggMTAuMDA3MDQ4LDkuNDQzMDAxMyA5LjI2NDE3NzgsOS4xNDQ0OTAzIDkuODA3MjYyLDguOTA1MTE0MyBjIDAuNTQzMDU1LC0wLjIzOTM3NyAwLjI2MTkxLDAuNTA5OTM5IDAuODU1MjM3LDAuNDk2NjA5IDAuNTE5MTkyLC0wLjAxMTY3IDAuMzQzNDI5LC0wLjU3NjQwOCAwLjY2MTk4NywtMC41NzM2MDggeiBtIC0zLjg4MTQwOTUsMC4yNTUyOCBjIC0wLjQxNzk4OCwtMS41OGUtNCAtMC43NTY5NDYsMC4zMzg1NjQgLTAuNzU3MDc4LDAuNzU2NTQ0NyAtMS41OWUtNCwwLjQxODE4MiAwLjMzODkwNSwwLjc1NzIxOSAwLjc1NzA3OCwwLjc1NzA2IDAuNDE3OTYzMSwtMS40OGUtNCAwLjc1NjY4MiwtMC4zMzkwOTUgMC43NTY1MjM5LC0wLjc1NzA2IEMgOC4xOTk0Njc1LDkuNDIyMTgwMyA3Ljg2MDgyNzYsOS4wODM1NDczIDcuNDQzMDc2NSw5LjA4MzM5OTMgWiBNIDEwLjY5NjYzLDkuODA4NDIxIGMgLTAuNjE1Njg0LDQuMmUtNSAtMS4xMTQ4NDYsMC40OTg5ODMgLTEuMTE1MTksMS4xMTQ2NjEgLTIuMzhlLTQsMC42MTYwODIgMC40OTkxMDksMS4xMTU2NSAxLjExNTE5LDEuMTE1NjkyIDAuNjE2MjY4LDIuMjJlLTQgMS4xMTU5MDcsLTAuNDk5NDI1IDEuMTE1NjY5LC0xLjExNTY5MiAwLC0wLjYxNTg2NiAtMC40OTk3OTgsLTEuMTE0ODgzIC0xLjExNTY2OSwtMS4xMTQ2NjEgeiIgc3R5bGU9Im9wYWNpdHk6MTtmaWxsOiNmZmZmZmY7ZmlsbC1vcGFjaXR5OjE7c3Ryb2tlOiNlZWVlZWU7c3Ryb2tlLXdpZHRoOjA7c3Ryb2tlLW1pdGVybGltaXQ6MTA7c3Ryb2tlLWRhc2hhcnJheTpub25lO3N0cm9rZS1kYXNob2Zmc2V0OjExLjIzNjQyMzQ5O3N0cm9rZS1vcGFjaXR5OjEiIGlua3NjYXBlOmNvbm5lY3Rvci1jdXJ2YXR1cmU9IjAiIHNvZGlwb2RpOm5vZGV0eXBlcz0iY2NjY2NjY2NjY2NjY3NjY2NjY3NjY2NjY2NjY2NjY2NjY3Njc2NjY2NjY2NjY2NjY2NjY2NjY2NjY3NjY2NjY2NjY2NjY2NjYyIvPiYjeGE7ICA8L2c+JiN4YTs8L3N2Zz4=;strokeColor=#3999c6;fillColor=none;fontSize=12;align=center;html=1;" parent="izLOdk6nZkrDbWo1u9eR-7" vertex="1">
                    <mxGeometry x="-660" y="520" width="40" height="40" as="geometry"/>
                </mxCell>
                <mxCell id="izLOdk6nZkrDbWo1u9eR-64" value="AGIC" style="shape=image;verticalLabelPosition=middle;verticalAlign=middle;imageAspect=0;aspect=fixed;image=data:image/svg+xml,PHN2ZyB4bWxuczpkYz0iaHR0cDovL3B1cmwub3JnL2RjL2VsZW1lbnRzLzEuMS8iIHhtbG5zOmNjPSJodHRwOi8vY3JlYXRpdmVjb21tb25zLm9yZy9ucyMiIHhtbG5zOnJkZj0iaHR0cDovL3d3dy53My5vcmcvMTk5OS8wMi8yMi1yZGYtc3ludGF4LW5zIyIgeG1sbnM6c3ZnPSJodHRwOi8vd3d3LnczLm9yZy8yMDAwL3N2ZyIgeG1sbnM9Imh0dHA6Ly93d3cudzMub3JnLzIwMDAvc3ZnIiB4bWxuczpzb2RpcG9kaT0iaHR0cDovL3NvZGlwb2RpLnNvdXJjZWZvcmdlLm5ldC9EVEQvc29kaXBvZGktMC5kdGQiIHhtbG5zOmlua3NjYXBlPSJodHRwOi8vd3d3Lmlua3NjYXBlLm9yZy9uYW1lc3BhY2VzL2lua3NjYXBlIiB3aWR0aD0iMTguMDM1MzM0bW0iIGhlaWdodD0iMTcuNTAwMzc4bW0iIHZpZXdCb3g9IjAgMCAxOC4wMzUzMzQgMTcuNTAwMzc4IiB2ZXJzaW9uPSIxLjEiIGlkPSJzdmcxMTUzMSIgaW5rc2NhcGU6dmVyc2lvbj0iMC45MSByMTM3MjUiIHNvZGlwb2RpOmRvY25hbWU9ImMtYy1tLnN2ZyI+JiN4YTsgIDxkZWZzIGlkPSJkZWZzMTE1MjUiLz4mI3hhOyAgPHNvZGlwb2RpOm5hbWVkdmlldyBpZD0iYmFzZSIgcGFnZWNvbG9yPSIjZmZmZmZmIiBib3JkZXJjb2xvcj0iIzY2NjY2NiIgYm9yZGVyb3BhY2l0eT0iMS4wIiBpbmtzY2FwZTpwYWdlb3BhY2l0eT0iMC4wIiBpbmtzY2FwZTpwYWdlc2hhZG93PSIyIiBpbmtzY2FwZTp6b29tPSI4IiBpbmtzY2FwZTpjeD0iMTYuOTY4NjIxIiBpbmtzY2FwZTpjeT0iMzMuNTA5MDgxIiBpbmtzY2FwZTpkb2N1bWVudC11bml0cz0ibW0iIGlua3NjYXBlOmN1cnJlbnQtbGF5ZXI9ImxheWVyMSIgc2hvd2dyaWQ9ImZhbHNlIiBpbmtzY2FwZTp3aW5kb3ctd2lkdGg9IjE0NDAiIGlua3NjYXBlOndpbmRvdy1oZWlnaHQ9Ijc3MSIgaW5rc2NhcGU6d2luZG93LXg9IjU1IiBpbmtzY2FwZTp3aW5kb3cteT0iMCIgaW5rc2NhcGU6d2luZG93LW1heGltaXplZD0iMCIgZml0LW1hcmdpbi10b3A9IjAiIGZpdC1tYXJnaW4tbGVmdD0iMCIgZml0LW1hcmdpbi1yaWdodD0iMCIgZml0LW1hcmdpbi1ib3R0b209IjAiLz4mI3hhOyAgPG1ldGFkYXRhIGlkPSJtZXRhZGF0YTExNTI4Ij4mI3hhOyAgICA8cmRmOlJERj4mI3hhOyAgICAgIDxjYzpXb3JrIHJkZjphYm91dD0iIj4mI3hhOyAgICAgICAgPGRjOmZvcm1hdD5pbWFnZS9zdmcreG1sPC9kYzpmb3JtYXQ+JiN4YTsgICAgICAgIDxkYzp0eXBlIHJkZjpyZXNvdXJjZT0iaHR0cDovL3B1cmwub3JnL2RjL2RjbWl0eXBlL1N0aWxsSW1hZ2UiLz4mI3hhOyAgICAgICAgPGRjOnRpdGxlLz4mI3hhOyAgICAgIDwvY2M6V29yaz4mI3hhOyAgICA8L3JkZjpSREY+JiN4YTsgIDwvbWV0YWRhdGE+JiN4YTsgIDxnIGlua3NjYXBlOmxhYmVsPSJDYWxxdWUgMSIgaW5rc2NhcGU6Z3JvdXBtb2RlPSJsYXllciIgaWQ9ImxheWVyMSIgdHJhbnNmb3JtPSJ0cmFuc2xhdGUoLTAuOTkyNjI2MzgsLTEuMTc0MTgxKSI+JiN4YTsgICAgPGcgaWQ9Imc3MCIgdHJhbnNmb3JtPSJtYXRyaXgoMS4wMTQ4ODg3LDAsMCwxLjAxNDg4ODcsMTYuOTAyMTQ2LC0yLjY5ODcyNikiPiYjeGE7ICAgICAgPHBhdGggaW5rc2NhcGU6ZXhwb3J0LXlkcGk9IjI1MC41NSIgaW5rc2NhcGU6ZXhwb3J0LXhkcGk9IjI1MC41NSIgaW5rc2NhcGU6ZXhwb3J0LWZpbGVuYW1lPSJuZXcucG5nIiBpbmtzY2FwZTpjb25uZWN0b3ItY3VydmF0dXJlPSIwIiBpZD0icGF0aDMwNTUiIGQ9Im0gLTYuODQ5MjAxNSw0LjI3MjQ2NjggYSAxLjExOTEyNTUsMS4xMDk5NjcxIDAgMCAwIC0wLjQyODg4MTgsMC4xMDg1MzAzIGwgLTUuODUyNDAzNywyLjc5NjMzOTQgYSAxLjExOTEyNTUsMS4xMDk5NjcxIDAgMCAwIC0wLjYwNTUyNCwwLjc1Mjk3NTkgbCAtMS40NDM4MjgsNi4yODEyODQ2IGEgMS4xMTkxMjU1LDEuMTA5OTY3MSAwIDAgMCAwLjE1MTk0MywwLjg1MTAyOCAxLjExOTEyNTUsMS4xMDk5NjcxIDAgMCAwIDAuMDYzNjIsMC4wODgzMiBsIDQuMDUwOCw1LjAzNjU1NSBhIDEuMTE5MTI1NSwxLjEwOTk2NzEgMCAwIDAgMC44NzQ5NzksMC40MTc2NTQgbCA2LjQ5NjEwMTEsLTAuMDAxNSBhIDEuMTE5MTI1NSwxLjEwOTk2NzEgMCAwIDAgMC44NzQ5Nzg4LC0wLjQxNjkwNiBMIDEuMzgxODg3MiwxNS4xNDk0NTMgQSAxLjExOTEyNTUsMS4xMDk5NjcxIDAgMCAwIDEuNTk4MTk4NiwxNC4yMTAxMDQgTCAwLjE1MjEyNjU3LDcuOTI4ODE1NCBBIDEuMTE5MTI1NSwxLjEwOTk2NzEgMCAwIDAgLTAuNDUzMzk3OTQsNy4xNzU4Mzk2IEwgLTYuMzA2NTQ5Niw0LjM4MDk5NzEgQSAxLjExOTEyNTUsMS4xMDk5NjcxIDAgMCAwIC02Ljg0OTIwMTUsNC4yNzI0NjY4IFoiIHN0eWxlPSJmaWxsOiMzMjZjZTU7ZmlsbC1vcGFjaXR5OjE7c3Ryb2tlOm5vbmU7c3Ryb2tlLXdpZHRoOjA7c3Ryb2tlLW1pdGVybGltaXQ6NDtzdHJva2UtZGFzaGFycmF5Om5vbmU7c3Ryb2tlLW9wYWNpdHk6MSIvPiYjeGE7ICAgICAgPHBhdGggaWQ9InBhdGgzMDU0LTItOSIgZD0iTSAtNi44NTIzNDM1LDMuODE3NjM3MiBBIDEuMTgxNDMwNCwxLjE3MTc2MiAwIDAgMCAtNy4zMDQ0Mjg0LDMuOTMyOTA0IGwgLTYuMTc4NzQyNiwyLjk1MTI3NTggYSAxLjE4MTQzMDQsMS4xNzE3NjIgMCAwIDAgLTAuNjM5MjA2LDAuNzk0ODkxIGwgLTEuNTIzOTE1LDYuNjMwODI4MiBhIDEuMTgxNDMwNCwxLjE3MTc2MiAwIDAgMCAwLjE2MDE3NSwwLjg5ODkzIDEuMTgxNDMwNCwxLjE3MTc2MiAwIDAgMCAwLjA2NzM2LDAuMDkyODEgbCA0LjI3NjA5NCw1LjMxNzIzNiBhIDEuMTgxNDMwNCwxLjE3MTc2MiAwIDAgMCAwLjkyMzYzLDAuNDQwODU4IGwgNi44NTc2MTg4LC0wLjAwMTUgYSAxLjE4MTQzMDQsMS4xNzE3NjIgMCAwIDAgMC45MjM2MzA4LC0wLjQ0MDExIGwgNC4yNzQ1OTY2LC01LjMxNzk4NSBhIDEuMTgxNDMwNCwxLjE3MTc2MiAwIDAgMCAwLjIyODI4OCwtMC45OTA5OTMgTCAwLjUzODk0NDM5LDcuNjc3NTczOCBBIDEuMTgxNDMwNCwxLjE3MTc2MiAwIDAgMCAtMC4xMDAyNjEwMSw2Ljg4MzQzMTMgTCAtNi4yNzkwMDM3LDMuOTMyMTU1NSBBIDEuMTgxNDMwNCwxLjE3MTc2MiAwIDAgMCAtNi44NTIzNDM1LDMuODE3NjM3MiBaIG0gMC4wMDI5OSwwLjQ1NTA3ODkgYSAxLjExOTEyNTUsMS4xMDk5NjcxIDAgMCAxIDAuNTQyNjUxNywwLjEwODUzMDMgbCA1Ljg1MzE1MTY5LDIuNzk0ODQyNSBBIDEuMTE5MTI1NSwxLjEwOTk2NzEgMCAwIDEgMC4xNTE5NzgxMSw3LjkyOTA2NDggTCAxLjU5ODA1MSwxNC4yMTAzNSBhIDEuMTE5MTI1NSwxLjEwOTk2NzEgMCAwIDEgLTAuMjE2MzEyMywwLjkzOTM0OCBsIC00LjA0OTMwMzIsNS4wMzczMDQgYSAxLjExOTEyNTUsMS4xMDk5NjcxIDAgMCAxIC0wLjg3NDk3ODksMC40MTY5MDYgbCAtNi40OTYxMDA2LDAuMDAxNSBhIDEuMTE5MTI1NSwxLjEwOTk2NzEgMCAwIDEgLTAuODc0OTc5LC0wLjQxNzY1MiBsIC00LjA1MDgsLTUuMDM2NTU0IGEgMS4xMTkxMjU1LDEuMTA5OTY3MSAwIDAgMSAtMC4wNjM2MiwtMC4wODgzMiAxLjExOTEyNTUsMS4xMDk5NjcxIDAgMCAxIC0wLjE1MTk0MiwtMC44NTEwMjggbCAxLjQ0MzgyNywtNi4yODEyODUzIGEgMS4xMTkxMjU1LDEuMTA5OTY3MSAwIDAgMSAwLjYwNTUyNCwtMC43NTI5NzU4IGwgNS44NTI0MDM2LC0yLjc5NjMzOTUgYSAxLjExOTEyNTUsMS4xMDk5NjcxIDAgMCAxIDAuNDI4ODgxOSwtMC4xMDg1MzAzIHoiIHN0eWxlPSJjb2xvcjojMDAwMDAwO2ZvbnQtc3R5bGU6bm9ybWFsO2ZvbnQtdmFyaWFudDpub3JtYWw7Zm9udC13ZWlnaHQ6bm9ybWFsO2ZvbnQtc3RyZXRjaDpub3JtYWw7Zm9udC1zaXplOm1lZGl1bTtsaW5lLWhlaWdodDpub3JtYWw7Zm9udC1mYW1pbHk6U2FuczstaW5rc2NhcGUtZm9udC1zcGVjaWZpY2F0aW9uOlNhbnM7dGV4dC1pbmRlbnQ6MDt0ZXh0LWFsaWduOnN0YXJ0O3RleHQtZGVjb3JhdGlvbjpub25lO3RleHQtZGVjb3JhdGlvbi1saW5lOm5vbmU7bGV0dGVyLXNwYWNpbmc6bm9ybWFsO3dvcmQtc3BhY2luZzpub3JtYWw7dGV4dC10cmFuc2Zvcm06bm9uZTt3cml0aW5nLW1vZGU6bHItdGI7ZGlyZWN0aW9uOmx0cjtiYXNlbGluZS1zaGlmdDpiYXNlbGluZTt0ZXh0LWFuY2hvcjpzdGFydDtkaXNwbGF5OmlubGluZTtvdmVyZmxvdzp2aXNpYmxlO3Zpc2liaWxpdHk6dmlzaWJsZTtmaWxsOiNmZmZmZmY7ZmlsbC1vcGFjaXR5OjE7ZmlsbC1ydWxlOm5vbnplcm87c3Ryb2tlOm5vbmU7c3Ryb2tlLXdpZHRoOjA7c3Ryb2tlLW1pdGVybGltaXQ6NDtzdHJva2UtZGFzaGFycmF5Om5vbmU7bWFya2VyOm5vbmU7ZW5hYmxlLWJhY2tncm91bmQ6YWNjdW11bGF0ZSIgaW5rc2NhcGU6Y29ubmVjdG9yLWN1cnZhdHVyZT0iMCIvPiYjeGE7ICAgIDwvZz4mI3hhOyAgICA8dGV4dCBpZD0idGV4dDIwNjYiIHk9IjE2LjgxMTc3NSIgeD0iMTAuMDQ3NTAxIiBzdHlsZT0iZm9udC1zdHlsZTpub3JtYWw7Zm9udC13ZWlnaHQ6bm9ybWFsO2ZvbnQtc2l6ZToxMC41ODMzMzMwMnB4O2xpbmUtaGVpZ2h0OjYuNjE0NTgzNDlweDtmb250LWZhbWlseTpTYW5zO2xldHRlci1zcGFjaW5nOjBweDt3b3JkLXNwYWNpbmc6MHB4O2ZpbGw6I2ZmZmZmZjtmaWxsLW9wYWNpdHk6MTtzdHJva2U6bm9uZTtzdHJva2Utd2lkdGg6MC4yNjQ1ODMzMnB4O3N0cm9rZS1saW5lY2FwOmJ1dHQ7c3Ryb2tlLWxpbmVqb2luOm1pdGVyO3N0cm9rZS1vcGFjaXR5OjEiIHhtbDpzcGFjZT0icHJlc2VydmUiPjx0c3BhbiBzdHlsZT0iZm9udC1zdHlsZTpub3JtYWw7Zm9udC12YXJpYW50Om5vcm1hbDtmb250LXdlaWdodDpub3JtYWw7Zm9udC1zdHJldGNoOm5vcm1hbDtmb250LXNpemU6Mi44MjIyMjIyM3B4O2ZvbnQtZmFtaWx5OkFyaWFsOy1pbmtzY2FwZS1mb250LXNwZWNpZmljYXRpb246J0FyaWFsLCBOb3JtYWwnO3RleHQtYWxpZ246Y2VudGVyO3dyaXRpbmctbW9kZTpsci10Yjt0ZXh0LWFuY2hvcjptaWRkbGU7ZmlsbDojZmZmZmZmO2ZpbGwtb3BhY2l0eToxO3N0cm9rZS13aWR0aDowLjI2NDU4MzMycHgiIHk9IjE2LjgxMTc3NSIgeD0iMTAuMDQ3NTAxIiBpZD0idHNwYW4yMDY0IiBzb2RpcG9kaTpyb2xlPSJsaW5lIj5jLWMtbTwvdHNwYW4+PC90ZXh0PiYjeGE7ICAgIDxwYXRoIGlkPSJwYXRoMTk4NCIgZD0ibSA5Ljk5MjI1NzQsNC40NDY5OTI1IGMgLTAuMTM4MzIzNCwtMC4wMDQ0IC0zLjk5NTMxMzksMS44OTE3NzkxIC00LjA0NTc0MjksMS45ODkwMjQxIC0wLjEyMTE1MywwLjIzMzY4MiAtMC45OTg4MDIsNC4yODE0Nzg0IC0wLjk0NzIzNSw0LjM2ODcyNDQgMC4wMywwLjA1MDY1IDAuNjYyMTk5LDAuODUyMzA1IDEuNDA0NTY3LDEuNzgwNzcxIGwgMS4zNDk3OTgsMS42ODc3NTQgMi4yMjE1NzQzLDAuMDAxMSAyLjIyMTU3MjIsMC4wMDExIDEuNDEyODE5LC0xLjc2NTc4NCAxLjQxMzg4LC0xLjc2NTI2NSAtMC40OTQ1NiwtMi4xNjg4NjA3IEMgMTQuMjU2NzMsNy4zODI4MTU1IDE0LjAxMzI5LDYuMzg3Mjc1NiAxMy45ODg0Miw2LjM2MzI4NTYgMTMuOTE4OTIsNi4yOTY0MDU2IDEwLjA2NzI0LDQuNDQ5NTQ2NSA5Ljk5MjI1NzQsNC40NDcxMjU1IFogbSAwLjIzNjE2NjYsMS45ODI4MjQxIGMgMC4xODY2MzcsMC4wMDggMC4yMDU3OTIsMC4yOTE1NzEgMC42MDUxMjgsMC4zMjE0MjcgMC41MjE2LDAuMDM5IDAuNDY1NTA4LC0wLjQ0NjY1MSAwLjg2NDU1MywtMC4xMDg1MjIgMC4zOTkwNDQsMC4zMzgxMjUgLTAuMDg4OSwwLjM2MjY0MSAwLjAzNTE0LDAuODcwNzQ5IDAuMTI0MDksMC41MDgxMDQxIDAuNTY4ODAxLDAuMzA1MDk5MSAwLjM3MDUyMywwLjc4OTA5ODcgLTAuMTk4Mjc5LDAuNDg0MDAyIC0wLjM3MjYxMywwLjAyNzI4IC0wLjgxNzUxLDAuMzAyMzA4IC0wLjQ0NDg5NywwLjI3NTAyMyAtMC4xMTQ1NjQsMC42MzUzNDYgLTAuNjM2MTM4LDAuNTk2MzQ3IC0wLjUyMTY1MiwtMC4wMzkgLTAuMTQwNDY3LC0wLjM0NjA2NSAtMC41Mzk1MSwtMC42ODQxOTcgQyA5LjcxMTU2Niw4LjE3ODg5NTUgOS40NzAzNzE4LDguNjA0NDg3MyA5LjM0NjMwODgsOC4wOTYzNzk3IDkuMjIyMjE4OCw3LjU4ODI3MTYgOS42MzIyNDQsNy44NTUzNjI1IDkuODMwNTIzLDcuMzcxMzYwNyAxMC4wMjkyMjQsNi44ODczMTM2IDkuNTQ5NDI4OCw2Ljc5MDEwNzYgOS45OTQzNTI0LDYuNTE1MDgxNiBjIDAuMDU1NjQsLTAuMDM0MzQgMC4xMDE4OTA2LC0wLjA1Njg4IDAuMTQyMTA1NiwtMC4wNzAyOCAwLjAzNTA4LC0wLjAxMTY3IDAuMDY1MzMsLTAuMDE2MTQgMC4wOTE5NywtMC4wMTQ5NyB6IG0gMC41MjE0OTMsMC41NzIwNTkgYyAtMC4wNzU3OCwtNS4zMDZlLTQgLTAuMTUxMjA5LDAuMDEwMjEgLTAuMjIzNzU4LDAuMDMyMDQgLTAuNDAwMzkzLDAuMTIwNzMyIC0wLjYyNjk1NCwwLjU0MzMyMTkgLTAuNTA1OTA5LDAuOTQzNjEzIDAuMTIwOTQsMC4zOTk5MTk3IDAuNTQzMTEsMC42MjYxNDg3IDAuOTQzMTA3LDAuNTA1MzkzNyAwLjM5OTgzOCwtMC4xMjA3NDYgMC42MjYyNjgsLTAuNTQyNjEwNyAwLjUwNTkwOSwtMC45NDI1Nzg4IEMgMTEuMzczNTE2LDcuMjIyNTIzNiAxMS4wODE4MzcsNy4wMDQxODk2IDEwLjc0OTkxNyw3LjAwMTg3NzYgWiBNIDcuNzU3MjY5NSw4LjMwMzYwMzMgYyAwLjAzOTY5LDcuOWUtNCAwLjA4ODMyLDAuMDA5IDAuMTQ4Mjk5MSwwLjAyNzM5IDAuNDc5OTI3OSwwLjE0NzEzOCAtMC4wMDc3LDAuMzk5NTAzIDAuMzM0MzU0LDAuNzY2ODc5IDAuMzQyMDUzMSwwLjM2NzM3NyAwLjYyODUxODIsLTAuMTAxMDg2IDAuNzQxMDQ1MiwwLjM4ODA5MSAwLjExMjUyNywwLjQ4OTE3NzcgLTAuMzQ5OTkxMywwLjE5MjkyMSAtMC40OTcxMjYxLDAuNjcyODI3NyAtMC4xNDcxNjEyLDAuNDc5OTA0IDAuNDAxNDc5MSwwLjQ5NDA4MyAwLjAzNDExLDAuODM2MTIzIC0wLjM2NzM3NCwwLjM0MjA0MSAtMC4zNDE4MTUxLC0wLjIwNjA2IC0wLjgzMDk1MDEsLTAuMDkzNTMgLTAuNDg5MTg4LDAuMTEyNTI3IC0wLjIyNzAzOSwwLjU5NDY1NCAtMC43MDY5NCwwLjQ0NzUxNiAtMC40Nzk5MjgsLTAuMTQ3MTM3IDAuMDA3NywtMC4zOTk1IC0wLjMzNDM1NCwtMC43NjY4NzYgLTAuMzQyMDU0LC0wLjM2NzM3OSAtMC42Mjg1MTgsMC4xMDA1NzEgLTAuNzQxMDQ1LC0wLjM4ODYwNyAtMC4xMTI1MjgsLTAuNDg5MTggMC4zNDk5OTEsLTAuMTkyOTI0IDAuNDk3MTI1LC0wLjY3MjgyNjcgMC4xNDcxNjIsLTAuNDc5OTA3IC0wLjQwMTk4MSwtMC40OTM1NyAtMC4wMzQ2MSwtMC44MzU2MSAwLjM2NzM3NCwtMC4zNDIwNDMgMC4zNDIyOTEsMC4yMDYwNjUgMC44MzE0NTMsMC4wOTM1NCAwLjQyODA0MywtMC4wOTg0NiAwLjI4MDY0MywtMC40Nzk2MDcgMC41NTg2NDEsLTAuNDc0OTA2IHogbSAzLjU2NzIxNjUsMC41MjQ1MTYgYyAwLjA0NTUxLDUuMzZlLTQgMC4xMDA4MDcsMC4wMTI0MyAwLjE3MDAyMiwwLjAzOTI3IDAuNTUzMjcsMC4yMTQ3MzkgLTAuMTc1MjM0LDAuNTQ1ODk0IDAuMjUzNzM1LDAuOTU2MDEzNyAwLjQyODk2OSwwLjQxMDExOCAwLjcyNzQ3MiwtMC4zMzI3NDE3IDAuOTY2ODY3LDAuMjEwMzIzIDAuMjM5MzY5LDAuNTQzMDY1IC0wLjUxMDQzNCwwLjI2MjQzMiAtMC40OTcxMjYsMC44NTU3NjMgMC4wMTMyMywwLjU5MzMzMSAwLjc0OTU5MSwwLjI3ODcyIDAuNTM0ODI5LDAuODMxOTkgLTAuMjE0NzA5LDAuNTUzMjY4IC0wLjU0NTg4OCwtMC4xNzUyNDcgLTAuOTU1OTkyLDAuMjUzNzMgLTAuNDEwMTMxLDAuNDI4OTc3IDAuMzMyMjEsMC43MjY5NzIgLTAuMjEwODQ3LDAuOTY2MzQ4IC0wLjU0MzA1NywwLjIzOTM4IC0wLjI2MTM4MiwtMC41MDk5MzkgLTAuODU0NzM2LC0wLjQ5NjYwOSAtMC41OTMzMjgsMC4wMTMzMyAtMC4yNzkyMTUsMC43NDkwNzIgLTAuODMyNTEsMC41MzQzMzQgQyA5LjM0NTQ4NDgsMTIuNzY0NTQzIDEwLjA3Mzk4NywxMi40MzMzODggOS42NDQ5OTMsMTIuMDIzMjY4IDkuMjE2MDIzOCwxMS42MTMxNDggOC45MTgwMjM4LDEyLjM1NjAwOCA4LjY3ODY1NDYsMTEuODEyOTQ1IDguNDM5Mjg2NywxMS4yNjk4OCA5LjE4ODU1OTgsMTEuNTUxMDMyIDkuMTc1Mjc3OCwxMC45NTc3MDEgOS4xNjE3ODc4LDEwLjM2NDM3IDguNDI1Njg2NywxMC42Nzg0NjIgOC42NDA0MjI1LDEwLjEyNTE5MiA4Ljg1NTE1ODgsOS41NzE5MjIzIDkuMTg2ODEzOCwxMC4zMDA5NTUgOS41OTY5NDUsOS44NzE5NzggMTAuMDA3MDQ4LDkuNDQzMDAxMyA5LjI2NDE3NzgsOS4xNDQ0OTAzIDkuODA3MjYyLDguOTA1MTE0MyBjIDAuNTQzMDU1LC0wLjIzOTM3NyAwLjI2MTkxLDAuNTA5OTM5IDAuODU1MjM3LDAuNDk2NjA5IDAuNTE5MTkyLC0wLjAxMTY3IDAuMzQzNDI5LC0wLjU3NjQwOCAwLjY2MTk4NywtMC41NzM2MDggeiBtIC0zLjg4MTQwOTUsMC4yNTUyOCBjIC0wLjQxNzk4OCwtMS41OGUtNCAtMC43NTY5NDYsMC4zMzg1NjQgLTAuNzU3MDc4LDAuNzU2NTQ0NyAtMS41OWUtNCwwLjQxODE4MiAwLjMzODkwNSwwLjc1NzIxOSAwLjc1NzA3OCwwLjc1NzA2IDAuNDE3OTYzMSwtMS40OGUtNCAwLjc1NjY4MiwtMC4zMzkwOTUgMC43NTY1MjM5LC0wLjc1NzA2IEMgOC4xOTk0Njc1LDkuNDIyMTgwMyA3Ljg2MDgyNzYsOS4wODM1NDczIDcuNDQzMDc2NSw5LjA4MzM5OTMgWiBNIDEwLjY5NjYzLDkuODA4NDIxIGMgLTAuNjE1Njg0LDQuMmUtNSAtMS4xMTQ4NDYsMC40OTg5ODMgLTEuMTE1MTksMS4xMTQ2NjEgLTIuMzhlLTQsMC42MTYwODIgMC40OTkxMDksMS4xMTU2NSAxLjExNTE5LDEuMTE1NjkyIDAuNjE2MjY4LDIuMjJlLTQgMS4xMTU5MDcsLTAuNDk5NDI1IDEuMTE1NjY5LC0xLjExNTY5MiAwLC0wLjYxNTg2NiAtMC40OTk3OTgsLTEuMTE0ODgzIC0xLjExNTY2OSwtMS4xMTQ2NjEgeiIgc3R5bGU9Im9wYWNpdHk6MTtmaWxsOiNmZmZmZmY7ZmlsbC1vcGFjaXR5OjE7c3Ryb2tlOiNlZWVlZWU7c3Ryb2tlLXdpZHRoOjA7c3Ryb2tlLW1pdGVybGltaXQ6MTA7c3Ryb2tlLWRhc2hhcnJheTpub25lO3N0cm9rZS1kYXNob2Zmc2V0OjExLjIzNjQyMzQ5O3N0cm9rZS1vcGFjaXR5OjEiIGlua3NjYXBlOmNvbm5lY3Rvci1jdXJ2YXR1cmU9IjAiIHNvZGlwb2RpOm5vZGV0eXBlcz0iY2NjY2NjY2NjY2NjY3NjY2NjY3NjY2NjY2NjY2NjY2NjY3Njc2NjY2NjY2NjY2NjY2NjY2NjY2NjY3NjY2NjY2NjY2NjY2NjYyIvPiYjeGE7ICA8L2c+JiN4YTs8L3N2Zz4=;strokeColor=#3999c6;fillColor=none;fontSize=12;align=left;html=1;labelPosition=right;" parent="izLOdk6nZkrDbWo1u9eR-7" vertex="1">
                    <mxGeometry x="-580" y="519" width="40" height="40" as="geometry"/>
                </mxCell>
                <mxCell id="izLOdk6nZkrDbWo1u9eR-87" value="&amp;nbsp;" style="aspect=fixed;html=1;points=[];align=center;image;fontSize=12;image=img/lib/mscae/Key.svg;dashed=1;strokeColor=#3999c6;fillColor=none;" parent="izLOdk6nZkrDbWo1u9eR-7" vertex="1">
                    <mxGeometry x="-652.4" y="580" width="24.8" height="40" as="geometry"/>
                </mxCell>
                <mxCell id="QhXyQ4ykt27i2-GysQ-a-10" value="Network security group" style="aspect=fixed;html=1;points=[];align=left;image;fontSize=12;image=img/lib/mscae/Network_Security_Groups_Classic.svg;dashed=1;strokeColor=#3999c6;fillColor=none;labelPosition=right;verticalLabelPosition=middle;verticalAlign=middle;" parent="izLOdk6nZkrDbWo1u9eR-7" vertex="1">
                    <mxGeometry x="427" y="85" width="29.6" height="40" as="geometry"/>
                </mxCell>
                <mxCell id="QhXyQ4ykt27i2-GysQ-a-12" style="edgeStyle=orthogonalEdgeStyle;rounded=0;orthogonalLoop=1;jettySize=auto;html=1;strokeColor=#FF0000;" parent="izLOdk6nZkrDbWo1u9eR-7" source="QhXyQ4ykt27i2-GysQ-a-11" target="QhXyQ4ykt27i2-GysQ-a-10" edge="1">
                    <mxGeometry relative="1" as="geometry"/>
                </mxCell>
                <mxCell id="QhXyQ4ykt27i2-GysQ-a-11" value="Internet" style="ellipse;shape=cloud;whiteSpace=wrap;html=1;strokeWidth=2;fillColor=none;" parent="izLOdk6nZkrDbWo1u9eR-7" vertex="1">
                    <mxGeometry x="550" y="3" width="75" height="50" as="geometry"/>
                </mxCell>
                <mxCell id="QhXyQ4ykt27i2-GysQ-a-14" style="edgeStyle=orthogonalEdgeStyle;rounded=0;orthogonalLoop=1;jettySize=auto;html=1;strokeColor=#FF0000;exitX=0.439;exitY=1.025;exitDx=0;exitDy=0;exitPerimeter=0;" parent="izLOdk6nZkrDbWo1u9eR-7" source="QhXyQ4ykt27i2-GysQ-a-10" target="izLOdk6nZkrDbWo1u9eR-82" edge="1">
                    <mxGeometry relative="1" as="geometry"/>
                </mxCell>
                <mxCell id="1QvDldQZEYnEXIARZJWw-1" value="Sketch" style="" parent="0" visible="0"/>
                <mxCell id="Ko371S2_Pk_eVrSD8Z2H-1" value="" style="rounded=0;whiteSpace=wrap;html=1;fillColor=none;" parent="1QvDldQZEYnEXIARZJWw-1" vertex="1">
                    <mxGeometry x="40" y="281.5" width="120" height="200" as="geometry"/>
                </mxCell>
                <mxCell id="Ko371S2_Pk_eVrSD8Z2H-2" value="RG: Shared" style="text;html=1;align=left;verticalAlign=middle;resizable=0;points=[];autosize=1;" parent="1QvDldQZEYnEXIARZJWw-1" vertex="1">
                    <mxGeometry x="10" y="261.5" width="80" height="20" as="geometry"/>
                </mxCell>
                <mxCell id="Ko371S2_Pk_eVrSD8Z2H-3" value="" style="rounded=0;whiteSpace=wrap;html=1;fillColor=none;movable=1;resizable=1;rotatable=1;deletable=1;editable=1;connectable=1;" parent="1QvDldQZEYnEXIARZJWw-1" vertex="1">
                    <mxGeometry x="222.5" y="280.5" width="390" height="239.5" as="geometry"/>
                </mxCell>
                <mxCell id="Ko371S2_Pk_eVrSD8Z2H-4" value="RG: environment (kk-webhosting-prod-rg)" style="text;html=1;align=left;verticalAlign=middle;resizable=0;points=[];autosize=1;" parent="1QvDldQZEYnEXIARZJWw-1" vertex="1">
                    <mxGeometry x="170" y="260" width="240" height="20" as="geometry"/>
                </mxCell>
                <mxCell id="Ko371S2_Pk_eVrSD8Z2H-15" value="Service account&lt;br&gt;key" style="edgeStyle=orthogonalEdgeStyle;rounded=0;orthogonalLoop=1;jettySize=auto;html=1;exitX=1;exitY=0.5;exitDx=0;exitDy=0;" parent="1QvDldQZEYnEXIARZJWw-1" source="Ko371S2_Pk_eVrSD8Z2H-5" target="Ko371S2_Pk_eVrSD8Z2H-8" edge="1">
                    <mxGeometry x="0.329" relative="1" as="geometry">
                        <mxPoint as="offset"/>
                    </mxGeometry>
                </mxCell>
                <mxCell id="Ko371S2_Pk_eVrSD8Z2H-5" value="Azure Kubernetes&lt;br&gt;Service" style="rounded=1;whiteSpace=wrap;html=1;fillColor=none;" parent="1QvDldQZEYnEXIARZJWw-1" vertex="1">
                    <mxGeometry x="317.5" y="301" width="200" height="80" as="geometry"/>
                </mxCell>
                <mxCell id="Ko371S2_Pk_eVrSD8Z2H-18" style="edgeStyle=orthogonalEdgeStyle;rounded=0;orthogonalLoop=1;jettySize=auto;html=1;entryX=0.5;entryY=1;entryDx=0;entryDy=0;endArrow=none;endFill=0;exitX=0.5;exitY=0;exitDx=0;exitDy=0;" parent="1QvDldQZEYnEXIARZJWw-1" source="Ko371S2_Pk_eVrSD8Z2H-6" target="Ko371S2_Pk_eVrSD8Z2H-17" edge="1">
                    <mxGeometry relative="1" as="geometry"/>
                </mxCell>
                <mxCell id="Ko371S2_Pk_eVrSD8Z2H-6" value="MariaDB" style="rounded=1;whiteSpace=wrap;html=1;fillColor=none;" parent="1QvDldQZEYnEXIARZJWw-1" vertex="1">
                    <mxGeometry x="242.5" y="460" width="95" height="50" as="geometry"/>
                </mxCell>
                <mxCell id="Ko371S2_Pk_eVrSD8Z2H-7" value="Redis" style="rounded=1;whiteSpace=wrap;html=1;fillColor=none;" parent="1QvDldQZEYnEXIARZJWw-1" vertex="1">
                    <mxGeometry x="370" y="460" width="95" height="50" as="geometry"/>
                </mxCell>
                <mxCell id="Ko371S2_Pk_eVrSD8Z2H-8" value="Azure Files" style="rounded=1;whiteSpace=wrap;html=1;fillColor=none;" parent="1QvDldQZEYnEXIARZJWw-1" vertex="1">
                    <mxGeometry x="500" y="460" width="95" height="50" as="geometry"/>
                </mxCell>
                <mxCell id="Ko371S2_Pk_eVrSD8Z2H-9" value="" style="rounded=0;whiteSpace=wrap;html=1;fillColor=none;movable=1;resizable=1;rotatable=1;deletable=1;editable=1;connectable=1;" parent="1QvDldQZEYnEXIARZJWw-1" vertex="1">
                    <mxGeometry x="682.5" y="280.5" width="147.5" height="201" as="geometry"/>
                </mxCell>
                <mxCell id="Ko371S2_Pk_eVrSD8Z2H-10" value="RG: cluster resources MC_xxxx" style="text;html=1;align=left;verticalAlign=middle;resizable=0;points=[];autosize=1;" parent="1QvDldQZEYnEXIARZJWw-1" vertex="1">
                    <mxGeometry x="630" y="260" width="180" height="20" as="geometry"/>
                </mxCell>
                <mxCell id="Ko371S2_Pk_eVrSD8Z2H-13" value="" style="rounded=0;whiteSpace=wrap;html=1;fillColor=none;" parent="1QvDldQZEYnEXIARZJWw-1" vertex="1">
                    <mxGeometry x="312.5" y="130" width="242.5" height="110" as="geometry"/>
                </mxCell>
                <mxCell id="Ko371S2_Pk_eVrSD8Z2H-14" value="RG: kk-webhosting-network-rg" style="text;html=1;align=left;verticalAlign=middle;resizable=0;points=[];autosize=1;" parent="1QvDldQZEYnEXIARZJWw-1" vertex="1">
                    <mxGeometry x="260" y="110" width="180" height="20" as="geometry"/>
                </mxCell>
                <mxCell id="Ko371S2_Pk_eVrSD8Z2H-17" value="" style="ellipse;whiteSpace=wrap;html=1;fillColor=none;align=left;" parent="1QvDldQZEYnEXIARZJWw-1" vertex="1">
                    <mxGeometry x="285" y="440" width="10" height="10" as="geometry"/>
                </mxCell>
                <mxCell id="Ko371S2_Pk_eVrSD8Z2H-19" value="&lt;div style=&quot;text-align: left&quot;&gt;&lt;span style=&quot;font-size: 8px&quot;&gt;Service&lt;/span&gt;&lt;/div&gt;&lt;font style=&quot;font-size: 8px&quot;&gt;&lt;div style=&quot;text-align: left&quot;&gt;&lt;span&gt;Endpoint&lt;/span&gt;&lt;/div&gt;&lt;/font&gt;" style="text;html=1;align=center;verticalAlign=middle;resizable=0;points=[];autosize=1;" parent="1QvDldQZEYnEXIARZJWw-1" vertex="1">
                    <mxGeometry x="235" y="414" width="50" height="40" as="geometry"/>
                </mxCell>
                <mxCell id="Ko371S2_Pk_eVrSD8Z2H-25" style="edgeStyle=orthogonalEdgeStyle;rounded=0;orthogonalLoop=1;jettySize=auto;html=1;entryX=0.231;entryY=1.004;entryDx=0;entryDy=0;entryPerimeter=0;endArrow=none;endFill=0;" parent="1QvDldQZEYnEXIARZJWw-1" source="Ko371S2_Pk_eVrSD8Z2H-22" target="Ko371S2_Pk_eVrSD8Z2H-5" edge="1">
                    <mxGeometry relative="1" as="geometry"/>
                </mxCell>
                <mxCell id="Ko371S2_Pk_eVrSD8Z2H-22" value="" style="ellipse;whiteSpace=wrap;html=1;fillColor=none;align=left;" parent="1QvDldQZEYnEXIARZJWw-1" vertex="1">
                    <mxGeometry x="358.75" y="404" width="10" height="10" as="geometry"/>
                </mxCell>
                <mxCell id="Ko371S2_Pk_eVrSD8Z2H-26" value="" style="ellipse;whiteSpace=wrap;html=1;fillColor=none;align=left;" parent="1QvDldQZEYnEXIARZJWw-1" vertex="1">
                    <mxGeometry x="390" y="440" width="10" height="10" as="geometry"/>
                </mxCell>
                <mxCell id="Ko371S2_Pk_eVrSD8Z2H-27" style="edgeStyle=orthogonalEdgeStyle;rounded=0;orthogonalLoop=1;jettySize=auto;html=1;entryX=0.5;entryY=1;entryDx=0;entryDy=0;endArrow=none;endFill=0;" parent="1QvDldQZEYnEXIARZJWw-1" target="Ko371S2_Pk_eVrSD8Z2H-26" edge="1">
                    <mxGeometry relative="1" as="geometry">
                        <mxPoint x="395" y="460" as="sourcePoint"/>
                    </mxGeometry>
                </mxCell>
                <mxCell id="Ko371S2_Pk_eVrSD8Z2H-28" value="" style="endArrow=none;html=1;entryX=0;entryY=0.5;entryDx=0;entryDy=0;exitX=1;exitY=0.5;exitDx=0;exitDy=0;edgeStyle=orthogonalEdgeStyle;" parent="1QvDldQZEYnEXIARZJWw-1" source="Ko371S2_Pk_eVrSD8Z2H-17" target="Ko371S2_Pk_eVrSD8Z2H-22" edge="1">
                    <mxGeometry width="50" height="50" relative="1" as="geometry">
                        <mxPoint x="300" y="460" as="sourcePoint"/>
                        <mxPoint x="350" y="410" as="targetPoint"/>
                    </mxGeometry>
                </mxCell>
                <mxCell id="Ko371S2_Pk_eVrSD8Z2H-29" value="" style="endArrow=none;html=1;entryX=1;entryY=0.5;entryDx=0;entryDy=0;exitX=0.5;exitY=0;exitDx=0;exitDy=0;edgeStyle=orthogonalEdgeStyle;" parent="1QvDldQZEYnEXIARZJWw-1" source="Ko371S2_Pk_eVrSD8Z2H-26" target="Ko371S2_Pk_eVrSD8Z2H-22" edge="1">
                    <mxGeometry width="50" height="50" relative="1" as="geometry">
                        <mxPoint x="305.0000000000016" y="455" as="sourcePoint"/>
                        <mxPoint x="368.75000000000205" y="419" as="targetPoint"/>
                    </mxGeometry>
                </mxCell>
                <mxCell id="Ko371S2_Pk_eVrSD8Z2H-30" value="?&lt;br&gt;&lt;div&gt;&lt;span&gt;Ressourcer Kubernetes opretter automatisk&lt;/span&gt;&lt;/div&gt;" style="ellipse;whiteSpace=wrap;html=1;fillColor=none;align=center;" parent="1QvDldQZEYnEXIARZJWw-1" vertex="1">
                    <mxGeometry x="700" y="324" width="120" height="80" as="geometry"/>
                </mxCell>
                <mxCell id="Ko371S2_Pk_eVrSD8Z2H-32" value="Subnet&lt;br&gt;Prod" style="ellipse;shape=cloud;whiteSpace=wrap;html=1;fillColor=none;align=center;" parent="1QvDldQZEYnEXIARZJWw-1" vertex="1">
                    <mxGeometry x="422" y="146" width="120" height="80" as="geometry"/>
                </mxCell>
                <mxCell id="Ko371S2_Pk_eVrSD8Z2H-33" value="?" style="ellipse;whiteSpace=wrap;html=1;fillColor=none;align=center;" parent="1QvDldQZEYnEXIARZJWw-1" vertex="1">
                    <mxGeometry x="55" y="354" width="90" height="60" as="geometry"/>
                </mxCell>
                <mxCell id="Ko371S2_Pk_eVrSD8Z2H-34" value="" style="endArrow=none;html=1;entryX=0.55;entryY=0.95;entryDx=0;entryDy=0;entryPerimeter=0;exitX=0.5;exitY=0;exitDx=0;exitDy=0;" parent="1QvDldQZEYnEXIARZJWw-1" source="Ko371S2_Pk_eVrSD8Z2H-5" target="Ko371S2_Pk_eVrSD8Z2H-32" edge="1">
                    <mxGeometry width="50" height="50" relative="1" as="geometry">
                        <mxPoint x="520" y="220" as="sourcePoint"/>
                        <mxPoint x="570" y="170" as="targetPoint"/>
                    </mxGeometry>
                </mxCell>
                <mxCell id="Ko371S2_Pk_eVrSD8Z2H-36" value="Application&lt;br&gt;Gateway&lt;br&gt;Prod&lt;br&gt;&lt;div&gt;&lt;span&gt;?&lt;/span&gt;&lt;/div&gt;" style="ellipse;whiteSpace=wrap;html=1;aspect=fixed;fillColor=none;align=center;" parent="1QvDldQZEYnEXIARZJWw-1" vertex="1">
                    <mxGeometry x="330" y="148.5" width="77.5" height="77.5" as="geometry"/>
                </mxCell>
                <mxCell id="Ko371S2_Pk_eVrSD8Z2H-37" value="" style="endArrow=none;html=1;entryX=0.981;entryY=0.642;entryDx=0;entryDy=0;entryPerimeter=0;exitX=0.22;exitY=0;exitDx=0;exitDy=0;exitPerimeter=0;" parent="1QvDldQZEYnEXIARZJWw-1" source="Ko371S2_Pk_eVrSD8Z2H-5" target="Ko371S2_Pk_eVrSD8Z2H-36" edge="1">
                    <mxGeometry width="50" height="50" relative="1" as="geometry">
                        <mxPoint x="427.5" y="311" as="sourcePoint"/>
                        <mxPoint x="428" y="232.0000000000001" as="targetPoint"/>
                    </mxGeometry>
                </mxCell>
                <mxCell id="1QvDldQZEYnEXIARZJWw-3" value="Cluster" parent="0"/>
                <mxCell id="TYJE-9J5CXYhG14wN5V3-12" value="Internet" style="ellipse;shape=cloud;whiteSpace=wrap;html=1;strokeWidth=2;fillColor=none;" parent="1QvDldQZEYnEXIARZJWw-3" vertex="1">
                    <mxGeometry x="618.4" y="6" width="75" height="50" as="geometry"/>
                </mxCell>
                <mxCell id="TYJE-9J5CXYhG14wN5V3-29" value="Untitled Layer" parent="0"/>
                <mxCell id="izLOdk6nZkrDbWo1u9eR-40" value="Dev rg" parent="0"/>
                <mxCell id="TYJE-9J5CXYhG14wN5V3-32" value="Main Kubernetes Cluster" style="shape=image;verticalLabelPosition=middle;labelBackgroundColor=#ffffff;verticalAlign=middle;aspect=fixed;imageAspect=0;image=data:image/svg+xml,PHN2ZyB4bWxucz0iaHR0cDovL3d3dy53My5vcmcvMjAwMC9zdmciIHhtbG5zOnhsaW5rPSJodHRwOi8vd3d3LnczLm9yZy8xOTk5L3hsaW5rIiB4bWxuczpzdmc9Imh0dHA6Ly93d3cudzMub3JnLzIwMDAvc3ZnIiBjbGFzcz0iZnhzLXBvcnRhbC1zdmciIGlkPSJGeFN5bWJvbDAtMDVlIiByb2xlPSJwcmVzZW50YXRpb24iIHZpZXdCb3g9IjAgMCA1MCA1MCIgZm9jdXNhYmxlPSJmYWxzZSI+JiN4YTs8Zz4mI3hhOzx0aXRsZS8+JiN4YTs8cGF0aCBjbGFzcz0ibXNwb3J0YWxmeC1zdmctYzE3IiBmaWxsPSIjODA0OTk4IiBkPSJNIDIyLjg5MSAxNS45NDkgbCAtNy42NDcgMi45MjEgViA2LjUzNyBsIDcuNjQ3IDIuNzA4IFoiLz4mI3hhOzxwYXRoIGNsYXNzPSJtc3BvcnRhbGZ4LXN2Zy1jMjAiIGZpbGw9IiM2ODIxN2EiIGQ9Ik0gOC4yODkgOC41NjUgdiA4LjEgbCA1LjcyOCAyLjE3OSBWIDYuNTM3IEwgOC4yODkgOC41NjUgWiBtIDAuNjI4IDcuNTEzIGwgLTAuMzEyIC0wLjA5NyBWIDkuMjc0IGwgMC4zMTIgLTAuMDg4IGwgMC4zMjggLTAuMDkyIGwgMC4zNDkgLTAuMDk4IHYgNy4yOTIgbCAtMC4zNDkgLTAuMTA4IGwgLTAuMzI4IC0wLjEwMiBaIG0gMS40MzYgMC40NDUgbCAtMC4zOTIgLTAuMTIxIHYgLTcuNTEgbCAwLjM5MiAtMC4xMSBsIDAuNDE1IC0wLjExNyBsIDAuNDQ0IC0wLjEyNSB2IDguMjQ5IGwgLTAuNDQ0IC0wLjEzOCBsIC0wLjQxNSAtMC4xMjggWiBtIDEuODQgMC41NjkgbCAtMC41MDggLTAuMTU3IFYgOC40MDcgbCAwLjUwOCAtMC4xNDMgbCAwLjU0MiAtMC4xNTMgbCAwLjU4NiAtMC4xNjUgdiA5LjQ5NiBsIC0wLjU4NiAtMC4xODEgbCAtMC41NDIgLTAuMTY5IFoiLz4mI3hhOzxwYXRoIGNsYXNzPSJtc3BvcnRhbGZ4LXN2Zy1jMTciIGZpbGw9IiM4MDQ5OTgiIGQ9Ik0gNDAuNzkxIDE1Ljk0OSBsIC03LjY0OCAyLjkyMSBWIDYuNTM3IGwgNy42NDggMi43MDggWiIvPiYjeGE7PHBhdGggY2xhc3M9Im1zcG9ydGFsZngtc3ZnLWMyMCIgZmlsbD0iIzY4MjE3YSIgZD0iTSAyNi4xODkgOC41NjUgdiA4LjEgbCA1LjcyOCAyLjE3OSBWIDYuNTM3IGwgLTUuNzI4IDIuMDI4IFogbSAwLjYyNyA3LjUxMyBsIC0wLjMxMiAtMC4wOTcgViA5LjI3NCBsIDAuMzEyIC0wLjA4OCBsIDAuMzI4IC0wLjA5MiBsIDAuMzQ5IC0wLjA5OCB2IDcuMjkyIGwgLTAuMzQ5IC0wLjEwOCBsIC0wLjMyOCAtMC4xMDIgWiBtIDEuNDM2IDAuNDQ1IGwgLTAuMzkyIC0wLjEyMSB2IC03LjUxIGwgMC4zOTIgLTAuMTEgbCAwLjQxNSAtMC4xMTcgbCAwLjQ0NCAtMC4xMjUgdiA4LjI0OSBsIC0wLjQ0NCAtMC4xMzggbCAtMC40MTUgLTAuMTI4IFogbSAxLjg0IDAuNTY5IGwgLTAuNTA4IC0wLjE1NyBWIDguNDA3IGwgMC41MDggLTAuMTQzIGwgMC41NDIgLTAuMTUzIGwgMC41ODYgLTAuMTY1IHYgOS40OTYgbCAtMC41ODYgLTAuMTgxIGwgLTAuNTQyIC0wLjE2OSBaIi8+JiN4YTs8cGF0aCBjbGFzcz0ibXNwb3J0YWxmeC1zdmctYzE3IiBmaWxsPSIjODA0OTk4IiBkPSJNIDIyLjg5MSA0MC41NDMgbCAtNy42NDcgMi45MiBWIDMxLjEzIGwgNy42NDcgMi43MDkgWiIvPiYjeGE7PHBhdGggY2xhc3M9Im1zcG9ydGFsZngtc3ZnLWMyMCIgZmlsbD0iIzY4MjE3YSIgZD0iTSA4LjI4OSAzMy4xNTkgdiA4LjEgbCA1LjcyOCAyLjE3OSBWIDMxLjEzIGwgLTUuNzI4IDIuMDI5IFogbSAwLjYyOCA3LjUxMyBsIC0wLjMxMiAtMC4wOTcgdiAtNi43MDcgbCAwLjMxMiAtMC4wODggbCAwLjMyOCAtMC4wOTIgbCAwLjM0OSAtMC4wOTggdiA3LjI5MiBsIC0wLjM0OSAtMC4xMDggbCAtMC4zMjggLTAuMTAyIFogbSAxLjQzNiAwLjQ0NCBsIC0wLjM5MiAtMC4xMjEgdiAtNy41MDkgbCAwLjM5MiAtMC4xMTEgbCAwLjQxNSAtMC4xMTcgbCAwLjQ0NCAtMC4xMjUgdiA4LjI0OSBsIC0wLjQ0NCAtMC4xMzggbCAtMC40MTUgLTAuMTI4IFogbSAxLjg0IDAuNTcgbCAtMC41MDggLTAuMTU3IFYgMzMgbCAwLjUwOCAtMC4xNDMgbCAwLjU0MiAtMC4xNTMgbCAwLjU4NiAtMC4xNjUgdiA5LjQ5NiBsIC0wLjU4NiAtMC4xODEgbCAtMC41NDIgLTAuMTY4IFoiLz4mI3hhOzxwYXRoIGNsYXNzPSJtc3BvcnRhbGZ4LXN2Zy1jMTciIGZpbGw9IiM4MDQ5OTgiIGQ9Ik0gNDAuNzkxIDQwLjU0MyBsIC03LjY0OCAyLjkyIFYgMzEuMTMgbCA3LjY0OCAyLjcwOSBaIi8+JiN4YTs8cGF0aCBjbGFzcz0ibXNwb3J0YWxmeC1zdmctYzIwIiBmaWxsPSIjNjgyMTdhIiBkPSJNIDI2LjE4OSAzMy4xNTkgdiA4LjEgbCA1LjcyOCAyLjE3OSBWIDMxLjEzIGwgLTUuNzI4IDIuMDI5IFogbSAwLjYyNyA3LjUxMyBsIC0wLjMxMiAtMC4wOTcgdiAtNi43MDcgbCAwLjMxMiAtMC4wODggbCAwLjMyOCAtMC4wOTIgbCAwLjM0OSAtMC4wOTggdiA3LjI5MiBsIC0wLjM0OSAtMC4xMDggbCAtMC4zMjggLTAuMTAyIFogbSAxLjQzNiAwLjQ0NCBsIC0wLjM5MiAtMC4xMjEgdiAtNy41MDkgbCAwLjM5MiAtMC4xMTEgbCAwLjQxNSAtMC4xMTcgbCAwLjQ0NCAtMC4xMjUgdiA4LjI0OSBsIC0wLjQ0NCAtMC4xMzggbCAtMC40MTUgLTAuMTI4IFogbSAxLjg0IDAuNTcgbCAtMC41MDggLTAuMTU3IFYgMzMgbCAwLjUwOCAtMC4xNDMgbCAwLjU0MiAtMC4xNTMgbCAwLjU4NiAtMC4xNjUgdiA5LjQ5NiBsIC0wLjU4NiAtMC4xODEgbCAtMC41NDIgLTAuMTY4IFoiLz4mI3hhOzxwYXRoIGNsYXNzPSJtc3BvcnRhbGZ4LXN2Zy1jMTciIGZpbGw9IiM4MDQ5OTgiIGQ9Ik0gMzIuNDE3IDI4LjIxIGwgLTcuNjQ4IDIuOTIgViAxOC43OTggbCA3LjY0OCAyLjcwOCBaIi8+JiN4YTs8cGF0aCBjbGFzcz0ibXNwb3J0YWxmeC1zdmctYzIwIiBmaWxsPSIjNjgyMTdhIiBkPSJNIDE3LjgxNSAyMC44MjYgdiA4LjEgbCA1LjcyOCAyLjE3OSBWIDE4Ljc5OCBsIC01LjcyOCAyLjAyOCBaIG0gMC42MjcgNy41MTMgbCAtMC4zMTIgLTAuMDk3IHYgLTYuNzA3IGwgMC4zMTIgLTAuMDg4IGwgMC4zMjggLTAuMDkyIGwgMC4zNDkgLTAuMDk4IHYgNy4yOTIgbCAtMC4zNDkgLTAuMTA4IGwgLTAuMzI4IC0wLjEwMiBaIG0gMS40MzYgMC40NDUgbCAtMC4zOTIgLTAuMTIxIHYgLTcuNTA5IGwgMC4zOTIgLTAuMTEgbCAwLjQxNSAtMC4xMTcgbCAwLjQ0NCAtMC4xMjUgdiA4LjI0OSBsIC0wLjQ0NCAtMC4xMzggbCAtMC40MTUgLTAuMTI5IFogbSAxLjg0IDAuNTY5IGwgLTAuNTA4IC0wLjE1NyB2IC04LjUyOCBsIDAuNTA4IC0wLjE0MyBsIDAuNTQyIC0wLjE1MyBsIDAuNTg2IC0wLjE2NSB2IDkuNDk2IGwgLTAuNTg2IC0wLjE4MSBsIC0wLjU0MiAtMC4xNjkgWiIvPiYjeGE7PHBhdGggY2xhc3M9Im1zcG9ydGFsZngtc3ZnLWMxNyIgZmlsbD0iIzgwNDk5OCIgZD0iTSAxNC42MSAyOC4yMSBsIC03LjY0OCAyLjkyIFYgMTguNzk4IGwgNy42NDggMi43MDggWiIvPiYjeGE7PHBhdGggY2xhc3M9Im1zcG9ydGFsZngtc3ZnLWMyMCIgZmlsbD0iIzY4MjE3YSIgZD0iTSAwLjAwOCAyMC44MjYgdiA4LjEgbCA1LjcyOCAyLjE3OSBWIDE4Ljc5OCBMIDAuMDA4IDIwLjgyNiBaIG0gMC42MjcgNy41MTMgbCAtMC4zMTIgLTAuMDk3IHYgLTYuNzA3IGwgMC4zMTIgLTAuMDg4IGwgMC4zMjggLTAuMDkyIGwgMC4zNDkgLTAuMDk4IHYgNy4yOTIgbCAtMC4zNDkgLTAuMTA4IGwgLTAuMzI4IC0wLjEwMiBaIG0gMS40MzYgMC40NDUgbCAtMC4zOTIgLTAuMTIxIHYgLTcuNTA5IGwgMC4zOTIgLTAuMTEgbCAwLjQxNSAtMC4xMTcgbCAwLjQ0NSAtMC4xMjcgdiA4LjI0OSBsIC0wLjQ0NCAtMC4xMzggbCAtMC40MTYgLTAuMTI3IFogbSAxLjg0IDAuNTY5IGwgLTAuNTA4IC0wLjE1NyB2IC04LjUyOCBsIDAuNTA4IC0wLjE0MyBsIDAuNTQyIC0wLjE1MyBsIDAuNTg2IC0wLjE2NSB2IDkuNDk2IGwgLTAuNTg2IC0wLjE4MSBsIC0wLjU0MiAtMC4xNjkgWiIvPiYjeGE7PHBhdGggY2xhc3M9Im1zcG9ydGFsZngtc3ZnLWMxNyIgZmlsbD0iIzgwNDk5OCIgZD0iTSA1MCAyOC4yMSBsIC03LjY0OCAyLjkyIFYgMTguNzk4IEwgNTAgMjEuNTA2IFoiLz4mI3hhOzxwYXRoIGNsYXNzPSJtc3BvcnRhbGZ4LXN2Zy1jMjAiIGZpbGw9IiM2ODIxN2EiIGQ9Ik0gMzUuMzk4IDIwLjgyNiB2IDguMSBsIDUuNzI4IDIuMTc5IFYgMTguNzk4IGwgLTUuNzI4IDIuMDI4IFogbSAwLjYyNyA3LjUxMyBsIC0wLjMxMiAtMC4wOTcgdiAtNi43MDcgbCAwLjMxMiAtMC4wODggbCAwLjMyOCAtMC4wOTIgbCAwLjM0OSAtMC4wOTggdiA3LjI5MiBsIC0wLjM0OSAtMC4xMDggbCAtMC4zMjggLTAuMTAyIFogbSAxLjQzNiAwLjQ0NSBsIC0wLjM5MiAtMC4xMjEgdiAtNy41MDkgbCAwLjM5MiAtMC4xMSBsIDAuNDE1IC0wLjExNyBsIDAuNDQ0IC0wLjEyNSB2IDguMjQ5IGwgLTAuNDQ0IC0wLjEzOCBsIC0wLjQxNSAtMC4xMjkgWiBtIDEuODQgMC41NjkgbCAtMC41MDggLTAuMTU3IHYgLTguNTI4IGwgMC41MDggLTAuMTQzIGwgMC41NDIgLTAuMTUzIGwgMC41ODYgLTAuMTY1IHYgOS40OTYgbCAtMC41ODYgLTAuMTgxIGwgLTAuNTQyIC0wLjE2OSBaIi8+JiN4YTs8L2c+JiN4YTs8L3N2Zz4=;labelPosition=right;align=left;fontSize=12;" parent="izLOdk6nZkrDbWo1u9eR-40" vertex="1">
                    <mxGeometry x="434" y="243" width="50" height="50" as="geometry"/>
                </mxCell>
                <mxCell id="GEIzQCT62DjLHcosNujS-73" value="MariaDB&#10;kkwebplatform-&lt;env&gt;-01-mariadb" style="shape=image;verticalLabelPosition=middle;labelBackgroundColor=#ffffff;verticalAlign=middle;aspect=fixed;imageAspect=0;image=data:image/svg+xml,PHN2ZyB4bWxucz0iaHR0cDovL3d3dy53My5vcmcvMjAwMC9zdmciIHhtbG5zOnhsaW5rPSJodHRwOi8vd3d3LnczLm9yZy8xOTk5L3hsaW5rIiB4bWxuczpzdmc9Imh0dHA6Ly93d3cudzMub3JnLzIwMDAvc3ZnIiBjbGFzcz0iIiBpZD0iRnhTeW1ib2wwLTA4OCIgcm9sZT0icHJlc2VudGF0aW9uIiB2aWV3Qm94PSIwIDAgODQuMSAxMTEuNCIgZm9jdXNhYmxlPSJmYWxzZSI+JiN4YTs8Zz4mI3hhOzx0aXRsZS8+JiN4YTs8cGF0aCBmaWxsPSIjMWIzNjYyIiBkPSJNIDAgMTUuMiB2IDgwLjkgYyAwIDguNSAxOC44IDE1LjIgNDEuOSAxNS4yIFYgMTUuMiBaIi8+JiN4YTs8cGF0aCBmaWxsPSIjMmY0Yzc3IiBkPSJNIDQxLjUgMTExLjQgaCAwLjcgYyAyMy4zIDAgNDEuOSAtNi43IDQxLjkgLTE1LjIgdiAtODEgSCA0MS41IFoiLz4mI3hhOzxwYXRoIGNsYXNzPSJtc3BvcnRhbGZ4LXN2Zy1jMDEiIGZpbGw9IiNmZmZmZmYiIGQ9Ik0gODQuMSAxNS4yIGMgMCA4LjMgLTE4LjggMTUuMiAtNDEuOSAxNS4yIFMgMCAyMy41IDAgMTUuMiBTIDE4LjggMCA0MS45IDAgcyA0Mi4yIDcgNDIuMiAxNS4yIi8+JiN4YTs8cGF0aCBmaWxsPSIjN2ZiOTAwIiBkPSJNIDc1LjYgMTQuMyBjIDAgNS42IC0xNSAxMC4xIC0zMy40IDEwLjEgUyA4LjUgMjAgOC41IDE0LjMgcyAxNSAtMTAuMSAzMy40IC0xMC4xIHMgMzMuNyA0LjUgMzMuNyAxMC4xIi8+JiN4YTs8cGF0aCBmaWxsPSIjYjdkMzMyIiBkPSJNIDY4LjQgMjAuNCBjIDQuNSAtMS44IDcgLTMuOCA3IC02LjEgYyAwIC01LjYgLTE1IC0xMC4xIC0zMy40IC0xMC4xIFMgOC41IDguNyA4LjUgMTQuMyBjIDAgMi4yIDIuNyA0LjUgNyA2LjEgYyA2LjEgLTIuNSAxNS43IC0zLjggMjYuNSAtMy44IHMgMjAuMyAxLjYgMjYuNCAzLjgiLz4mI3hhOzxwYXRoIGNsYXNzPSJtc3BvcnRhbGZ4LXN2Zy1jMDEiIGZpbGw9IiNmZmZmZmYiIGQ9Ik0gNi41IDgyLjcxIHMgMy41MSAtMS41OCA0LjU3IC0xLjU4IGMgMCAwIDMuODYgLTAuNTMgNS42MiAtMC41MyBzIDMuMzEgLTEuNCA0LjU3IC0zLjM0IHMgNi4zMiAtNy43MyAxMi4xMiAtOSBzIDE0Ljc2IC0yLjY0IDE5LjY4IC05LjE0IHMgNy41NSAtMTQuMjMgMTUuMTEgLTE0LjU4IHMgNS4wOSAtMS45MyA3LjIgLTEuOTMgcyAwLjg4IDQgMC44OCA0IHMgLTAuNyAwLjUzIC0wLjcgMC43IHMgLTAuNTUgMi4zNyAtNC40IDQuNjkgcyAtNCA3LjczIC00LjM5IDEwIHMgLTMuODYgMTMuMzUgLTcuMzggMTYuMzQgbCAtMC44OCAwLjM1IHMgLTAuMzUgMC44OCAtMC43IDEuMDUgcyAtMS4yMyAtMC43IC0xLjQxIC0xLjA1IHMgLTEuNzYgMyAtMi4yOCAzLjY5IGEgMTMuNyAxMy43IDAgMCAxIC0xMC43MiA2LjUgcyA1LjggLTkuNjYgNS4yNyAtMTMuMTggYSAyMS42IDIxLjYgMCAwIDAgLTEuNTggMy44NiBjIDAgMC43IC0xLjIzIDIuMTEgLTMuMTYgMi4yOCBzIC0xNC4yMyAtMi44MSAtMTkuMzIgMCBzIC03LjIgNS4yNyAtMTAgNS40NSBzIC01LjYyIDAuMTggLTYuNjggLTAuMzUgYyAwIDAgMi4yOCAtMi40NiAyLjQ2IC0yLjgxIGMgLTAuMDIgLTAuMDEgLTMuMzggMC42OSAtMy44OCAtMS40MiBaIi8+JiN4YTs8cGF0aCBmaWxsPSIjMWIzNjYyIiBkPSJNIDc1LjcyIDQ3LjIyIGwgMC41MyAtMC41MyBzIC0yLjQ2IC0wLjcgLTMuMTYgLTIuNDYgYSAwLjg1IDAuODUgMCAwIDAgMCAwLjcgYSAxMC43MiAxMC43MiAwIDAgMCAyLjYzIDIuMjkgWiBNIDY0LjgyIDQ5IHMgMS4wNSAtMi40NiAzLjM0IC0xLjkzIGEgMS44MiAxLjgyIDAgMCAxIC0xLjQxIDIuNDYgYSAyLjU0IDIuNTQgMCAwIDEgLTEuOTMgLTAuNTMgWiIvPiYjeGE7PHBhdGggY2xhc3M9Im1zcG9ydGFsZngtc3ZnLWMwMSIgZmlsbD0iI2ZmZmZmZiIgc3Ryb2tlPSIjMWIzNjYyIiBzdHJva2UtbWl0ZXJsaW1pdD0iMTAiIHN0cm9rZS13aWR0aD0iMC41IiBkPSJNIDcyLjczIDQ2IHMgLTEuOTMgMi42NCAtMi4xMSAzLjY5IG0gMi40NiAtMy4xNyBhIDIzLjY2IDIzLjY2IDAgMCAwIC0xLjQxIDMuMzQgbSAxLjU5IC0zLjM0IGEgMTAuNzYgMTAuNzYgMCAwIDAgLTAuNTMgMy4zNCIvPiYjeGE7PHBhdGggY2xhc3M9Im1zcG9ydGFsZngtc3ZnLWMwMSIgZmlsbD0iI2ZmZmZmZiIgZD0iTSA2Mi4xOSA3Ni4yMSBzIC0zLjE2IDMgLTMuMzQgNCBzIDMuNTEgMi42NCA1LjggMi4xMSBjIDAgMC4wNCAtMi40NiAtNS40MSAtMi40NiAtNi4xMSBaIi8+JiN4YTs8L2c+JiN4YTs8L3N2Zz4=;fontSize=12;align=left;labelPosition=right;" parent="izLOdk6nZkrDbWo1u9eR-40" vertex="1">
                    <mxGeometry x="49.99999999999997" y="254" width="30.27" height="40" as="geometry"/>
                </mxCell>
                <mxCell id="TYJE-9J5CXYhG14wN5V3-30" value="Container Registry" style="shape=image;verticalLabelPosition=bottom;labelBackgroundColor=#ffffff;verticalAlign=top;aspect=fixed;imageAspect=0;image=data:image/svg+xml,PHN2ZyB4bWxucz0iaHR0cDovL3d3dy53My5vcmcvMjAwMC9zdmciIHhtbG5zOnhsaW5rPSJodHRwOi8vd3d3LnczLm9yZy8xOTk5L3hsaW5rIiB2ZXJzaW9uPSIxLjEiIGlkPSJMYXllcl8xIiB4PSIwcHgiIHk9IjBweCIgd2lkdGg9IjUwcHgiIGhlaWdodD0iNTBweCIgdmlld0JveD0iMCAwIDUwIDUwIiBzdHlsZT0iZW5hYmxlLWJhY2tncm91bmQ6bmV3IDAgMCA1MCA1MDsiIHhtbDpzcGFjZT0icHJlc2VydmUiPiYjeGE7PHN0eWxlIHR5cGU9InRleHQvY3NzIj4mI3hhOwkuc3Qwe2ZpbGw6IzU5QjREOTt9JiN4YTsJLnN0MXtmaWxsOiM5NTk1OTU7fSYjeGE7CS5zdDJ7ZmlsbDojQjNCNEI1O30mI3hhOwkuc3Qze2ZpbGw6IzdBN0E3QTt9JiN4YTsJLnN0NHtvcGFjaXR5OjAuMjtmaWxsOiNGRkZGRkY7ZW5hYmxlLWJhY2tncm91bmQ6bmV3ICAgIDt9JiN4YTs8L3N0eWxlPiYjeGE7PHBhdGggY2xhc3M9InN0MCIgZD0iTTE1LDM0SDljLTQtMS03LjEtNC4yLTcuMS04LjNjMC0zLjUsMi4yLTYuNiw1LjMtNy44YzAtMC40LTAuMS0wLjctMC4xLTEuMWMwLTYsNC44LTEwLjgsMTAuOC0xMC44ICBjMy4zLDAsNi4zLDEuNSw4LjQsNGMxLjItMC42LDIuNi0wLjksMy45LTAuOWM0LjcsMCw4LjgsNC4yLDguOSw4LjhMMjMsMTEuM2wtOCw0LjlWMzR6Ii8+JiN4YTs8cGF0aCBjbGFzcz0ic3QxIiBkPSJNNDUsMzguNGwtMjIuMSw0LjJMMjMsMjcuMWwyMiw0LjFWMzguNHogTTIyLjksMTMuM0w0NSwyMS42VjMwbC0yMi00LjciLz4mI3hhOzxwYXRoIGNsYXNzPSJzdDIiIGQ9Ik0yMywyNS4zbC02LDIuOFYxN2w2LTMuNiBNNDQsMjlsLTIwLTQuNnYtOS45bDIwLDcuNFYyOXogTTMzLDI1LjRsMiwwLjV2LTYuNWwtMi0wLjdWMjUuNHogTTMxLDE4LjJsLTItMC43ICB2Ni45bDIsMC42VjE4LjJ6IE0zNywyNi41bDIsMC41di02LjJsLTItMC43VjI2LjV6IE0yNSwyMy4zbDIsMC41di03LjFMMjUsMTZDMjUsMTYuMSwyNSwyMy4zLDI1LDIzLjN6IE00MywyMi4ybC0yLTAuN3Y2bDIsMC41ICBWMjIuMnogTTI0LDI4Ljh2MTIuOGwyMC0zLjd2LTYuMUwyNCwyOC44eiBNMjUsNDAuMXYtOS45bDIsMC4ydjkuM0wyNSw0MC4xeiBNMzEsMzkuMWwtMiwwLjR2LTguN2wyLDAuM0MzMSwzMSwzMSwzOS4xLDMxLDM5LjF6ICAgTTMzLDM4Ljh2LTcuNmwyLDAuMnY3TDMzLDM4Ljh6IE0zOSwzNy43TDM3LDM4di02LjRsMiwwLjNWMzcuN3ogTTQzLjEsMzcuMUw0MSwzNy40di01LjJsMS45LDAuMkw0My4xLDM3LjF6Ii8+JiN4YTs8cGF0aCBjbGFzcz0ic3QxIiBkPSJNMTksMjUuMWwtMSwwLjZ2LTcuOWwxLTAuNUMxOSwxNy4yLDE5LDI1LjEsMTksMjUuMXogTTIxLDE2LjFsLTEsMC43djcuN2wxLTAuNVYxNi4xeiIvPiYjeGE7PHBhdGggY2xhc3M9InN0MiIgZD0iTTE3LDM5LjFWMzBsNi0yLjl2MTUuNiIvPiYjeGE7PHBhdGggY2xhc3M9InN0MSIgZD0iTTE4LjksMzkuMUwxOCwzOC42di03LjdsMC45LTAuNFYzOS4xeiBNMjEsMjkuNUwyMCwzMHY5LjdsMSwwLjVWMjkuNUwyMSwyOS41eiIvPiYjeGE7PHBhdGggY2xhc3M9InN0MyIgZD0iTTQzLDIyLjlsLTE4LTZ2LTAuOGwxOCw2LjJWMjIuOXogTTQyLjksMzIuNEwyNSwzMC4yVjMxbDE3LjksMi4xVjMyLjR6IE0yMSwxNy4xdi0xbC0yLjksMS42djAuOEwyMSwxNy4xeiAgIE0xOCwzMS41bDMtMS4xdi0wLjhsLTMsMS4zVjMxLjV6Ii8+JiN4YTs8cGF0aCBjbGFzcz0ic3Q0IiBkPSJNNDUsMjEuN3YxNi43bC0yMiw0LjJsMTYuNy0yM0w0NSwyMS43eiIvPiYjeGE7PC9zdmc+;fontSize=12;" parent="izLOdk6nZkrDbWo1u9eR-40" vertex="1">
                    <mxGeometry x="325" y="164" width="40" height="40" as="geometry"/>
                </mxCell>
                <mxCell id="GEIzQCT62DjLHcosNujS-90" value="Storage Account&#10;&lt;tbd&gt;" style="shape=image;verticalLabelPosition=middle;labelBackgroundColor=#ffffff;verticalAlign=middle;aspect=fixed;imageAspect=0;image=data:image/svg+xml,PHN2ZyB4bWxucz0iaHR0cDovL3d3dy53My5vcmcvMjAwMC9zdmciIHhtbG5zOnhsaW5rPSJodHRwOi8vd3d3LnczLm9yZy8xOTk5L3hsaW5rIiB2ZXJzaW9uPSIxLjEiIGlkPSJMYXllcl8xIiB4PSIwcHgiIHk9IjBweCIgd2lkdGg9IjUwcHgiIGhlaWdodD0iNTBweCIgdmlld0JveD0iMCAwIDUwIDUwIiBlbmFibGUtYmFja2dyb3VuZD0ibmV3IDAgMCA1MCA1MCIgeG1sOnNwYWNlPSJwcmVzZXJ2ZSI+JiN4YTs8cGF0aCBmaWxsPSIjM0UzRTNFIiBkPSJNNDQsNTBINmMtMy4zMTQsMC02LTIuNjg2LTYtNlY1aDUwdjM5QzUwLDQ3LjMxNCw0Ny4zMTQsNTAsNDQsNTB6Ii8+JiN4YTs8cmVjdCB4PSI0IiB5PSIxNiIgb3BhY2l0eT0iMC45IiBmaWxsPSIjRkNEMTE2IiB3aWR0aD0iNDIiIGhlaWdodD0iMTEiLz4mI3hhOzxyZWN0IHg9IjQiIHk9IjMxIiBmaWxsPSIjN0ZCQTAwIiB3aWR0aD0iNDIiIGhlaWdodD0iMTUiLz4mI3hhOzxyZWN0IHg9IjQiIHk9IjUiIG9wYWNpdHk9IjAuOSIgZmlsbD0iI0ZGRkZGRiIgd2lkdGg9IjQyIiBoZWlnaHQ9IjciLz4mI3hhOzxyZWN0IHg9IjQiIHk9IjMxIiBvcGFjaXR5PSIwLjMiIGZpbGw9IiNGRkZGRkYiIGVuYWJsZS1iYWNrZ3JvdW5kPSJuZXcgICAgIiB3aWR0aD0iNDIiIGhlaWdodD0iMiIvPiYjeGE7PHJlY3QgeD0iNCIgeT0iMTYiIG9wYWNpdHk9IjAuMyIgZmlsbD0iI0ZGRkZGRiIgZW5hYmxlLWJhY2tncm91bmQ9Im5ldyAgICAiIHdpZHRoPSI0MiIgaGVpZ2h0PSIyIi8+JiN4YTs8cGF0aCBvcGFjaXR5PSIwLjE1IiBmaWxsPSIjRkZGRkZGIiBlbmFibGUtYmFja2dyb3VuZD0ibmV3ICAgICIgZD0iTTAsNXY0Mi42OTNDMCw0OC45MDcsMC45ODUsNDkuOSwyLjE4OCw0OS45SDhMNDAsNUgweiIvPiYjeGE7PC9zdmc+;fontSize=12;align=left;labelPosition=right;" parent="izLOdk6nZkrDbWo1u9eR-40" vertex="1">
                    <mxGeometry x="47" y="170" width="40" height="40" as="geometry"/>
                </mxCell>
                <mxCell id="izLOdk6nZkrDbWo1u9eR-81" value="Virtual Machine ScaleSet&lt;br&gt;(pr kubernetes node pool)&lt;br&gt;" style="aspect=fixed;html=1;points=[];align=left;image;fontSize=12;image=img/lib/mscae/VM_Scale_Set.svg;dashed=1;strokeColor=#3999c6;fillColor=none;labelPosition=right;verticalLabelPosition=middle;verticalAlign=middle;" parent="izLOdk6nZkrDbWo1u9eR-40" vertex="1">
                    <mxGeometry x="941" y="246" width="40" height="40" as="geometry"/>
                </mxCell>
                <mxCell id="izLOdk6nZkrDbWo1u9eR-82" value="Load balancer&lt;br&gt;&lt;div style=&quot;text-align: left&quot;&gt;kubernetes&lt;/div&gt;&lt;div style=&quot;text-align: left&quot;&gt;(external)&lt;/div&gt;" style="aspect=fixed;html=1;points=[];align=left;image;fontSize=12;image=img/lib/mscae/Load_Balancer_feature.svg;dashed=1;strokeColor=#3999c6;fillColor=none;labelPosition=right;verticalLabelPosition=middle;verticalAlign=middle;" parent="izLOdk6nZkrDbWo1u9eR-40" vertex="1">
                    <mxGeometry x="714" y="164" width="40" height="40" as="geometry"/>
                </mxCell>
                <mxCell id="izLOdk6nZkrDbWo1u9eR-84" value="Public IP Address&#10;Loadbalancer IP" style="shape=image;verticalLabelPosition=middle;labelBackgroundColor=#ffffff;verticalAlign=middle;aspect=fixed;imageAspect=0;image=data:image/svg+xml,PHN2ZyB4bWxucz0iaHR0cDovL3d3dy53My5vcmcvMjAwMC9zdmciIHhtbG5zOnhsaW5rPSJodHRwOi8vd3d3LnczLm9yZy8xOTk5L3hsaW5rIiB2ZXJzaW9uPSIxLjEiIGlkPSJMYXllcl8xIiB4PSIwcHgiIHk9IjBweCIgd2lkdGg9IjUwcHgiIGhlaWdodD0iNTBweCIgdmlld0JveD0iMC41IDAuNSA1MCA1MCIgZW5hYmxlLWJhY2tncm91bmQ9Im5ldyAwLjUgMC41IDUwIDUwIiB4bWw6c3BhY2U9InByZXNlcnZlIj4mI3hhOzxwYXRoIGZpbGw9IiM1OUI0RDkiIGQ9Ik0wLjUsNDUuMTI3YzAsMS4xMDgsMC44OTgsMi4wMDcsMi4wMDcsMi4wMDdoNDUuOTg2YzEuMTA5LDAsMi4wMDctMC44OTksMi4wMDctMi4wMDdWMTMuNzk4aC01MFY0NS4xMjd6Ii8+JiN4YTs8cGF0aCBmaWxsPSIjQTBBMUEyIiBkPSJNNDguNDkzLDQuNUgyLjUwN0MxLjM5OCw0LjUsMC41LDUuMzk4LDAuNSw2LjUwN3YxMC42MjdoNTBWNi41MDdDNTAuNSw1LjM5OCw0OS42MDEsNC41LDQ4LjQ5Myw0LjUiLz4mI3hhOzxwYXRoIG9wYWNpdHk9IjAuMiIgZmlsbD0iI0ZGRkZGRiIgZD0iTTIuNTE0LDQuNWMtMS4xMDgsMC0yLjAwNywwLjg5OC0yLjAwNywyLjAwN3Y3LjI5MXYzLjMzNnYyNy45OTMgIGMwLDEuMTA4LDAuODk5LDIuMDA3LDIuMDA3LDIuMDA3aDIuMTg4TDQ0LjEyLDQuNUgyLjUxNHoiLz4mI3hhOzxyZWN0IHg9IjEzLjM1NyIgeT0iOS4yNzkiIGZpbGw9IiNGRkZGRkYiIHdpZHRoPSIzMy42NzEiIGhlaWdodD0iMy45NDIiLz4mI3hhOzxwYXRoIGZpbGw9IiM1OUI0RDkiIGQ9Ik0xMS44MSwxMS4xODNjMCwyLjY5My0yLjE4NCw0Ljg3OC00Ljg3OCw0Ljg3OGMtMi42OTQsMC00Ljg3OC0yLjE4NS00Ljg3OC00Ljg3OCAgYzAtMi42OTQsMi4xODQtNC44NzksNC44NzgtNC44NzlDOS42MjUsNi4zMDQsMTEuODEsOC40ODksMTEuODEsMTEuMTgzIi8+JiN4YTs8cG9seWdvbiBmaWxsPSIjRkZGRkZGIiBwb2ludHM9IjYuNDE2LDExLjczMiA4LjYyOSwxNC4wNjggNy40MjgsMTQuMDY4IDQuNDY5LDExLjI1IDcuNDE3LDguNDMyIDguNjE1LDguNDMyIDYuNDE2LDEwLjc1NCAgIDExLjgwOSwxMC43NTQgMTEuODA5LDExLjczMiAiLz4mI3hhOzxwYXRoIGZpbGw9IiNGRkZGRkYiIGQ9Ik0xNy45MjYsMzYuNTc2YzAsMC41Ny0wLjIwMywxLjAzNy0wLjYwOSwxLjRzLTAuOTQxLDAuNTQ1LTEuNjA1LDAuNTQ1Yy0wLjU5NCwwLTEuMDk4LTAuMTg2LTEuNTEyLTAuNTU3ICBzLTAuNjIxLTAuODM0LTAuNjIxLTEuMzg5YzAtMC41NjMsMC4yMDctMS4wMjMsMC42MjEtMS4zODNzMC45MzgtMC41MzksMS41Ny0wLjUzOWMwLjYwOSwwLDEuMTIxLDAuMTg0LDEuNTM1LDAuNTUxICBTMTcuOTI2LDM2LjAyOSwxNy45MjYsMzYuNTc2eiIvPiYjeGE7PHBhdGggZmlsbD0iI0ZGRkZGRiIgZD0iTTI2LjgzLDM2LjU3NmMwLDAuNTctMC4yMDMsMS4wMzctMC42MDksMS40cy0wLjk0MSwwLjU0NS0xLjYwNSwwLjU0NWMtMC41OTQsMC0xLjA5OC0wLjE4Ni0xLjUxMi0wLjU1NyAgcy0wLjYyMS0wLjgzNC0wLjYyMS0xLjM4OWMwLTAuNTYzLDAuMjA3LTEuMDIzLDAuNjIxLTEuMzgzczAuOTM4LTAuNTM5LDEuNTctMC41MzljMC42MDksMCwxLjEyMSwwLjE4NCwxLjUzNSwwLjU1MSAgUzI2LjgzLDM2LjAyOSwyNi44MywzNi41NzZ6Ii8+JiN4YTs8cGF0aCBmaWxsPSIjRkZGRkZGIiBkPSJNMzUuNzMzLDM2LjU3NmMwLDAuNTctMC4yMDMsMS4wMzctMC42MDksMS40cy0wLjk0MSwwLjU0NS0xLjYwNSwwLjU0NWMtMC41OTQsMC0xLjA5OC0wLjE4Ni0xLjUxMi0wLjU1NyAgcy0wLjYyMS0wLjgzNC0wLjYyMS0xLjM4OWMwLTAuNTYzLDAuMjA3LTEuMDIzLDAuNjIxLTEuMzgzczAuOTM4LTAuNTM5LDEuNTctMC41MzljMC42MDksMCwxLjEyMSwwLjE4NCwxLjUzNSwwLjU1MSAgUzM1LjczMywzNi4wMjksMzUuNzMzLDM2LjU3NnoiLz4mI3hhOzwvc3ZnPg==;align=left;labelPosition=right;" parent="izLOdk6nZkrDbWo1u9eR-40" vertex="1">
                    <mxGeometry x="416" y="94" width="40" height="40" as="geometry"/>
                </mxCell>
                <mxCell id="izLOdk6nZkrDbWo1u9eR-93" style="edgeStyle=orthogonalEdgeStyle;rounded=0;orthogonalLoop=1;jettySize=auto;html=1;entryX=0.5;entryY=0;entryDx=0;entryDy=0;endArrow=classic;endFill=1;strokeColor=#080808;fontSize=12;exitX=0.474;exitY=1.016;exitDx=0;exitDy=0;exitPerimeter=0;" parent="izLOdk6nZkrDbWo1u9eR-40" source="izLOdk6nZkrDbWo1u9eR-91" target="GEIzQCT62DjLHcosNujS-88" edge="1">
                    <mxGeometry relative="1" as="geometry"/>
                </mxCell>
                <mxCell id="izLOdk6nZkrDbWo1u9eR-91" value="Credentials" style="aspect=fixed;html=1;points=[];align=left;image;fontSize=12;image=img/lib/mscae/Key.svg;dashed=1;strokeColor=#3999c6;fillColor=none;labelPosition=right;verticalLabelPosition=middle;verticalAlign=middle;" parent="izLOdk6nZkrDbWo1u9eR-40" vertex="1">
                    <mxGeometry x="56" y="338" width="18.6" height="30" as="geometry"/>
                </mxCell>
                <mxCell id="GEIzQCT62DjLHcosNujS-99" value="&lt;span style=&quot;text-align: left ; background-color: rgb(248 , 249 , 250)&quot;&gt;&amp;lt;to be determined&amp;gt;-resourcegroup&lt;/span&gt;" style="aspect=fixed;html=1;points=[];align=left;image;fontSize=12;image=img/lib/mscae/ResourceGroup.svg;dashed=1;strokeWidth=2;fillColor=none;labelPosition=right;verticalLabelPosition=middle;verticalAlign=middle;" parent="izLOdk6nZkrDbWo1u9eR-40" vertex="1">
                    <mxGeometry x="21" y="22" width="40" height="32" as="geometry"/>
                </mxCell>
                <mxCell id="GEIzQCT62DjLHcosNujS-88" value="Key Vault&#10;kkwebplatform-&lt;env&gt;-03-kv" style="shape=image;verticalLabelPosition=middle;labelBackgroundColor=#ffffff;verticalAlign=middle;aspect=fixed;imageAspect=0;image=data:image/svg+xml,PHN2ZyB4bWxucz0iaHR0cDovL3d3dy53My5vcmcvMjAwMC9zdmciIHhtbG5zOnhsaW5rPSJodHRwOi8vd3d3LnczLm9yZy8xOTk5L3hsaW5rIiB4bWxuczpzdmc9Imh0dHA6Ly93d3cudzMub3JnLzIwMDAvc3ZnIiBjbGFzcz0iIiBpZD0iRnhTeW1ib2wwLTA0OCIgcm9sZT0icHJlc2VudGF0aW9uIiB2aWV3Qm94PSIwIDAgMjQgMjQiIGZvY3VzYWJsZT0iZmFsc2UiPiYjeGE7PGc+JiN4YTs8dGl0bGUvPiYjeGE7PHBhdGggY2xhc3M9Im1zcG9ydGFsZngtc3ZnLWMxMSIgZmlsbD0iI2ZjZDExNiIgZD0iTSAxMS41IDEgQyA4LjUgMSA2IDMuNSA2IDYuNSBDIDYgOSA3LjYgMTEgOS43IDExLjcgTCA4LjUgMTMgbCAxLjUgMS4zIGwgLTEuNSAxLjQgTCAxMCAxNyBsIC0xLjUgMS41IGwgMyAyLjggbCAyLjUgLTIuNiB2IC03LjMgYyAxLjggLTEgMyAtMi44IDMgLTUgYyAwIC0zIC0yLjUgLTUuNCAtNS41IC01LjQgWiBtIDEgNCBzIC0wLjIgMCAtMC4zIDAuMiBzIC0wLjIgMC4yIC0wLjMgMC4yIEggMTEgbCAtMC4yIC0wLjIgbCAtMC4yIC0wLjMgViA0IGwgMC4yIC0wLjIgbCAwLjMgLTAuMiBoIDAuOSBsIDAuMiAwLjIgbCAwLjIgMC4zIFYgNSBaIi8+JiN4YTs8cGF0aCBjbGFzcz0ibXNwb3J0YWxmeC1zdmctYzEwIiBvcGFjaXR5PSIwLjQiIGZpbGw9IiNmZjhjMDAiIGQ9Ik0gMTIgMTIgdiA3LjIgbCAxIC0xIHYgLTYuNCBhIDUuNSA1LjUgMCAwIDEgLTEgMC4yIFoiLz4mI3hhOzxwYXRoIGNsYXNzPSJtc3BvcnRhbGZ4LXN2Zy1jMDEiIG9wYWNpdHk9IjAuNCIgZmlsbD0iI2ZmZmZmZiIgZD0iTSAxMS41IDEwIEEgMy41IDMuNSAwIDAgMCAxNSA3IEggOCBhIDMuNSAzLjUgMCAwIDAgMy41IDMgWiIvPiYjeGE7PHBhdGggY2xhc3M9Im1zcG9ydGFsZngtc3ZnLWMxNCIgZmlsbD0iIzdmYmEwMCIgZD0iTSAxNy40IDMuOCBjIDAuMyAwLjYgMC40IDEgMC41IDEuNyBhIDkuNSA5LjUgMCAwIDEgMyA3IGMgMCA1LjIgLTQuMyA5LjUgLTkuNSA5LjUgUyAyIDE3LjcgMiAxMi41IGEgOS41IDkuNSAwIDAgMSAzIC03IGwgMC42IC0xLjcgQSAxMC41IDEwLjUgMCAwIDAgMSAxMi41IEMgMSAxOC4zIDUuNyAyMyAxMS41IDIzIFMgMjIgMTguMyAyMiAxMi41IGMgMCAtMy42IC0xLjggLTYuOCAtNC42IC04LjcgWiIvPiYjeGE7PC9nPiYjeGE7PC9zdmc+;fontSize=12;align=left;labelPosition=right;" parent="izLOdk6nZkrDbWo1u9eR-40" vertex="1">
                    <mxGeometry x="45" y="420" width="40" height="40" as="geometry"/>
                </mxCell>
                <mxCell id="5" style="edgeStyle=orthogonalEdgeStyle;rounded=0;orthogonalLoop=1;jettySize=auto;html=1;endArrow=classic;endFill=1;strokeColor=#080808;fontSize=12;exitX=0.5;exitY=1;exitDx=0;exitDy=0;" edge="1" parent="izLOdk6nZkrDbWo1u9eR-40" source="GEIzQCT62DjLHcosNujS-73" target="izLOdk6nZkrDbWo1u9eR-91">
                    <mxGeometry relative="1" as="geometry">
                        <Array as="points"/>
                        <mxPoint x="65.13499999999999" y="294" as="sourcePoint"/>
                        <mxPoint x="351.99559999999997" y="612.3299999999999" as="targetPoint"/>
                    </mxGeometry>
                </mxCell>
                <mxCell id="izLOdk6nZkrDbWo1u9eR-116" value="Azure rg" parent="0"/>
                <mxCell id="izLOdk6nZkrDbWo1u9eR-96" value="Kubernetes Control Plane" style="html=1;dashed=0;whitespace=wrap;fillColor=#2875E2;strokeColor=#ffffff;points=[[0.005,0.63,0],[0.1,0.2,0],[0.9,0.2,0],[0.5,0,0],[0.995,0.63,0],[0.72,0.99,0],[0.5,1,0],[0.28,0.99,0]];shape=mxgraph.kubernetes.icon;prIcon=master;fontSize=12;align=center;labelPosition=center;verticalLabelPosition=bottom;verticalAlign=top;" parent="izLOdk6nZkrDbWo1u9eR-116" vertex="1">
                    <mxGeometry x="489" y="743" width="50" height="48" as="geometry"/>
                </mxCell>
                <mxCell id="izLOdk6nZkrDbWo1u9eR-52" value="MC_" parent="0"/>
                <mxCell id="DcQO4dvQv01EMwxF7Ed7-8" value="get (secret, certificate, key)" style="edgeStyle=orthogonalEdgeStyle;rounded=0;orthogonalLoop=1;jettySize=auto;html=1;fillColor=#d5e8d4;strokeColor=#82b366;exitX=0.25;exitY=1;exitDx=0;exitDy=0;entryX=0.5;entryY=1;entryDx=0;entryDy=0;" parent="izLOdk6nZkrDbWo1u9eR-52" source="jljs6CkxNdAdKAyOecQK-7" target="GEIzQCT62DjLHcosNujS-88" edge="1">
                    <mxGeometry relative="1" as="geometry"/>
                </mxCell>
            </root>
        </mxGraphModel>
    </diagram>
</mxfile>
